<mxfile host="Electron" modified="2023-06-27T17:24:18.076Z" agent="Mozilla/5.0 (Windows NT 10.0; Win64; x64) AppleWebKit/537.36 (KHTML, like Gecko) draw.io/21.5.0 Chrome/112.0.5615.204 Electron/24.5.1 Safari/537.36" etag="daU0JmKtU7XgHlFkMGB1" version="21.5.0" type="device" pages="3">
  <diagram id="yjau1HDW7so9mg-LOpFA" name="Problema">
    <mxGraphModel dx="1404" dy="856" grid="0" gridSize="10" guides="1" tooltips="1" connect="1" arrows="1" fold="1" page="1" pageScale="1" pageWidth="827" pageHeight="1169" background="#ffffff" math="0" shadow="0">
      <root>
        <mxCell id="0" />
        <mxCell id="1" parent="0" />
        <mxCell id="Apim4zq0aoj7oVfcVG16-4" value="&lt;h1&gt;Ejercicio centro médico&lt;/h1&gt;&lt;p&gt;Un centro médico nos pide hacer un programa para administrar la información de sus pacientes y de los médicos.&lt;/p&gt;&lt;p&gt;El centro médico maneja, por el momento, servicios de medicina general y pediatría. Un médico puede remitir los pacientes a un especialista o a otro centro médico.&lt;br&gt;&lt;br&gt;Tanto para pacientes y médicos es importante tener sus nombres y documentos de identidad y un teléfono de contacto.&lt;br&gt;&lt;br&gt;Para los pacientes es necesario conocer su fecha de nacimiento y grupo sanguíneo.&lt;/p&gt;&lt;p&gt;&lt;br&gt;El sistema deberá permitir mostrar la información detallada de un paciente o médico.&lt;/p&gt;&lt;p&gt;&lt;span style=&quot;background-color: initial;&quot;&gt;El sistema debería poder generar los siguientes reportes:&lt;/span&gt;&lt;br&gt;&lt;/p&gt;&lt;p&gt;&lt;/p&gt;&lt;ol style=&quot;line-height: 170%;&quot;&gt;&lt;li&gt;Listado de médicos.&lt;/li&gt;&lt;li&gt;Listado de médicos por especialidad.&lt;/li&gt;&lt;li&gt;Listado de pacientes.&lt;/li&gt;&lt;li&gt;Listado de pacientes por rango de edad.&lt;/li&gt;&lt;li&gt;Listado de pacientes por grupo sanguíneo.&lt;/li&gt;&lt;/ol&gt;&lt;p&gt;&lt;/p&gt;" style="text;html=1;strokeColor=none;fillColor=none;spacing=5;spacingTop=-20;whiteSpace=wrap;overflow=hidden;rounded=0;fontSize=16;" parent="1" vertex="1">
          <mxGeometry x="25" y="29" width="777" height="509" as="geometry" />
        </mxCell>
        <mxCell id="7SRjIaKwf8lgslSotSLB-1" value="©&amp;nbsp;David Ordás Pacios" style="text;strokeColor=none;fillColor=none;html=1;fontSize=11;fontStyle=1;verticalAlign=middle;align=right;fontFamily=Helvetica;fontColor=default;" parent="1" vertex="1">
          <mxGeometry x="623" y="29" width="179" height="40" as="geometry" />
        </mxCell>
        <mxCell id="7SRjIaKwf8lgslSotSLB-2" value="©&amp;nbsp;David Ordás Pacios" style="text;strokeColor=none;fillColor=none;html=1;fontSize=11;fontStyle=1;verticalAlign=middle;align=left;fontFamily=Helvetica;fontColor=default;" parent="1" vertex="1">
          <mxGeometry x="25" y="1105" width="179" height="40" as="geometry" />
        </mxCell>
        <UserObject label="%date{ddd mmm dd yyyy HH:MM:ss}%" placeholders="1" id="yKx_KZwwAdSj7FTAkWum-1">
          <mxCell style="text;html=1;strokeColor=none;fillColor=none;align=right;verticalAlign=middle;whiteSpace=wrap;overflow=hidden;fontSize=11;fontFamily=Helvetica;fontColor=default;" parent="1" vertex="1">
            <mxGeometry x="642" y="1115" width="160" height="20" as="geometry" />
          </mxCell>
        </UserObject>
        <mxCell id="Zyj2_7IjHSvPiscIj7Zd-1" value="&lt;h1&gt;V2&lt;/h1&gt;&lt;p&gt;&lt;font style=&quot;font-size: 16px;&quot;&gt;Pasados un par de años, el centro médico permitirá a los paramédicos y enfermeras jefe derivar los pacientes a otro centro médico.&lt;/font&gt;&lt;/p&gt;&lt;p&gt;&lt;font style=&quot;font-size: 16px;&quot;&gt;Así mismo, se necesita ahora que el sistema genere los reportes de pacientes en varios idiomas: Español e Inglés.&lt;/font&gt;&lt;/p&gt;" style="text;html=1;strokeColor=none;fillColor=none;spacing=5;spacingTop=-20;whiteSpace=wrap;overflow=hidden;rounded=0;fontSize=12;fontFamily=Helvetica;fontColor=default;" parent="1" vertex="1">
          <mxGeometry x="25" y="552" width="777" height="150" as="geometry" />
        </mxCell>
      </root>
    </mxGraphModel>
  </diagram>
  <diagram name="Casos de uso" id="9ORCXwc-b5ZHIEktn7Au">
    <mxGraphModel dx="1404" dy="856" grid="0" gridSize="10" guides="1" tooltips="1" connect="1" arrows="1" fold="1" page="1" pageScale="1" pageWidth="827" pageHeight="1169" background="#ffffff" math="0" shadow="0">
      <root>
        <mxCell id="0" />
        <mxCell id="1" parent="0" />
        <mxCell id="nAqaM2n0ivsn05cuiiaE-1" value="MedicalCenterSystem" style="shape=umlFrame;whiteSpace=wrap;html=1;pointerEvents=0;recursiveResize=0;container=1;collapsible=0;width=160;fontSize=12;fontStyle=1;labelBackgroundColor=default;labelBorderColor=none;swimlaneFillColor=none;" parent="1" vertex="1">
          <mxGeometry x="467" y="158" width="299" height="917" as="geometry" />
        </mxCell>
        <mxCell id="nAqaM2n0ivsn05cuiiaE-5" value="Get patient detail" style="ellipse;whiteSpace=wrap;html=1;fontSize=16;verticalAlign=middle;fillColor=#e1d5e7;strokeColor=#9673a6;" parent="nAqaM2n0ivsn05cuiiaE-1" vertex="1">
          <mxGeometry x="52" y="50" width="205" height="60" as="geometry" />
        </mxCell>
        <mxCell id="nAqaM2n0ivsn05cuiiaE-7" value="Get doctor detail" style="ellipse;whiteSpace=wrap;html=1;fontSize=16;verticalAlign=middle;fillColor=#e1d5e7;strokeColor=#9673a6;" parent="nAqaM2n0ivsn05cuiiaE-1" vertex="1">
          <mxGeometry x="52" y="119" width="205" height="60" as="geometry" />
        </mxCell>
        <mxCell id="z4y4GvoJjP2e4LZ8K3wG-1" value="List all doctors" style="ellipse;whiteSpace=wrap;html=1;fontSize=16;verticalAlign=middle;fillColor=#e1d5e7;strokeColor=#9673a6;" parent="nAqaM2n0ivsn05cuiiaE-1" vertex="1">
          <mxGeometry x="52" y="188" width="205" height="60" as="geometry" />
        </mxCell>
        <mxCell id="z4y4GvoJjP2e4LZ8K3wG-2" value="List doctors by speciality" style="ellipse;whiteSpace=wrap;html=1;fontSize=16;verticalAlign=middle;fillColor=#e1d5e7;strokeColor=#9673a6;" parent="nAqaM2n0ivsn05cuiiaE-1" vertex="1">
          <mxGeometry x="56" y="258" width="205" height="60" as="geometry" />
        </mxCell>
        <mxCell id="z4y4GvoJjP2e4LZ8K3wG-3" value="List all patients" style="ellipse;whiteSpace=wrap;html=1;fontSize=16;verticalAlign=middle;fillColor=#e1d5e7;strokeColor=#9673a6;" parent="nAqaM2n0ivsn05cuiiaE-1" vertex="1">
          <mxGeometry x="56" y="327" width="205" height="60" as="geometry" />
        </mxCell>
        <mxCell id="z4y4GvoJjP2e4LZ8K3wG-4" value="List patients by age range" style="ellipse;whiteSpace=wrap;html=1;fontSize=16;verticalAlign=middle;fillColor=#e1d5e7;strokeColor=#9673a6;" parent="nAqaM2n0ivsn05cuiiaE-1" vertex="1">
          <mxGeometry x="61" y="396" width="205" height="60" as="geometry" />
        </mxCell>
        <mxCell id="lYA8uyUbtBW9BWPLNV5d-1" value="Remit patient to specialist" style="ellipse;whiteSpace=wrap;html=1;fontSize=16;verticalAlign=middle;fillColor=#d5e8d4;strokeColor=#82b366;" parent="nAqaM2n0ivsn05cuiiaE-1" vertex="1">
          <mxGeometry x="61" y="554" width="205" height="60" as="geometry" />
        </mxCell>
        <mxCell id="lYA8uyUbtBW9BWPLNV5d-2" value="Remit patient to other medical center" style="ellipse;whiteSpace=wrap;html=1;fontSize=16;verticalAlign=middle;fillColor=#d5e8d4;strokeColor=#82b366;" parent="nAqaM2n0ivsn05cuiiaE-1" vertex="1">
          <mxGeometry x="61" y="622" width="205" height="60" as="geometry" />
        </mxCell>
        <mxCell id="lYA8uyUbtBW9BWPLNV5d-5" value="List patients by blood type" style="ellipse;whiteSpace=wrap;html=1;fontSize=16;verticalAlign=middle;fillColor=#e1d5e7;strokeColor=#9673a6;" parent="nAqaM2n0ivsn05cuiiaE-1" vertex="1">
          <mxGeometry x="61" y="467" width="205" height="60" as="geometry" />
        </mxCell>
        <mxCell id="nAqaM2n0ivsn05cuiiaE-6" value="" style="edgeStyle=none;curved=1;rounded=0;orthogonalLoop=1;jettySize=auto;html=1;fontSize=12;startSize=8;endSize=8;strokeColor=#9673a6;" parent="1" source="fdjFLVPIKeB2NKdTiVDq-17" target="nAqaM2n0ivsn05cuiiaE-5" edge="1">
          <mxGeometry relative="1" as="geometry">
            <mxPoint x="133" y="252.26245640801847" as="sourcePoint" />
          </mxGeometry>
        </mxCell>
        <mxCell id="nAqaM2n0ivsn05cuiiaE-8" value="" style="edgeStyle=none;curved=1;rounded=0;orthogonalLoop=1;jettySize=auto;html=1;fontSize=12;startSize=8;endSize=8;strokeColor=#9673a6;" parent="1" source="fdjFLVPIKeB2NKdTiVDq-17" target="nAqaM2n0ivsn05cuiiaE-7" edge="1">
          <mxGeometry relative="1" as="geometry">
            <mxPoint x="133" y="253.8169683677893" as="sourcePoint" />
          </mxGeometry>
        </mxCell>
        <mxCell id="uCX0tvwcQfUFh7thO39S-1" value="&lt;h1 style=&quot;line-height: 100%;&quot;&gt;Diagrama de&lt;/h1&gt;&lt;h1 style=&quot;line-height: 100%;&quot;&gt;casos de uso del sistema&lt;/h1&gt;&lt;p style=&quot;line-height: 100%;&quot;&gt;&lt;br&gt;&lt;/p&gt;" style="text;html=1;strokeColor=none;fillColor=none;spacing=5;spacingTop=-20;whiteSpace=wrap;overflow=hidden;rounded=0;fontSize=16;align=center;" parent="1" vertex="1">
          <mxGeometry x="33" y="28" width="760" height="110" as="geometry" />
        </mxCell>
        <mxCell id="lYA8uyUbtBW9BWPLNV5d-8" style="edgeStyle=none;curved=1;rounded=0;orthogonalLoop=1;jettySize=auto;html=1;fontSize=12;startSize=8;endSize=8;fillColor=#e1d5e7;strokeColor=#9673a6;" parent="1" source="fdjFLVPIKeB2NKdTiVDq-17" target="lYA8uyUbtBW9BWPLNV5d-5" edge="1">
          <mxGeometry relative="1" as="geometry" />
        </mxCell>
        <mxCell id="fdjFLVPIKeB2NKdTiVDq-17" value="&lt;font style=&quot;font-size: 14px;&quot;&gt;User&lt;/font&gt;" style="shape=umlActor;verticalLabelPosition=bottom;verticalAlign=top;html=1;fontSize=16;fillColor=#e1d5e7;strokeColor=#9673a6;" parent="1" vertex="1">
          <mxGeometry x="91" y="439" width="30" height="60" as="geometry" />
        </mxCell>
        <mxCell id="4HJWGPuWjYUQlHEhskH5-1" value="©&amp;nbsp;David Ordás Pacios" style="text;strokeColor=none;fillColor=none;html=1;fontSize=11;fontStyle=1;verticalAlign=middle;align=left;fontFamily=Helvetica;fontColor=default;" parent="1" vertex="1">
          <mxGeometry x="25" y="1105" width="179" height="40" as="geometry" />
        </mxCell>
        <mxCell id="G2cTH3iRnOiK5P5Qu6_e-1" value="©&amp;nbsp;David Ordás Pacios" style="text;strokeColor=none;fillColor=none;html=1;fontSize=11;fontStyle=1;verticalAlign=middle;align=right;fontFamily=Helvetica;fontColor=default;" parent="1" vertex="1">
          <mxGeometry x="614" y="28" width="179" height="40" as="geometry" />
        </mxCell>
        <UserObject label="%date{ddd mmm dd yyyy HH:MM:ss}%" placeholders="1" id="Y9BQGpolp91e92J_W6ps-1">
          <mxCell style="text;html=1;strokeColor=none;fillColor=none;align=right;verticalAlign=middle;whiteSpace=wrap;overflow=hidden;fontSize=11;fontFamily=Helvetica;fontColor=default;" parent="1" vertex="1">
            <mxGeometry x="633" y="1115" width="160" height="20" as="geometry" />
          </mxCell>
        </UserObject>
        <mxCell id="K8nz_H2eU5Op0A7toSMu-1" value="" style="edgeStyle=none;curved=1;rounded=0;orthogonalLoop=1;jettySize=auto;html=1;fontSize=12;startSize=8;endSize=8;strokeColor=#9673a6;" parent="1" source="fdjFLVPIKeB2NKdTiVDq-17" target="z4y4GvoJjP2e4LZ8K3wG-1" edge="1">
          <mxGeometry relative="1" as="geometry">
            <mxPoint x="133" y="262" as="sourcePoint" />
            <mxPoint x="541" y="305" as="targetPoint" />
          </mxGeometry>
        </mxCell>
        <mxCell id="K8nz_H2eU5Op0A7toSMu-2" value="" style="edgeStyle=none;curved=1;rounded=0;orthogonalLoop=1;jettySize=auto;html=1;fontSize=12;startSize=8;endSize=8;strokeColor=#9673a6;" parent="1" source="fdjFLVPIKeB2NKdTiVDq-17" target="z4y4GvoJjP2e4LZ8K3wG-2" edge="1">
          <mxGeometry relative="1" as="geometry">
            <mxPoint x="133" y="263" as="sourcePoint" />
            <mxPoint x="562" y="353" as="targetPoint" />
          </mxGeometry>
        </mxCell>
        <mxCell id="K8nz_H2eU5Op0A7toSMu-3" value="" style="edgeStyle=none;curved=1;rounded=0;orthogonalLoop=1;jettySize=auto;html=1;fontSize=12;startSize=8;endSize=8;strokeColor=#9673a6;" parent="1" source="fdjFLVPIKeB2NKdTiVDq-17" target="z4y4GvoJjP2e4LZ8K3wG-3" edge="1">
          <mxGeometry relative="1" as="geometry">
            <mxPoint x="133" y="265" as="sourcePoint" />
            <mxPoint x="581" y="405" as="targetPoint" />
          </mxGeometry>
        </mxCell>
        <mxCell id="K8nz_H2eU5Op0A7toSMu-4" value="" style="edgeStyle=none;curved=1;rounded=0;orthogonalLoop=1;jettySize=auto;html=1;fontSize=12;startSize=8;endSize=8;strokeColor=#9673a6;" parent="1" source="fdjFLVPIKeB2NKdTiVDq-17" target="z4y4GvoJjP2e4LZ8K3wG-4" edge="1">
          <mxGeometry relative="1" as="geometry">
            <mxPoint x="131" y="375" as="sourcePoint" />
            <mxPoint x="565" y="464" as="targetPoint" />
          </mxGeometry>
        </mxCell>
        <mxCell id="lYA8uyUbtBW9BWPLNV5d-6" style="edgeStyle=none;curved=1;rounded=0;orthogonalLoop=1;jettySize=auto;html=1;fontSize=12;startSize=8;endSize=8;fillColor=#d5e8d4;strokeColor=#82b366;" parent="1" source="lYA8uyUbtBW9BWPLNV5d-4" target="lYA8uyUbtBW9BWPLNV5d-1" edge="1">
          <mxGeometry relative="1" as="geometry">
            <mxPoint x="115" y="768" as="sourcePoint" />
          </mxGeometry>
        </mxCell>
        <mxCell id="lYA8uyUbtBW9BWPLNV5d-7" style="edgeStyle=none;curved=1;rounded=0;orthogonalLoop=1;jettySize=auto;html=1;fontSize=12;startSize=8;endSize=8;fillColor=#d5e8d4;strokeColor=#82b366;" parent="1" source="lYA8uyUbtBW9BWPLNV5d-4" target="lYA8uyUbtBW9BWPLNV5d-2" edge="1">
          <mxGeometry relative="1" as="geometry" />
        </mxCell>
        <mxCell id="lYA8uyUbtBW9BWPLNV5d-4" value="&lt;font style=&quot;font-size: 14px;&quot;&gt;Doctor&lt;/font&gt;" style="shape=umlActor;verticalLabelPosition=bottom;verticalAlign=top;html=1;fontSize=16;fillColor=#d5e8d4;strokeColor=#82b366;" parent="1" vertex="1">
          <mxGeometry x="91" y="738" width="30" height="60" as="geometry" />
        </mxCell>
        <mxCell id="lYA8uyUbtBW9BWPLNV5d-12" style="edgeStyle=none;curved=1;rounded=0;orthogonalLoop=1;jettySize=auto;html=1;fontSize=12;startSize=8;endSize=8;fillColor=#ffe6cc;strokeColor=#d79b00;" parent="1" source="lYA8uyUbtBW9BWPLNV5d-9" target="lYA8uyUbtBW9BWPLNV5d-2" edge="1">
          <mxGeometry relative="1" as="geometry" />
        </mxCell>
        <mxCell id="lYA8uyUbtBW9BWPLNV5d-9" value="&lt;font style=&quot;font-size: 14px;&quot;&gt;Head Nurse&lt;/font&gt;" style="shape=umlActor;verticalLabelPosition=bottom;verticalAlign=top;html=1;fontSize=16;fillColor=#ffe6cc;strokeColor=#d79b00;" parent="1" vertex="1">
          <mxGeometry x="91" y="857" width="30" height="60" as="geometry" />
        </mxCell>
        <mxCell id="lYA8uyUbtBW9BWPLNV5d-13" style="edgeStyle=none;curved=1;rounded=0;orthogonalLoop=1;jettySize=auto;html=1;fontSize=12;startSize=8;endSize=8;fillColor=#f8cecc;strokeColor=#b85450;" parent="1" source="lYA8uyUbtBW9BWPLNV5d-10" target="lYA8uyUbtBW9BWPLNV5d-2" edge="1">
          <mxGeometry relative="1" as="geometry" />
        </mxCell>
        <mxCell id="lYA8uyUbtBW9BWPLNV5d-10" value="&lt;font style=&quot;font-size: 14px;&quot;&gt;Paramedic&lt;/font&gt;" style="shape=umlActor;verticalLabelPosition=bottom;verticalAlign=top;html=1;fontSize=16;fillColor=#f8cecc;strokeColor=#b85450;" parent="1" vertex="1">
          <mxGeometry x="91" y="982" width="30" height="60" as="geometry" />
        </mxCell>
      </root>
    </mxGraphModel>
  </diagram>
  <diagram id="uoXFKJENOx-Z1yMpkFRK" name="Clases">
    <mxGraphModel dx="2006" dy="1223" grid="0" gridSize="10" guides="1" tooltips="1" connect="1" arrows="1" fold="1" page="1" pageScale="1" pageWidth="2336" pageHeight="1654" background="#ffffff" math="0" shadow="0">
      <root>
        <mxCell id="0" />
        <mxCell id="1" parent="0" />
        <mxCell id="08od-bibOzEyOUq_gxU7-13" value="" style="group;fontSize=16;fontFamily=Helvetica;fontColor=default;fillColor=none;gradientColor=none;html=1;fontStyle=0;verticalAlign=middle;" parent="1" vertex="1" connectable="0">
          <mxGeometry x="72" y="99" width="1608" height="1509" as="geometry" />
        </mxCell>
        <mxCell id="08od-bibOzEyOUq_gxU7-14" value="" style="rounded=0;whiteSpace=wrap;html=1;fontSize=16;glass=0;strokeColor=#6c8ebf;fillColor=#fafcff;fontFamily=Helvetica;" parent="08od-bibOzEyOUq_gxU7-13" vertex="1">
          <mxGeometry width="1607.9999999999998" height="1509.0000000000005" as="geometry" />
        </mxCell>
        <mxCell id="08od-bibOzEyOUq_gxU7-15" value="&lt;font style=&quot;font-size: 14px;&quot;&gt;&lt;b&gt;package&lt;/b&gt;: &lt;font face=&quot;Courier New&quot;&gt;medicalcenter.model&lt;/font&gt;&lt;/font&gt;" style="shape=umlFrame;whiteSpace=wrap;html=1;pointerEvents=0;fontSize=16;width=274;height=25;align=left;spacingLeft=8;spacingRight=8;fillColor=#dae8fc;strokeColor=#6c8ebf;fontFamily=Helvetica;verticalAlign=middle;" parent="08od-bibOzEyOUq_gxU7-13" vertex="1">
          <mxGeometry width="1607.9999999999998" height="1509.0000000000005" as="geometry" />
        </mxCell>
        <mxCell id="j92NfnuFEvERG6SwWWjx-4" value="" style="verticalLabelPosition=bottom;verticalAlign=top;html=1;shape=mxgraph.basic.polygon;polyCoords=[[0.44,0.23],[0,0.23],[0,0],[0.88,0],[0.88,0.29],[0.88,0.51],[1,0.51],[1,1],[0.57,1],[0.57,0.6],[0.44,0.6],[0.44,0.23]];polyline=1;fillColor=#f1fef1;fontFamily=Helvetica;fontSize=12;dashed=1;strokeWidth=2;dashPattern=1 1;strokeColor=#82b366;" parent="1" vertex="1">
          <mxGeometry x="564" y="109.00663129973475" width="847" height="1480.9814323607427" as="geometry" />
        </mxCell>
        <mxCell id="xznpKNi5A-erC4lOgOd5-4" value="" style="endArrow=block;dashed=1;endFill=0;endSize=10;html=1;rounded=0;labelBackgroundColor=default;strokeColor=default;fontFamily=Helvetica;fontSize=12;fontColor=default;shape=connector;edgeStyle=orthogonalEdgeStyle;fillColor=#008a00;" parent="1" source="9s62NMN8IXOqiIoqj4Az-38" target="xznpKNi5A-erC4lOgOd5-1" edge="1">
          <mxGeometry width="160" relative="1" as="geometry">
            <mxPoint x="753" y="514" as="sourcePoint" />
            <mxPoint x="1166" y="247" as="targetPoint" />
            <Array as="points">
              <mxPoint x="743" y="400" />
              <mxPoint x="1156" y="400" />
              <mxPoint x="1156" y="283" />
            </Array>
          </mxGeometry>
        </mxCell>
        <mxCell id="_S3-t9sH7N-Dq7EBJXKU-1" value="&lt;h1&gt;Diagrama de clases del sistema&lt;/h1&gt;&lt;p&gt;&lt;br&gt;&lt;/p&gt;" style="text;html=1;strokeColor=none;fillColor=none;spacing=5;spacingTop=-20;whiteSpace=wrap;overflow=hidden;rounded=0;fontSize=16;align=center;verticalAlign=middle;" parent="1" vertex="1">
          <mxGeometry x="24" y="21" width="2273" height="64" as="geometry" />
        </mxCell>
        <mxCell id="9sT4fiUWlke-TENeovpz-42" value="©&amp;nbsp;David Ordás Pacios" style="text;strokeColor=none;fillColor=none;html=1;fontSize=11;fontStyle=1;verticalAlign=middle;align=right;fontFamily=Helvetica;fontColor=default;" parent="1" vertex="1">
          <mxGeometry x="2111" y="19" width="179" height="40" as="geometry" />
        </mxCell>
        <mxCell id="zrHM-mMTd3gewdu4RQmC-1" value="©&amp;nbsp;David Ordás Pacios" style="text;strokeColor=none;fillColor=none;html=1;fontSize=11;fontStyle=1;verticalAlign=bottom;align=left;fontFamily=Helvetica;fontColor=default;" parent="1" vertex="1">
          <mxGeometry x="74" y="1593" width="179" height="40" as="geometry" />
        </mxCell>
        <UserObject label="%date{ddd mmm dd yyyy HH:MM:ss}%" placeholders="1" id="PRAA3aLYI8hNDqKGHLpQ-2">
          <mxCell style="text;html=1;strokeColor=none;fillColor=none;align=right;verticalAlign=middle;whiteSpace=wrap;overflow=hidden;fontSize=11;fontFamily=Helvetica;fontColor=default;" parent="1" vertex="1">
            <mxGeometry x="2130" y="50" width="160" height="20" as="geometry" />
          </mxCell>
        </UserObject>
        <mxCell id="9s62NMN8IXOqiIoqj4Az-13" value="MedicalCenter" style="swimlane;fontStyle=1;align=center;verticalAlign=middle;childLayout=stackLayout;horizontal=1;startSize=26;horizontalStack=0;resizeParent=1;resizeParentMax=0;resizeLast=0;collapsible=1;marginBottom=0;whiteSpace=wrap;html=1;fontSize=14;fillColor=#dae8fc;strokeColor=#6c8ebf;" parent="1" vertex="1">
          <mxGeometry x="153" y="143" width="370" height="584" as="geometry">
            <mxRectangle x="108" y="223" width="131" height="29" as="alternateBounds" />
          </mxGeometry>
        </mxCell>
        <mxCell id="_-4CZTtRlvRTHJ1N7zLC-31" value="- &lt;u&gt;code: String&lt;/u&gt;" style="text;strokeColor=none;fillColor=none;align=left;verticalAlign=middle;spacingLeft=4;spacingRight=4;overflow=hidden;rotatable=0;points=[[0,0.5],[1,0.5]];portConstraint=eastwest;whiteSpace=wrap;html=1;fontSize=12;fontStyle=0" parent="9s62NMN8IXOqiIoqj4Az-13" vertex="1">
          <mxGeometry y="26" width="370" height="22" as="geometry" />
        </mxCell>
        <mxCell id="JaPePX_1LT8RlTslirHy-34" value="- &lt;u&gt;name: String&lt;/u&gt;" style="text;strokeColor=none;fillColor=none;align=left;verticalAlign=middle;spacingLeft=4;spacingRight=4;overflow=hidden;rotatable=0;points=[[0,0.5],[1,0.5]];portConstraint=eastwest;whiteSpace=wrap;html=1;fontSize=12;fontStyle=0" parent="9s62NMN8IXOqiIoqj4Az-13" vertex="1">
          <mxGeometry y="48" width="370" height="22" as="geometry" />
        </mxCell>
        <mxCell id="9s62NMN8IXOqiIoqj4Az-85" value="- &lt;u&gt;services: MedicalService[]&lt;/u&gt;" style="text;strokeColor=none;fillColor=none;align=left;verticalAlign=middle;spacingLeft=4;spacingRight=4;overflow=hidden;rotatable=0;points=[[0,0.5],[1,0.5]];portConstraint=eastwest;whiteSpace=wrap;html=1;fontSize=12;fontStyle=0" parent="9s62NMN8IXOqiIoqj4Az-13" vertex="1">
          <mxGeometry y="70" width="370" height="22" as="geometry" />
        </mxCell>
        <mxCell id="8kTk9Mw71UbB4ehkWqcH-2" value="- &lt;u&gt;employees: MedicalCenterEmployee[]&lt;/u&gt;" style="text;strokeColor=none;fillColor=none;align=left;verticalAlign=middle;spacingLeft=4;spacingRight=4;overflow=hidden;rotatable=0;points=[[0,0.5],[1,0.5]];portConstraint=eastwest;whiteSpace=wrap;html=1;fontSize=12;fontStyle=0" parent="9s62NMN8IXOqiIoqj4Az-13" vertex="1">
          <mxGeometry y="92" width="370" height="22" as="geometry" />
        </mxCell>
        <mxCell id="JaPePX_1LT8RlTslirHy-27" value="- &lt;u&gt;patients: Patient[]&lt;/u&gt;" style="text;strokeColor=none;fillColor=none;align=left;verticalAlign=middle;spacingLeft=4;spacingRight=4;overflow=hidden;rotatable=0;points=[[0,0.5],[1,0.5]];portConstraint=eastwest;whiteSpace=wrap;html=1;fontSize=12;fontStyle=0" parent="9s62NMN8IXOqiIoqj4Az-13" vertex="1">
          <mxGeometry y="114" width="370" height="22" as="geometry" />
        </mxCell>
        <mxCell id="9s62NMN8IXOqiIoqj4Az-16" value="" style="line;strokeWidth=1;fillColor=none;align=left;verticalAlign=top;spacingTop=-1;spacingLeft=3;spacingRight=3;rotatable=0;labelPosition=right;points=[];portConstraint=eastwest;strokeColor=inherit;fontSize=16;" parent="9s62NMN8IXOqiIoqj4Az-13" vertex="1">
          <mxGeometry y="136" width="370" height="8" as="geometry" />
        </mxCell>
        <mxCell id="9s62NMN8IXOqiIoqj4Az-17" value="&lt;b style=&quot;font-size: 12px;&quot;&gt;+ MedicalCenter(&lt;/b&gt;&lt;font style=&quot;font-size: 10px;&quot;&gt;code: String, name: String&lt;/font&gt;&lt;b style=&quot;font-size: 12px;&quot;&gt;)&lt;/b&gt;" style="text;strokeColor=none;fillColor=none;align=left;verticalAlign=middle;spacingLeft=4;spacingRight=4;overflow=hidden;rotatable=0;points=[[0,0.5],[1,0.5]];portConstraint=eastwest;whiteSpace=wrap;html=1;fontSize=12;spacing=2;spacingBottom=0;" parent="9s62NMN8IXOqiIoqj4Az-13" vertex="1">
          <mxGeometry y="144" width="370" height="22" as="geometry" />
        </mxCell>
        <mxCell id="JaPePX_1LT8RlTslirHy-35" value="+ getCode(): String" style="text;strokeColor=none;fillColor=none;align=left;verticalAlign=middle;spacingLeft=4;spacingRight=4;overflow=hidden;rotatable=0;points=[[0,0.5],[1,0.5]];portConstraint=eastwest;whiteSpace=wrap;html=1;fontSize=12;fontStyle=0" parent="9s62NMN8IXOqiIoqj4Az-13" vertex="1">
          <mxGeometry y="166" width="370" height="22" as="geometry" />
        </mxCell>
        <mxCell id="pi0DDQXBDcWQWIFwsOJ6-12" value="+ getName(): String" style="text;strokeColor=none;fillColor=none;align=left;verticalAlign=middle;spacingLeft=4;spacingRight=4;overflow=hidden;rotatable=0;points=[[0,0.5],[1,0.5]];portConstraint=eastwest;whiteSpace=wrap;html=1;fontSize=12;fontStyle=0" parent="9s62NMN8IXOqiIoqj4Az-13" vertex="1">
          <mxGeometry y="188" width="370" height="22" as="geometry" />
        </mxCell>
        <mxCell id="pi0DDQXBDcWQWIFwsOJ6-13" value="# setName(name: String): void" style="text;strokeColor=none;fillColor=none;align=left;verticalAlign=middle;spacingLeft=4;spacingRight=4;overflow=hidden;rotatable=0;points=[[0,0.5],[1,0.5]];portConstraint=eastwest;whiteSpace=wrap;html=1;fontSize=12;fontStyle=0" parent="9s62NMN8IXOqiIoqj4Az-13" vertex="1">
          <mxGeometry y="210" width="370" height="22" as="geometry" />
        </mxCell>
        <mxCell id="8kTk9Mw71UbB4ehkWqcH-1" value="+ getEmployees(): MedicalCenterEmployee[]" style="text;strokeColor=none;fillColor=none;align=left;verticalAlign=middle;spacingLeft=4;spacingRight=4;overflow=hidden;rotatable=0;points=[[0,0.5],[1,0.5]];portConstraint=eastwest;whiteSpace=wrap;html=1;fontSize=12;fontStyle=0" parent="9s62NMN8IXOqiIoqj4Az-13" vertex="1">
          <mxGeometry y="232" width="370" height="22" as="geometry" />
        </mxCell>
        <mxCell id="8kTk9Mw71UbB4ehkWqcH-5" value="+ addEmployee(&lt;font style=&quot;font-size: 10px;&quot;&gt;employee: MedicalCenterEmployee&lt;/font&gt;): boolean" style="text;strokeColor=none;fillColor=none;align=left;verticalAlign=middle;spacingLeft=4;spacingRight=4;overflow=hidden;rotatable=0;points=[[0,0.5],[1,0.5]];portConstraint=eastwest;whiteSpace=wrap;html=1;fontSize=12;fontStyle=0" parent="9s62NMN8IXOqiIoqj4Az-13" vertex="1">
          <mxGeometry y="254" width="370" height="22" as="geometry" />
        </mxCell>
        <mxCell id="8kTk9Mw71UbB4ehkWqcH-6" value="+ removeEmployee(&lt;font style=&quot;font-size: 10px;&quot;&gt;employee: MedicalCenterEmployee&lt;/font&gt;): boolean" style="text;strokeColor=none;fillColor=none;align=left;verticalAlign=middle;spacingLeft=4;spacingRight=4;overflow=hidden;rotatable=0;points=[[0,0.5],[1,0.5]];portConstraint=eastwest;whiteSpace=wrap;html=1;fontSize=12;fontStyle=0" parent="9s62NMN8IXOqiIoqj4Az-13" vertex="1">
          <mxGeometry y="276" width="370" height="22" as="geometry" />
        </mxCell>
        <mxCell id="pi0DDQXBDcWQWIFwsOJ6-7" value="+ getMedicalServices(): MedicalService[]" style="text;strokeColor=none;fillColor=none;align=left;verticalAlign=middle;spacingLeft=4;spacingRight=4;overflow=hidden;rotatable=0;points=[[0,0.5],[1,0.5]];portConstraint=eastwest;whiteSpace=wrap;html=1;fontSize=12;fontStyle=0" parent="9s62NMN8IXOqiIoqj4Az-13" vertex="1">
          <mxGeometry y="298" width="370" height="22" as="geometry" />
        </mxCell>
        <mxCell id="pi0DDQXBDcWQWIFwsOJ6-10" value="+ addMedicalService(&lt;font style=&quot;font-size: 10px;&quot;&gt;service: MedicalService&lt;/font&gt;): boolean" style="text;strokeColor=none;fillColor=none;align=left;verticalAlign=middle;spacingLeft=4;spacingRight=4;overflow=hidden;rotatable=0;points=[[0,0.5],[1,0.5]];portConstraint=eastwest;whiteSpace=wrap;html=1;fontSize=12;fontStyle=0" parent="9s62NMN8IXOqiIoqj4Az-13" vertex="1">
          <mxGeometry y="320" width="370" height="22" as="geometry" />
        </mxCell>
        <mxCell id="pi0DDQXBDcWQWIFwsOJ6-11" value="+ removeMedicalService(&lt;font style=&quot;font-size: 10px;&quot;&gt;service: MedicalService&lt;/font&gt;): boolean" style="text;strokeColor=none;fillColor=none;align=left;verticalAlign=middle;spacingLeft=4;spacingRight=4;overflow=hidden;rotatable=0;points=[[0,0.5],[1,0.5]];portConstraint=eastwest;whiteSpace=wrap;html=1;fontSize=12;fontStyle=0" parent="9s62NMN8IXOqiIoqj4Az-13" vertex="1">
          <mxGeometry y="342" width="370" height="22" as="geometry" />
        </mxCell>
        <mxCell id="JaPePX_1LT8RlTslirHy-37" value="+ getPatients(): Patient[]" style="text;strokeColor=none;fillColor=none;align=left;verticalAlign=middle;spacingLeft=4;spacingRight=4;overflow=hidden;rotatable=0;points=[[0,0.5],[1,0.5]];portConstraint=eastwest;whiteSpace=wrap;html=1;fontSize=12;fontStyle=0" parent="9s62NMN8IXOqiIoqj4Az-13" vertex="1">
          <mxGeometry y="364" width="370" height="22" as="geometry" />
        </mxCell>
        <mxCell id="JaPePX_1LT8RlTslirHy-40" value="&amp;nbsp; &amp;nbsp;addPatient(&lt;font style=&quot;font-size: 10px;&quot;&gt;patient: Patient&lt;/font&gt;): boolean" style="text;strokeColor=none;fillColor=none;align=left;verticalAlign=middle;spacingLeft=4;spacingRight=4;overflow=hidden;rotatable=0;points=[[0,0.5],[1,0.5]];portConstraint=eastwest;whiteSpace=wrap;html=1;fontSize=12;fontStyle=0" parent="9s62NMN8IXOqiIoqj4Az-13" vertex="1">
          <mxGeometry y="386" width="370" height="22" as="geometry" />
        </mxCell>
        <mxCell id="_-4CZTtRlvRTHJ1N7zLC-27" value="+ findDoctor(&lt;font style=&quot;font-size: 10px;&quot;&gt;nid: String&lt;/font&gt;): Optional&amp;lt;Doctor&amp;gt;" style="text;strokeColor=none;fillColor=none;align=left;verticalAlign=middle;spacingLeft=4;spacingRight=4;overflow=hidden;rotatable=0;points=[[0,0.5],[1,0.5]];portConstraint=eastwest;whiteSpace=wrap;html=1;fontSize=12;" parent="9s62NMN8IXOqiIoqj4Az-13" vertex="1">
          <mxGeometry y="408" width="370" height="22" as="geometry" />
        </mxCell>
        <mxCell id="pi0DDQXBDcWQWIFwsOJ6-14" value="+ listAllDoctors(): Doctor[]" style="text;strokeColor=none;fillColor=none;align=left;verticalAlign=middle;spacingLeft=4;spacingRight=4;overflow=hidden;rotatable=0;points=[[0,0.5],[1,0.5]];portConstraint=eastwest;whiteSpace=wrap;html=1;fontSize=12;" parent="9s62NMN8IXOqiIoqj4Az-13" vertex="1">
          <mxGeometry y="430" width="370" height="22" as="geometry" />
        </mxCell>
        <mxCell id="pi0DDQXBDcWQWIFwsOJ6-18" value="+ listAllDoctorsByMedicalService(&lt;font style=&quot;font-size: 10px;&quot;&gt;Class&amp;lt;MedicalService&amp;gt; type&lt;/font&gt;): Doctor[]" style="text;strokeColor=none;fillColor=none;align=left;verticalAlign=middle;spacingLeft=4;spacingRight=4;overflow=hidden;rotatable=0;points=[[0,0.5],[1,0.5]];portConstraint=eastwest;whiteSpace=wrap;html=1;fontSize=12;" parent="9s62NMN8IXOqiIoqj4Az-13" vertex="1">
          <mxGeometry y="452" width="370" height="22" as="geometry" />
        </mxCell>
        <mxCell id="chJMBWBoy5fJiR-rmPmm-1" value="+ listAllDoctorsBySpeciality(&lt;font style=&quot;font-size: 10px;&quot;&gt;Class&amp;lt;MedicalService&amp;gt; type&lt;/font&gt;): Doctor[]" style="text;strokeColor=none;fillColor=none;align=left;verticalAlign=middle;spacingLeft=4;spacingRight=4;overflow=hidden;rotatable=0;points=[[0,0.5],[1,0.5]];portConstraint=eastwest;whiteSpace=wrap;html=1;fontSize=12;" parent="9s62NMN8IXOqiIoqj4Az-13" vertex="1">
          <mxGeometry y="474" width="370" height="22" as="geometry" />
        </mxCell>
        <mxCell id="XeqBr0BMel8a1HU3ZWUf-15" value="+ listAllGeneralisticDoctors(): Doctor[]" style="text;strokeColor=none;fillColor=none;align=left;verticalAlign=middle;spacingLeft=4;spacingRight=4;overflow=hidden;rotatable=0;points=[[0,0.5],[1,0.5]];portConstraint=eastwest;whiteSpace=wrap;html=1;fontSize=12;" parent="9s62NMN8IXOqiIoqj4Az-13" vertex="1">
          <mxGeometry y="496" width="370" height="22" as="geometry" />
        </mxCell>
        <mxCell id="JaPePX_1LT8RlTslirHy-41" value="+ findPatient(&lt;font style=&quot;font-size: 10px;&quot;&gt;nid: String&lt;/font&gt;): Optional&amp;lt;Patient&amp;gt;" style="text;strokeColor=none;fillColor=none;align=left;verticalAlign=middle;spacingLeft=4;spacingRight=4;overflow=hidden;rotatable=0;points=[[0,0.5],[1,0.5]];portConstraint=eastwest;whiteSpace=wrap;html=1;fontSize=12;" parent="9s62NMN8IXOqiIoqj4Az-13" vertex="1">
          <mxGeometry y="518" width="370" height="22" as="geometry" />
        </mxCell>
        <mxCell id="owcF7ezAmpAK5jQFvFtQ-1" value="+ listAllPatientsByAgeRange(&lt;font style=&quot;font-size: 10px;&quot;&gt;start: int, end: int&lt;/font&gt;): Patient[]" style="text;strokeColor=none;fillColor=none;align=left;verticalAlign=middle;spacingLeft=4;spacingRight=4;overflow=hidden;rotatable=0;points=[[0,0.5],[1,0.5]];portConstraint=eastwest;whiteSpace=wrap;html=1;fontSize=12;" parent="9s62NMN8IXOqiIoqj4Az-13" vertex="1">
          <mxGeometry y="540" width="370" height="22" as="geometry" />
        </mxCell>
        <mxCell id="Ns5ZZZsFx_izSCVhpyIt-1" value="+ listAllPatientsByBloodType(&lt;font style=&quot;font-size: 10px;&quot;&gt;bloodType: BloodType&lt;/font&gt;): Patient[]" style="text;strokeColor=none;fillColor=none;align=left;verticalAlign=middle;spacingLeft=4;spacingRight=4;overflow=hidden;rotatable=0;points=[[0,0.5],[1,0.5]];portConstraint=eastwest;whiteSpace=wrap;html=1;fontSize=12;" parent="9s62NMN8IXOqiIoqj4Az-13" vertex="1">
          <mxGeometry y="562" width="370" height="22" as="geometry" />
        </mxCell>
        <mxCell id="9s62NMN8IXOqiIoqj4Az-38" value="Doctor&amp;lt;&lt;span style=&quot;font-weight: normal;&quot;&gt;&lt;font style=&quot;font-size: 12px;&quot;&gt;S: MedicalService&lt;/font&gt;&lt;/span&gt;&amp;gt;" style="swimlane;fontStyle=3;align=center;verticalAlign=middle;childLayout=stackLayout;horizontal=1;startSize=26;horizontalStack=0;resizeParent=1;resizeParentMax=0;resizeLast=0;collapsible=1;marginBottom=0;whiteSpace=wrap;html=1;fontSize=14;fillColor=#dae8fc;strokeColor=#6c8ebf;" parent="1" vertex="1">
          <mxGeometry x="579" y="504" width="327" height="342" as="geometry">
            <mxRectangle x="540" y="525" width="80" height="29" as="alternateBounds" />
          </mxGeometry>
        </mxCell>
        <mxCell id="XeqBr0BMel8a1HU3ZWUf-20" value="- &lt;u&gt;medicalService: S&lt;/u&gt;" style="text;strokeColor=none;fillColor=none;align=left;verticalAlign=middle;spacingLeft=4;spacingRight=4;overflow=hidden;rotatable=0;points=[[0,0.5],[1,0.5]];portConstraint=eastwest;whiteSpace=wrap;html=1;fontSize=12;fontStyle=0" parent="9s62NMN8IXOqiIoqj4Az-38" vertex="1">
          <mxGeometry y="26" width="327" height="22" as="geometry" />
        </mxCell>
        <mxCell id="9s62NMN8IXOqiIoqj4Az-94" value="- &lt;u&gt;specialities: Class&amp;lt;MedicalService&amp;gt;[]&lt;/u&gt;" style="text;strokeColor=none;fillColor=none;align=left;verticalAlign=middle;spacingLeft=4;spacingRight=4;overflow=hidden;rotatable=0;points=[[0,0.5],[1,0.5]];portConstraint=eastwest;whiteSpace=wrap;html=1;fontSize=12;" parent="9s62NMN8IXOqiIoqj4Az-38" vertex="1">
          <mxGeometry y="48" width="327" height="22" as="geometry" />
        </mxCell>
        <mxCell id="9s62NMN8IXOqiIoqj4Az-42" value="" style="line;strokeWidth=1;fillColor=none;align=left;verticalAlign=top;spacingTop=-1;spacingLeft=3;spacingRight=3;rotatable=0;labelPosition=right;points=[];portConstraint=eastwest;strokeColor=inherit;fontSize=16;" parent="9s62NMN8IXOqiIoqj4Az-38" vertex="1">
          <mxGeometry y="70" width="327" height="8" as="geometry" />
        </mxCell>
        <mxCell id="9s62NMN8IXOqiIoqj4Az-43" value="&lt;b style=&quot;font-size: 12px;&quot;&gt;# Doctor(&lt;/b&gt;&lt;font style=&quot;font-size: 10px;&quot;&gt;nid: String, name: String&lt;/font&gt;&lt;b style=&quot;font-size: 12px;&quot;&gt;)&lt;/b&gt;" style="text;strokeColor=none;fillColor=none;align=left;verticalAlign=middle;spacingLeft=4;spacingRight=4;overflow=hidden;rotatable=0;points=[[0,0.5],[1,0.5]];portConstraint=eastwest;whiteSpace=wrap;html=1;fontSize=12;spacing=2;spacingBottom=0;" parent="9s62NMN8IXOqiIoqj4Az-38" vertex="1">
          <mxGeometry y="78" width="327" height="22" as="geometry" />
        </mxCell>
        <mxCell id="9s62NMN8IXOqiIoqj4Az-44" value="&lt;b style=&quot;font-size: 12px;&quot;&gt;# Doctor(&lt;/b&gt;&lt;font style=&quot;font-size: 10px;&quot;&gt;nid: String, name: String, phone: String&lt;/font&gt;&lt;b style=&quot;font-size: 12px;&quot;&gt;)&lt;/b&gt;" style="text;strokeColor=none;fillColor=none;align=left;verticalAlign=middle;spacingLeft=4;spacingRight=4;overflow=hidden;rotatable=0;points=[[0,0.5],[1,0.5]];portConstraint=eastwest;whiteSpace=wrap;html=1;fontSize=12;spacing=2;spacingBottom=0;" parent="9s62NMN8IXOqiIoqj4Az-38" vertex="1">
          <mxGeometry y="100" width="327" height="22" as="geometry" />
        </mxCell>
        <mxCell id="8kTk9Mw71UbB4ehkWqcH-58" value="&lt;font style=&quot;font-size: 12px;&quot;&gt;&lt;font style=&quot;font-size: 12px;&quot;&gt;&lt;font style=&quot;font-size: 12px;&quot;&gt;&lt;b&gt;@&lt;/b&gt;#&amp;nbsp;defineAttrs&lt;/font&gt;(&lt;/font&gt;&lt;font style=&quot;font-size: 12px;&quot;&gt;): String&lt;/font&gt;&lt;/font&gt;" style="text;strokeColor=none;fillColor=none;align=left;verticalAlign=middle;spacingLeft=4;spacingRight=4;overflow=hidden;rotatable=0;points=[[0,0.5],[1,0.5]];portConstraint=eastwest;whiteSpace=wrap;html=1;fontSize=12;fontFamily=Helvetica;fontColor=default;" parent="9s62NMN8IXOqiIoqj4Az-38" vertex="1">
          <mxGeometry y="122" width="327" height="22" as="geometry" />
        </mxCell>
        <mxCell id="9s62NMN8IXOqiIoqj4Az-66" value="+ isGeneralistic(): boolean" style="text;strokeColor=none;fillColor=none;align=left;verticalAlign=middle;spacingLeft=4;spacingRight=4;overflow=hidden;rotatable=0;points=[[0,0.5],[1,0.5]];portConstraint=eastwest;whiteSpace=wrap;html=1;fontSize=12;fontStyle=2" parent="9s62NMN8IXOqiIoqj4Az-38" vertex="1">
          <mxGeometry y="144" width="327" height="22" as="geometry" />
        </mxCell>
        <mxCell id="chJMBWBoy5fJiR-rmPmm-3" value="+ hasSpeciality(Class&amp;lt;MedicalService&amp;gt;): boolean" style="text;strokeColor=none;fillColor=none;align=left;verticalAlign=middle;spacingLeft=4;spacingRight=4;overflow=hidden;rotatable=0;points=[[0,0.5],[1,0.5]];portConstraint=eastwest;whiteSpace=wrap;html=1;fontSize=12;" parent="9s62NMN8IXOqiIoqj4Az-38" vertex="1">
          <mxGeometry y="166" width="327" height="22" as="geometry" />
        </mxCell>
        <mxCell id="XeqBr0BMel8a1HU3ZWUf-21" value="+ getMedicalService(): S" style="text;strokeColor=none;fillColor=none;align=left;verticalAlign=middle;spacingLeft=4;spacingRight=4;overflow=hidden;rotatable=0;points=[[0,0.5],[1,0.5]];portConstraint=eastwest;whiteSpace=wrap;html=1;fontSize=12;fontStyle=0" parent="9s62NMN8IXOqiIoqj4Az-38" vertex="1">
          <mxGeometry y="188" width="327" height="22" as="geometry" />
        </mxCell>
        <mxCell id="XeqBr0BMel8a1HU3ZWUf-22" value="&lt;font style=&quot;font-size: 12px;&quot;&gt;# setMedicalService(service&lt;font style=&quot;font-size: 12px;&quot;&gt;: S&lt;/font&gt;): void&lt;/font&gt;" style="text;strokeColor=none;fillColor=none;align=left;verticalAlign=middle;spacingLeft=4;spacingRight=4;overflow=hidden;rotatable=0;points=[[0,0.5],[1,0.5]];portConstraint=eastwest;whiteSpace=wrap;html=1;fontSize=12;fontStyle=0" parent="9s62NMN8IXOqiIoqj4Az-38" vertex="1">
          <mxGeometry y="210" width="327" height="22" as="geometry" />
        </mxCell>
        <mxCell id="9s62NMN8IXOqiIoqj4Az-72" value="+ getSpecialities(): Class&amp;lt;MedicalService&amp;gt;[]" style="text;strokeColor=none;fillColor=none;align=left;verticalAlign=middle;spacingLeft=4;spacingRight=4;overflow=hidden;rotatable=0;points=[[0,0.5],[1,0.5]];portConstraint=eastwest;whiteSpace=wrap;html=1;fontSize=12;" parent="9s62NMN8IXOqiIoqj4Az-38" vertex="1">
          <mxGeometry y="232" width="327" height="22" as="geometry" />
        </mxCell>
        <mxCell id="9s62NMN8IXOqiIoqj4Az-107" value="+ addSpeciality(&lt;font style=&quot;font-size: 10px;&quot;&gt;speciality: Class&amp;lt;MedicalService&amp;gt;&lt;/font&gt;): boolean" style="text;strokeColor=none;fillColor=none;align=left;verticalAlign=middle;spacingLeft=4;spacingRight=4;overflow=hidden;rotatable=0;points=[[0,0.5],[1,0.5]];portConstraint=eastwest;whiteSpace=wrap;html=1;fontSize=12;" parent="9s62NMN8IXOqiIoqj4Az-38" vertex="1">
          <mxGeometry y="254" width="327" height="22" as="geometry" />
        </mxCell>
        <mxCell id="XeqBr0BMel8a1HU3ZWUf-29" value="+ addSpecialities(&lt;font style=&quot;font-size: 10px;&quot;&gt;specialities: Class&amp;lt;MedicalService&amp;gt;[]&lt;/font&gt;): boolean" style="text;strokeColor=none;fillColor=none;align=left;verticalAlign=middle;spacingLeft=4;spacingRight=4;overflow=hidden;rotatable=0;points=[[0,0.5],[1,0.5]];portConstraint=eastwest;whiteSpace=wrap;html=1;fontSize=12;" parent="9s62NMN8IXOqiIoqj4Az-38" vertex="1">
          <mxGeometry y="276" width="327" height="22" as="geometry" />
        </mxCell>
        <mxCell id="9s62NMN8IXOqiIoqj4Az-80" value="+ remitPatientTo(&lt;font style=&quot;font-size: 10px;&quot;&gt;Patient, Doctor&lt;/font&gt;):&amp;nbsp;&lt;font style=&quot;font-size: 10px;&quot;&gt;MedicalAppointment&lt;/font&gt;" style="text;strokeColor=none;fillColor=none;align=left;verticalAlign=middle;spacingLeft=4;spacingRight=4;overflow=hidden;rotatable=0;points=[[0,0.5],[1,0.5]];portConstraint=eastwest;whiteSpace=wrap;html=1;fontSize=12;fontStyle=2" parent="9s62NMN8IXOqiIoqj4Az-38" vertex="1">
          <mxGeometry y="298" width="327" height="22" as="geometry" />
        </mxCell>
        <mxCell id="9s62NMN8IXOqiIoqj4Az-81" value="&lt;b&gt;@&lt;/b&gt;+ remitPatientTo(&lt;font style=&quot;font-size: 10px;&quot;&gt;Patient, MedicalCenter&lt;/font&gt;): &lt;font style=&quot;font-size: 10px;&quot;&gt;MedicalAppointment&lt;/font&gt;" style="text;strokeColor=none;fillColor=none;align=left;verticalAlign=middle;spacingLeft=4;spacingRight=4;overflow=hidden;rotatable=0;points=[[0,0.5],[1,0.5]];portConstraint=eastwest;whiteSpace=wrap;html=1;fontSize=12;" parent="9s62NMN8IXOqiIoqj4Az-38" vertex="1">
          <mxGeometry y="320" width="327" height="22" as="geometry" />
        </mxCell>
        <mxCell id="9s62NMN8IXOqiIoqj4Az-49" value="Patient" style="swimlane;fontStyle=1;align=center;verticalAlign=middle;childLayout=stackLayout;horizontal=1;startSize=26;horizontalStack=0;resizeParent=1;resizeParentMax=0;resizeLast=0;collapsible=1;marginBottom=0;whiteSpace=wrap;html=1;fontSize=14;fillColor=#dae8fc;strokeColor=#6c8ebf;" parent="1" vertex="1">
          <mxGeometry x="1380" y="437" width="281" height="332" as="geometry" />
        </mxCell>
        <mxCell id="9s62NMN8IXOqiIoqj4Az-50" value="- &lt;u&gt;birthDate: LocalDate&lt;/u&gt;" style="text;strokeColor=none;fillColor=none;align=left;verticalAlign=middle;spacingLeft=4;spacingRight=4;overflow=hidden;rotatable=0;points=[[0,0.5],[1,0.5]];portConstraint=eastwest;whiteSpace=wrap;html=1;fontSize=12;fontStyle=0" parent="9s62NMN8IXOqiIoqj4Az-49" vertex="1">
          <mxGeometry y="26" width="281" height="22" as="geometry" />
        </mxCell>
        <mxCell id="9s62NMN8IXOqiIoqj4Az-51" value="- &lt;u&gt;bloodType: BloodType&lt;/u&gt;" style="text;strokeColor=none;fillColor=none;align=left;verticalAlign=middle;spacingLeft=4;spacingRight=4;overflow=hidden;rotatable=0;points=[[0,0.5],[1,0.5]];portConstraint=eastwest;whiteSpace=wrap;html=1;fontSize=12;fontStyle=0" parent="9s62NMN8IXOqiIoqj4Az-49" vertex="1">
          <mxGeometry y="48" width="281" height="22" as="geometry" />
        </mxCell>
        <mxCell id="JaPePX_1LT8RlTslirHy-10" value="- &lt;u&gt;medicalAppointments: MedicalAppointment[]&lt;/u&gt;" style="text;strokeColor=none;fillColor=none;align=left;verticalAlign=middle;spacingLeft=4;spacingRight=4;overflow=hidden;rotatable=0;points=[[0,0.5],[1,0.5]];portConstraint=eastwest;whiteSpace=wrap;html=1;fontSize=12;fontStyle=0" parent="9s62NMN8IXOqiIoqj4Az-49" vertex="1">
          <mxGeometry y="70" width="281" height="22" as="geometry" />
        </mxCell>
        <mxCell id="9s62NMN8IXOqiIoqj4Az-52" value="" style="line;strokeWidth=1;fillColor=none;align=left;verticalAlign=top;spacingTop=-1;spacingLeft=3;spacingRight=3;rotatable=0;labelPosition=right;points=[];portConstraint=eastwest;strokeColor=inherit;fontSize=16;" parent="9s62NMN8IXOqiIoqj4Az-49" vertex="1">
          <mxGeometry y="92" width="281" height="8" as="geometry" />
        </mxCell>
        <mxCell id="9s62NMN8IXOqiIoqj4Az-53" value="&lt;b style=&quot;font-size: 12px;&quot;&gt;+ Patient(&lt;br&gt;&lt;/b&gt;&lt;font style=&quot;font-size: 10px;&quot;&gt;&amp;nbsp; &amp;nbsp; &amp;nbsp; &amp;nbsp; nid: String, name: String,&lt;br&gt;&amp;nbsp; &amp;nbsp; &amp;nbsp; &amp;nbsp; birthDate: LocalDate, bloodType: BloodType&lt;/font&gt;&lt;b style=&quot;font-size: 12px;&quot;&gt;)&lt;/b&gt;" style="text;strokeColor=none;fillColor=none;align=left;verticalAlign=middle;spacingLeft=4;spacingRight=4;overflow=hidden;rotatable=0;points=[[0,0.5],[1,0.5]];portConstraint=eastwest;whiteSpace=wrap;html=1;fontSize=12;spacing=2;spacingBottom=0;" parent="9s62NMN8IXOqiIoqj4Az-49" vertex="1">
          <mxGeometry y="100" width="281" height="50" as="geometry" />
        </mxCell>
        <mxCell id="9s62NMN8IXOqiIoqj4Az-54" value="&lt;b style=&quot;font-size: 12px;&quot;&gt;+ Patient(&lt;br&gt;&lt;/b&gt;&lt;font style=&quot;font-size: 10px;&quot;&gt;&amp;nbsp; &amp;nbsp; &amp;nbsp; &amp;nbsp; nid: String, name: String, phoneNumber: String,&lt;br style=&quot;border-color: var(--border-color);&quot;&gt;&amp;nbsp; &amp;nbsp; &amp;nbsp; &amp;nbsp; birthDate: LocalDate, bloodType: BloodType&lt;/font&gt;&lt;b style=&quot;font-size: 12px;&quot;&gt;)&lt;/b&gt;" style="text;strokeColor=none;fillColor=none;align=left;verticalAlign=middle;spacingLeft=4;spacingRight=4;overflow=hidden;rotatable=0;points=[[0,0.5],[1,0.5]];portConstraint=eastwest;whiteSpace=wrap;html=1;fontSize=12;spacing=2;spacingBottom=0;" parent="9s62NMN8IXOqiIoqj4Az-49" vertex="1">
          <mxGeometry y="150" width="281" height="50" as="geometry" />
        </mxCell>
        <mxCell id="8kTk9Mw71UbB4ehkWqcH-59" value="&lt;font style=&quot;font-size: 12px;&quot;&gt;&lt;font style=&quot;font-size: 12px;&quot;&gt;&lt;font style=&quot;font-size: 12px;&quot;&gt;&lt;b&gt;@&lt;/b&gt;#&amp;nbsp;defineAttrs&lt;/font&gt;(&lt;/font&gt;&lt;font style=&quot;font-size: 12px;&quot;&gt;): String&lt;/font&gt;&lt;/font&gt;" style="text;strokeColor=none;fillColor=none;align=left;verticalAlign=middle;spacingLeft=4;spacingRight=4;overflow=hidden;rotatable=0;points=[[0,0.5],[1,0.5]];portConstraint=eastwest;whiteSpace=wrap;html=1;fontSize=12;fontFamily=Helvetica;fontColor=default;" parent="9s62NMN8IXOqiIoqj4Az-49" vertex="1">
          <mxGeometry y="200" width="281" height="22" as="geometry" />
        </mxCell>
        <mxCell id="9s62NMN8IXOqiIoqj4Az-57" value="+ getBirthDate(): LocalDate" style="text;strokeColor=none;fillColor=none;align=left;verticalAlign=middle;spacingLeft=4;spacingRight=4;overflow=hidden;rotatable=0;points=[[0,0.5],[1,0.5]];portConstraint=eastwest;whiteSpace=wrap;html=1;fontSize=12;" parent="9s62NMN8IXOqiIoqj4Az-49" vertex="1">
          <mxGeometry y="222" width="281" height="22" as="geometry" />
        </mxCell>
        <mxCell id="Zpq2iblePXxYn9alLh3R-1" value="+ getAge(Temporal nowRef): long" style="text;strokeColor=none;fillColor=none;align=left;verticalAlign=middle;spacingLeft=4;spacingRight=4;overflow=hidden;rotatable=0;points=[[0,0.5],[1,0.5]];portConstraint=eastwest;whiteSpace=wrap;html=1;fontSize=12;" vertex="1" parent="9s62NMN8IXOqiIoqj4Az-49">
          <mxGeometry y="244" width="281" height="22" as="geometry" />
        </mxCell>
        <mxCell id="9s62NMN8IXOqiIoqj4Az-58" value="+ getBloodType(): BloodType" style="text;strokeColor=none;fillColor=none;align=left;verticalAlign=middle;spacingLeft=4;spacingRight=4;overflow=hidden;rotatable=0;points=[[0,0.5],[1,0.5]];portConstraint=eastwest;whiteSpace=wrap;html=1;fontSize=12;" parent="9s62NMN8IXOqiIoqj4Az-49" vertex="1">
          <mxGeometry y="266" width="281" height="22" as="geometry" />
        </mxCell>
        <mxCell id="JaPePX_1LT8RlTslirHy-11" value="+ getMedicalAppointments(): &lt;font style=&quot;font-size: 10px;&quot;&gt;MedicalAppointment[]&lt;/font&gt;" style="text;strokeColor=none;fillColor=none;align=left;verticalAlign=middle;spacingLeft=4;spacingRight=4;overflow=hidden;rotatable=0;points=[[0,0.5],[1,0.5]];portConstraint=eastwest;whiteSpace=wrap;html=1;fontSize=12;" parent="9s62NMN8IXOqiIoqj4Az-49" vertex="1">
          <mxGeometry y="288" width="281" height="22" as="geometry" />
        </mxCell>
        <mxCell id="JaPePX_1LT8RlTslirHy-14" value="&amp;nbsp; &amp;nbsp;addMedicalAppointment(&lt;font style=&quot;font-size: 10px;&quot;&gt;MedicalAppointment&lt;/font&gt;): &lt;font style=&quot;font-size: 10px;&quot;&gt;void&lt;/font&gt;" style="text;strokeColor=none;fillColor=none;align=left;verticalAlign=middle;spacingLeft=4;spacingRight=4;overflow=hidden;rotatable=0;points=[[0,0.5],[1,0.5]];portConstraint=eastwest;whiteSpace=wrap;html=1;fontSize=12;" parent="9s62NMN8IXOqiIoqj4Az-49" vertex="1">
          <mxGeometry y="310" width="281" height="22" as="geometry" />
        </mxCell>
        <mxCell id="9s62NMN8IXOqiIoqj4Az-55" value="Extends" style="endArrow=block;endSize=10;endFill=0;html=1;rounded=0;fontFamily=Helvetica;fontSize=12;fontColor=default;edgeStyle=orthogonalEdgeStyle;" parent="1" source="9s62NMN8IXOqiIoqj4Az-49" target="Bbm4-nluXWY08SML4j0r-1" edge="1">
          <mxGeometry x="-0.2959" y="-4" width="160" relative="1" as="geometry">
            <mxPoint x="938" y="409" as="sourcePoint" />
            <mxPoint x="981" y="424" as="targetPoint" />
            <Array as="points">
              <mxPoint x="1644" y="122" />
            </Array>
            <mxPoint as="offset" />
          </mxGeometry>
        </mxCell>
        <mxCell id="9s62NMN8IXOqiIoqj4Az-59" value="MedicalService&amp;lt;&lt;font style=&quot;font-weight: normal; font-size: 12px;&quot;&gt;D: Doctor&lt;/font&gt;&amp;gt;" style="swimlane;fontStyle=3;align=center;verticalAlign=middle;childLayout=stackLayout;horizontal=1;startSize=26;horizontalStack=0;resizeParent=1;resizeParentMax=0;resizeLast=0;collapsible=1;marginBottom=0;whiteSpace=wrap;html=1;fontSize=14;fillColor=#dae8fc;strokeColor=#6c8ebf;" parent="1" vertex="1">
          <mxGeometry x="158" y="867" width="256" height="412" as="geometry">
            <mxRectangle x="108" y="833" width="195" height="29" as="alternateBounds" />
          </mxGeometry>
        </mxCell>
        <mxCell id="0hOYJ2J2rGmXlh25F5D4-5" value="- &lt;u&gt;name: String&lt;/u&gt;" style="text;strokeColor=none;fillColor=none;align=left;verticalAlign=middle;spacingLeft=4;spacingRight=4;overflow=hidden;rotatable=0;points=[[0,0.5],[1,0.5]];portConstraint=eastwest;whiteSpace=wrap;html=1;fontSize=12;fontStyle=0" parent="9s62NMN8IXOqiIoqj4Az-59" vertex="1">
          <mxGeometry y="26" width="256" height="22" as="geometry" />
        </mxCell>
        <mxCell id="0hOYJ2J2rGmXlh25F5D4-6" value="- &lt;u&gt;medicalCenter: MedicalCenter&lt;/u&gt;" style="text;strokeColor=none;fillColor=none;align=left;verticalAlign=middle;spacingLeft=4;spacingRight=4;overflow=hidden;rotatable=0;points=[[0,0.5],[1,0.5]];portConstraint=eastwest;whiteSpace=wrap;html=1;fontSize=12;fontStyle=0" parent="9s62NMN8IXOqiIoqj4Az-59" vertex="1">
          <mxGeometry y="48" width="256" height="22" as="geometry" />
        </mxCell>
        <mxCell id="pi0DDQXBDcWQWIFwsOJ6-1" value="- &lt;u&gt;doctors: D[]&lt;/u&gt;" style="text;strokeColor=none;fillColor=none;align=left;verticalAlign=middle;spacingLeft=4;spacingRight=4;overflow=hidden;rotatable=0;points=[[0,0.5],[1,0.5]];portConstraint=eastwest;whiteSpace=wrap;html=1;fontSize=12;fontStyle=0" parent="9s62NMN8IXOqiIoqj4Az-59" vertex="1">
          <mxGeometry y="70" width="256" height="22" as="geometry" />
        </mxCell>
        <mxCell id="9s62NMN8IXOqiIoqj4Az-60" value="" style="line;strokeWidth=1;fillColor=none;align=left;verticalAlign=top;spacingTop=-1;spacingLeft=3;spacingRight=3;rotatable=0;labelPosition=right;points=[];portConstraint=eastwest;strokeColor=inherit;fontSize=16;" parent="9s62NMN8IXOqiIoqj4Az-59" vertex="1">
          <mxGeometry y="92" width="256" height="8" as="geometry" />
        </mxCell>
        <mxCell id="9s62NMN8IXOqiIoqj4Az-61" value="&lt;b style=&quot;font-size: 12px;&quot;&gt;# MedicalService(&lt;br&gt;&lt;/b&gt;&lt;font style=&quot;font-size: 10px;&quot;&gt;&amp;nbsp; &amp;nbsp; &amp;nbsp; &amp;nbsp; MedicalCenter center, name: String&lt;/font&gt;&lt;b style=&quot;font-size: 12px;&quot;&gt;)&lt;/b&gt;" style="text;strokeColor=none;fillColor=none;align=left;verticalAlign=middle;spacingLeft=4;spacingRight=4;overflow=hidden;rotatable=0;points=[[0,0.5],[1,0.5]];portConstraint=eastwest;whiteSpace=wrap;html=1;fontSize=12;spacing=2;spacingBottom=0;" parent="9s62NMN8IXOqiIoqj4Az-59" vertex="1">
          <mxGeometry y="100" width="256" height="36" as="geometry" />
        </mxCell>
        <mxCell id="9s62NMN8IXOqiIoqj4Az-91" value="&lt;font style=&quot;font-size: 12px;&quot;&gt;&lt;font style=&quot;font-size: 12px;&quot;&gt;&lt;font style=&quot;font-size: 12px;&quot;&gt;&lt;b style=&quot;&quot;&gt;@&lt;/b&gt;+ toString&lt;/font&gt;(&lt;/font&gt;&lt;font style=&quot;font-size: 12px;&quot;&gt;): String&lt;/font&gt;&lt;/font&gt;" style="text;strokeColor=none;fillColor=none;align=left;verticalAlign=middle;spacingLeft=4;spacingRight=4;overflow=hidden;rotatable=0;points=[[0,0.5],[1,0.5]];portConstraint=eastwest;whiteSpace=wrap;html=1;fontSize=12;fontFamily=Helvetica;fontColor=default;" parent="9s62NMN8IXOqiIoqj4Az-59" vertex="1">
          <mxGeometry y="136" width="256" height="22" as="geometry" />
        </mxCell>
        <mxCell id="9s62NMN8IXOqiIoqj4Az-108" value="&lt;font style=&quot;font-size: 12px;&quot;&gt;&lt;font style=&quot;font-size: 12px;&quot;&gt;&lt;font style=&quot;font-size: 12px;&quot;&gt;&lt;b style=&quot;&quot;&gt;@&lt;/b&gt;+ equals&lt;/font&gt;(Object&lt;/font&gt;&lt;font style=&quot;font-size: 12px;&quot;&gt;): boolean&lt;/font&gt;&lt;/font&gt;" style="text;strokeColor=none;fillColor=none;align=left;verticalAlign=middle;spacingLeft=4;spacingRight=4;overflow=hidden;rotatable=0;points=[[0,0.5],[1,0.5]];portConstraint=eastwest;whiteSpace=wrap;html=1;fontSize=12;fontFamily=Helvetica;fontColor=default;" parent="9s62NMN8IXOqiIoqj4Az-59" vertex="1">
          <mxGeometry y="158" width="256" height="22" as="geometry" />
        </mxCell>
        <mxCell id="9s62NMN8IXOqiIoqj4Az-63" value="+ getName(): String" style="text;strokeColor=none;fillColor=none;align=left;verticalAlign=middle;spacingLeft=4;spacingRight=4;overflow=hidden;rotatable=0;points=[[0,0.5],[1,0.5]];portConstraint=eastwest;whiteSpace=wrap;html=1;fontSize=12;fontStyle=0" parent="9s62NMN8IXOqiIoqj4Az-59" vertex="1">
          <mxGeometry y="180" width="256" height="22" as="geometry" />
        </mxCell>
        <mxCell id="5lm4FeeXkaxo78AqPdsz-3" value="# setName(name: String): void" style="text;strokeColor=none;fillColor=none;align=left;verticalAlign=middle;spacingLeft=4;spacingRight=4;overflow=hidden;rotatable=0;points=[[0,0.5],[1,0.5]];portConstraint=eastwest;whiteSpace=wrap;html=1;fontSize=12;fontStyle=0" parent="9s62NMN8IXOqiIoqj4Az-59" vertex="1">
          <mxGeometry y="202" width="256" height="22" as="geometry" />
        </mxCell>
        <mxCell id="0hOYJ2J2rGmXlh25F5D4-3" value="+ getMedicalCenter(): MedicalCenter" style="text;strokeColor=none;fillColor=none;align=left;verticalAlign=middle;spacingLeft=4;spacingRight=4;overflow=hidden;rotatable=0;points=[[0,0.5],[1,0.5]];portConstraint=eastwest;whiteSpace=wrap;html=1;fontSize=12;fontStyle=0" parent="9s62NMN8IXOqiIoqj4Az-59" vertex="1">
          <mxGeometry y="224" width="256" height="22" as="geometry" />
        </mxCell>
        <mxCell id="0hOYJ2J2rGmXlh25F5D4-4" value="# setMedicalCenter(&lt;font style=&quot;font-size: 10px;&quot;&gt;center: MedicalCenter&lt;/font&gt;): void" style="text;strokeColor=none;fillColor=none;align=left;verticalAlign=middle;spacingLeft=4;spacingRight=4;overflow=hidden;rotatable=0;points=[[0,0.5],[1,0.5]];portConstraint=eastwest;whiteSpace=wrap;html=1;fontSize=12;fontStyle=0" parent="9s62NMN8IXOqiIoqj4Az-59" vertex="1">
          <mxGeometry y="246" width="256" height="22" as="geometry" />
        </mxCell>
        <mxCell id="pi0DDQXBDcWQWIFwsOJ6-2" value="+ getDoctors(): D[]" style="text;strokeColor=none;fillColor=none;align=left;verticalAlign=middle;spacingLeft=4;spacingRight=4;overflow=hidden;rotatable=0;points=[[0,0.5],[1,0.5]];portConstraint=eastwest;whiteSpace=wrap;html=1;fontSize=12;fontStyle=0" parent="9s62NMN8IXOqiIoqj4Az-59" vertex="1">
          <mxGeometry y="268" width="256" height="22" as="geometry" />
        </mxCell>
        <mxCell id="pi0DDQXBDcWQWIFwsOJ6-5" value="+ addDoctor(doctor: D): boolean" style="text;strokeColor=none;fillColor=none;align=left;verticalAlign=middle;spacingLeft=4;spacingRight=4;overflow=hidden;rotatable=0;points=[[0,0.5],[1,0.5]];portConstraint=eastwest;whiteSpace=wrap;html=1;fontSize=12;fontStyle=0" parent="9s62NMN8IXOqiIoqj4Az-59" vertex="1">
          <mxGeometry y="290" width="256" height="22" as="geometry" />
        </mxCell>
        <mxCell id="pi0DDQXBDcWQWIFwsOJ6-6" value="+ removeDoctor(doctor: D): boolean" style="text;strokeColor=none;fillColor=none;align=left;verticalAlign=middle;spacingLeft=4;spacingRight=4;overflow=hidden;rotatable=0;points=[[0,0.5],[1,0.5]];portConstraint=eastwest;whiteSpace=wrap;html=1;fontSize=12;fontStyle=0" parent="9s62NMN8IXOqiIoqj4Az-59" vertex="1">
          <mxGeometry y="312" width="256" height="22" as="geometry" />
        </mxCell>
        <mxCell id="pi0DDQXBDcWQWIFwsOJ6-17" value="+ findDoctor(nid: String): Optional&amp;lt;D&amp;gt;" style="text;strokeColor=none;fillColor=none;align=left;verticalAlign=middle;spacingLeft=4;spacingRight=4;overflow=hidden;rotatable=0;points=[[0,0.5],[1,0.5]];portConstraint=eastwest;whiteSpace=wrap;html=1;fontSize=12;" parent="9s62NMN8IXOqiIoqj4Az-59" vertex="1">
          <mxGeometry y="334" width="256" height="22" as="geometry" />
        </mxCell>
        <mxCell id="chJMBWBoy5fJiR-rmPmm-2" value="+ listAllDoctorsBySpeciality(&lt;br&gt;&lt;font style=&quot;font-size: 10px;&quot;&gt;&amp;nbsp; &amp;nbsp; &amp;nbsp; &amp;nbsp; Class&amp;lt;MedicalService&amp;gt; type&lt;/font&gt;): Doctor[]" style="text;strokeColor=none;fillColor=none;align=left;verticalAlign=middle;spacingLeft=4;spacingRight=4;overflow=hidden;rotatable=0;points=[[0,0.5],[1,0.5]];portConstraint=eastwest;whiteSpace=wrap;html=1;fontSize=12;" parent="9s62NMN8IXOqiIoqj4Az-59" vertex="1">
          <mxGeometry y="356" width="256" height="34" as="geometry" />
        </mxCell>
        <mxCell id="XeqBr0BMel8a1HU3ZWUf-19" value="+ listAllGeneralisticDoctors(): Doctor[]" style="text;strokeColor=none;fillColor=none;align=left;verticalAlign=middle;spacingLeft=4;spacingRight=4;overflow=hidden;rotatable=0;points=[[0,0.5],[1,0.5]];portConstraint=eastwest;whiteSpace=wrap;html=1;fontSize=12;" parent="9s62NMN8IXOqiIoqj4Az-59" vertex="1">
          <mxGeometry y="390" width="256" height="22" as="geometry" />
        </mxCell>
        <mxCell id="9s62NMN8IXOqiIoqj4Az-73" value="Pediatrics" style="swimlane;fontStyle=1;align=center;verticalAlign=middle;childLayout=stackLayout;horizontal=1;startSize=26;horizontalStack=0;resizeParent=1;resizeParentMax=0;resizeLast=0;collapsible=1;marginBottom=0;whiteSpace=wrap;html=1;fontSize=14;fillColor=#dae8fc;strokeColor=#6c8ebf;" parent="1" vertex="1">
          <mxGeometry x="141" y="1500" width="269" height="78" as="geometry" />
        </mxCell>
        <mxCell id="pi0DDQXBDcWQWIFwsOJ6-15" value="+&amp;nbsp;&lt;u style=&quot;font-size: 10px;&quot;&gt;MEDICAL_SERVICE_NAME: String&lt;/u&gt;&lt;span style=&quot;font-size: 10px;&quot;&gt; = &lt;font style=&quot;text-decoration-line: underline; font-size: 10px;&quot; face=&quot;Courier New&quot;&gt;&quot;Pediatrics&quot;&lt;/font&gt;&lt;/span&gt;" style="text;strokeColor=none;fillColor=none;align=left;verticalAlign=middle;spacingLeft=4;spacingRight=4;overflow=hidden;rotatable=0;points=[[0,0.5],[1,0.5]];portConstraint=eastwest;whiteSpace=wrap;html=1;fontSize=10;fontStyle=0" parent="9s62NMN8IXOqiIoqj4Az-73" vertex="1">
          <mxGeometry y="26" width="269" height="22" as="geometry" />
        </mxCell>
        <mxCell id="9s62NMN8IXOqiIoqj4Az-75" value="" style="line;strokeWidth=1;fillColor=none;align=left;verticalAlign=top;spacingTop=-1;spacingLeft=3;spacingRight=3;rotatable=0;labelPosition=right;points=[];portConstraint=eastwest;strokeColor=inherit;fontSize=16;" parent="9s62NMN8IXOqiIoqj4Az-73" vertex="1">
          <mxGeometry y="48" width="269" height="8" as="geometry" />
        </mxCell>
        <mxCell id="9s62NMN8IXOqiIoqj4Az-76" value="&lt;b style=&quot;font-size: 12px;&quot;&gt;+ Pediatrics(&lt;/b&gt;&lt;font style=&quot;font-size: 10px;&quot;&gt;center: MedicalCenter&lt;/font&gt;&lt;b style=&quot;font-size: 12px;&quot;&gt;)&lt;/b&gt;" style="text;strokeColor=none;fillColor=none;align=left;verticalAlign=middle;spacingLeft=4;spacingRight=4;overflow=hidden;rotatable=0;points=[[0,0.5],[1,0.5]];portConstraint=eastwest;whiteSpace=wrap;html=1;fontSize=12;spacing=2;spacingBottom=0;" parent="9s62NMN8IXOqiIoqj4Az-73" vertex="1">
          <mxGeometry y="56" width="269" height="22" as="geometry" />
        </mxCell>
        <mxCell id="9s62NMN8IXOqiIoqj4Az-78" value="Extends&amp;lt;&lt;b&gt;&lt;font style=&quot;font-size: 10px;&quot;&gt;D: Pediatrician&lt;/font&gt;&lt;/b&gt;&amp;gt;" style="endArrow=block;endSize=10;endFill=0;html=1;rounded=0;fontFamily=Helvetica;fontSize=12;fontColor=default;edgeStyle=orthogonalEdgeStyle;" parent="1" source="9s62NMN8IXOqiIoqj4Az-73" target="9s62NMN8IXOqiIoqj4Az-59" edge="1">
          <mxGeometry x="-0.1557" width="160" relative="1" as="geometry">
            <mxPoint x="158.00441340782123" y="1203" as="sourcePoint" />
            <mxPoint x="305.01000000000005" y="1153" as="targetPoint" />
            <Array as="points">
              <mxPoint x="158" y="1443" />
              <mxPoint x="327" y="1443" />
            </Array>
            <mxPoint as="offset" />
          </mxGeometry>
        </mxCell>
        <mxCell id="9s62NMN8IXOqiIoqj4Az-86" value="1..n" style="endArrow=open;html=1;endSize=10;startArrow=diamondThin;startSize=14;startFill=1;edgeStyle=orthogonalEdgeStyle;align=left;verticalAlign=middle;rounded=0;labelBackgroundColor=default;strokeColor=default;fontFamily=Helvetica;fontSize=12;fontColor=default;shape=connector;" parent="1" source="9s62NMN8IXOqiIoqj4Az-85" target="9s62NMN8IXOqiIoqj4Az-59" edge="1">
          <mxGeometry x="-0.9219" y="13" relative="1" as="geometry">
            <mxPoint x="323.52" y="263.0344827586208" as="sourcePoint" />
            <mxPoint x="294.02" y="670" as="targetPoint" />
            <Array as="points">
              <mxPoint x="97" y="225" />
              <mxPoint x="97" y="878" />
            </Array>
            <mxPoint as="offset" />
          </mxGeometry>
        </mxCell>
        <mxCell id="9s62NMN8IXOqiIoqj4Az-97" value="offers" style="edgeLabel;html=1;align=center;verticalAlign=middle;resizable=0;points=[];fontSize=12;fontFamily=Helvetica;fontColor=default;" parent="9s62NMN8IXOqiIoqj4Az-86" vertex="1" connectable="0">
          <mxGeometry x="-0.0711" y="-1" relative="1" as="geometry">
            <mxPoint as="offset" />
          </mxGeometry>
        </mxCell>
        <mxCell id="9s62NMN8IXOqiIoqj4Az-87" value="GeneralMedicine" style="swimlane;fontStyle=1;align=center;verticalAlign=middle;childLayout=stackLayout;horizontal=1;startSize=26;horizontalStack=0;resizeParent=1;resizeParentMax=0;resizeLast=0;collapsible=1;marginBottom=0;whiteSpace=wrap;html=1;fontSize=14;fillColor=#dae8fc;strokeColor=#6c8ebf;" parent="1" vertex="1">
          <mxGeometry x="472" y="1500" width="306" height="78" as="geometry" />
        </mxCell>
        <mxCell id="pi0DDQXBDcWQWIFwsOJ6-16" value="+&amp;nbsp;&lt;span style=&quot;font-size: 10px;&quot;&gt;&lt;u&gt;MEDICAL_SERVICE_NAME: String&lt;/u&gt;&lt;font style=&quot;&quot; face=&quot;Courier New&quot;&gt; = &lt;u&gt;&quot;General Medicine&quot;&lt;/u&gt;&lt;/font&gt;&lt;/span&gt;" style="text;strokeColor=none;fillColor=none;align=left;verticalAlign=middle;spacingLeft=4;spacingRight=4;overflow=hidden;rotatable=0;points=[[0,0.5],[1,0.5]];portConstraint=eastwest;whiteSpace=wrap;html=1;fontSize=10;fontStyle=0" parent="9s62NMN8IXOqiIoqj4Az-87" vertex="1">
          <mxGeometry y="26" width="306" height="22" as="geometry" />
        </mxCell>
        <mxCell id="9s62NMN8IXOqiIoqj4Az-88" value="" style="line;strokeWidth=1;fillColor=none;align=left;verticalAlign=top;spacingTop=-1;spacingLeft=3;spacingRight=3;rotatable=0;labelPosition=right;points=[];portConstraint=eastwest;strokeColor=inherit;fontSize=16;" parent="9s62NMN8IXOqiIoqj4Az-87" vertex="1">
          <mxGeometry y="48" width="306" height="8" as="geometry" />
        </mxCell>
        <mxCell id="9s62NMN8IXOqiIoqj4Az-89" value="&lt;b style=&quot;font-size: 12px;&quot;&gt;+ GeneralMedicine(&lt;/b&gt;&lt;font style=&quot;font-size: 10px;&quot;&gt;center: MedicalCenter&lt;/font&gt;&lt;b style=&quot;font-size: 12px;&quot;&gt;)&lt;/b&gt;" style="text;strokeColor=none;fillColor=none;align=left;verticalAlign=middle;spacingLeft=4;spacingRight=4;overflow=hidden;rotatable=0;points=[[0,0.5],[1,0.5]];portConstraint=eastwest;whiteSpace=wrap;html=1;fontSize=12;spacing=2;spacingBottom=0;" parent="9s62NMN8IXOqiIoqj4Az-87" vertex="1">
          <mxGeometry y="56" width="306" height="22" as="geometry" />
        </mxCell>
        <mxCell id="9s62NMN8IXOqiIoqj4Az-90" value="Extends&amp;lt;&lt;b&gt;&lt;font style=&quot;font-size: 10px;&quot;&gt;D: GeneralisticDoctor&lt;/font&gt;&lt;/b&gt;&amp;gt;" style="endArrow=block;endSize=10;endFill=0;html=1;rounded=0;fontFamily=Helvetica;fontSize=12;fontColor=default;edgeStyle=orthogonalEdgeStyle;" parent="1" source="9s62NMN8IXOqiIoqj4Az-87" target="9s62NMN8IXOqiIoqj4Az-59" edge="1">
          <mxGeometry x="-0.1074" width="160" relative="1" as="geometry">
            <mxPoint x="402" y="959" as="sourcePoint" />
            <mxPoint x="466" y="893" as="targetPoint" />
            <Array as="points">
              <mxPoint x="612" y="1443" />
              <mxPoint x="327" y="1443" />
            </Array>
            <mxPoint as="offset" />
          </mxGeometry>
        </mxCell>
        <mxCell id="9s62NMN8IXOqiIoqj4Az-98" value="&lt;font style=&quot;font-size: 12px;&quot;&gt;&lt;i&gt;&amp;lt;&amp;lt;Enumeration&amp;gt;&amp;gt;&lt;br&gt;&lt;/i&gt;&lt;b&gt;BloodType&lt;/b&gt;&lt;/font&gt;" style="swimlane;fontStyle=0;childLayout=stackLayout;horizontal=1;startSize=37;horizontalStack=0;resizeParent=1;resizeParentMax=0;resizeLast=0;collapsible=1;marginBottom=0;whiteSpace=wrap;html=1;fontFamily=Helvetica;fontSize=12;fillColor=#dae8fc;strokeColor=#6c8ebf;" parent="1" vertex="1">
          <mxGeometry x="1486" y="886" width="140" height="277" as="geometry" />
        </mxCell>
        <mxCell id="9s62NMN8IXOqiIoqj4Az-99" value="+ A_POSITIVE" style="text;strokeColor=none;fillColor=none;align=left;verticalAlign=middle;spacingLeft=4;spacingRight=4;overflow=hidden;points=[[0,0.5],[1,0.5]];portConstraint=eastwest;rotatable=0;whiteSpace=wrap;html=1;fontSize=12;fontFamily=Helvetica;fontColor=default;fontStyle=1" parent="9s62NMN8IXOqiIoqj4Az-98" vertex="1">
          <mxGeometry y="37" width="140" height="30" as="geometry" />
        </mxCell>
        <mxCell id="9s62NMN8IXOqiIoqj4Az-100" value="+ A_NEGATIVE" style="text;strokeColor=none;fillColor=none;align=left;verticalAlign=middle;spacingLeft=4;spacingRight=4;overflow=hidden;points=[[0,0.5],[1,0.5]];portConstraint=eastwest;rotatable=0;whiteSpace=wrap;html=1;fontSize=12;fontFamily=Helvetica;fontColor=default;fontStyle=1" parent="9s62NMN8IXOqiIoqj4Az-98" vertex="1">
          <mxGeometry y="67" width="140" height="30" as="geometry" />
        </mxCell>
        <mxCell id="9s62NMN8IXOqiIoqj4Az-101" value="+ B_POSITIVE" style="text;strokeColor=none;fillColor=none;align=left;verticalAlign=middle;spacingLeft=4;spacingRight=4;overflow=hidden;points=[[0,0.5],[1,0.5]];portConstraint=eastwest;rotatable=0;whiteSpace=wrap;html=1;fontSize=12;fontFamily=Helvetica;fontColor=default;fontStyle=1" parent="9s62NMN8IXOqiIoqj4Az-98" vertex="1">
          <mxGeometry y="97" width="140" height="30" as="geometry" />
        </mxCell>
        <mxCell id="9s62NMN8IXOqiIoqj4Az-102" value="+ B_NEGATIVE" style="text;strokeColor=none;fillColor=none;align=left;verticalAlign=middle;spacingLeft=4;spacingRight=4;overflow=hidden;points=[[0,0.5],[1,0.5]];portConstraint=eastwest;rotatable=0;whiteSpace=wrap;html=1;fontSize=12;fontFamily=Helvetica;fontColor=default;fontStyle=1" parent="9s62NMN8IXOqiIoqj4Az-98" vertex="1">
          <mxGeometry y="127" width="140" height="30" as="geometry" />
        </mxCell>
        <mxCell id="9s62NMN8IXOqiIoqj4Az-104" value="+ ZERO_POSITIVE" style="text;strokeColor=none;fillColor=none;align=left;verticalAlign=middle;spacingLeft=4;spacingRight=4;overflow=hidden;points=[[0,0.5],[1,0.5]];portConstraint=eastwest;rotatable=0;whiteSpace=wrap;html=1;fontSize=12;fontFamily=Helvetica;fontColor=default;fontStyle=1" parent="9s62NMN8IXOqiIoqj4Az-98" vertex="1">
          <mxGeometry y="157" width="140" height="30" as="geometry" />
        </mxCell>
        <mxCell id="9s62NMN8IXOqiIoqj4Az-103" value="+ ZERO_NEGATIVE" style="text;strokeColor=none;fillColor=none;align=left;verticalAlign=middle;spacingLeft=4;spacingRight=4;overflow=hidden;points=[[0,0.5],[1,0.5]];portConstraint=eastwest;rotatable=0;whiteSpace=wrap;html=1;fontSize=12;fontFamily=Helvetica;fontColor=default;fontStyle=1" parent="9s62NMN8IXOqiIoqj4Az-98" vertex="1">
          <mxGeometry y="187" width="140" height="30" as="geometry" />
        </mxCell>
        <mxCell id="9s62NMN8IXOqiIoqj4Az-105" value="+ AB_POSITIVE" style="text;strokeColor=none;fillColor=none;align=left;verticalAlign=middle;spacingLeft=4;spacingRight=4;overflow=hidden;points=[[0,0.5],[1,0.5]];portConstraint=eastwest;rotatable=0;whiteSpace=wrap;html=1;fontSize=12;fontFamily=Helvetica;fontColor=default;fontStyle=1" parent="9s62NMN8IXOqiIoqj4Az-98" vertex="1">
          <mxGeometry y="217" width="140" height="30" as="geometry" />
        </mxCell>
        <mxCell id="9s62NMN8IXOqiIoqj4Az-106" value="+ AB_NEGATIVE" style="text;strokeColor=none;fillColor=none;align=left;verticalAlign=middle;spacingLeft=4;spacingRight=4;overflow=hidden;points=[[0,0.5],[1,0.5]];portConstraint=eastwest;rotatable=0;whiteSpace=wrap;html=1;fontSize=12;fontFamily=Helvetica;fontColor=default;fontStyle=1" parent="9s62NMN8IXOqiIoqj4Az-98" vertex="1">
          <mxGeometry y="247" width="140" height="30" as="geometry" />
        </mxCell>
        <mxCell id="_-4CZTtRlvRTHJ1N7zLC-1" value="1" style="endArrow=open;html=1;endSize=10;startArrow=diamondThin;startSize=14;startFill=1;edgeStyle=orthogonalEdgeStyle;align=left;verticalAlign=middle;rounded=0;labelBackgroundColor=default;strokeColor=default;fontFamily=Helvetica;fontSize=12;fontColor=default;shape=connector;" parent="1" source="9s62NMN8IXOqiIoqj4Az-51" target="9s62NMN8IXOqiIoqj4Az-98" edge="1">
          <mxGeometry x="-0.8615" y="7" relative="1" as="geometry">
            <mxPoint x="1477" y="572" as="sourcePoint" />
            <mxPoint x="1304" y="670" as="targetPoint" />
            <Array as="points">
              <mxPoint x="1358" y="496" />
              <mxPoint x="1358" y="908" />
            </Array>
            <mxPoint as="offset" />
          </mxGeometry>
        </mxCell>
        <mxCell id="Bbm4-nluXWY08SML4j0r-1" value="&lt;i&gt;Person&lt;/i&gt;" style="swimlane;fontStyle=1;align=center;verticalAlign=middle;childLayout=stackLayout;horizontal=1;startSize=26;horizontalStack=0;resizeParent=1;resizeParentMax=0;resizeLast=0;collapsible=1;marginBottom=0;whiteSpace=wrap;html=1;fontSize=14;fillColor=#dae8fc;strokeColor=#6c8ebf;" parent="1" vertex="1">
          <mxGeometry x="1340" y="107" width="281" height="298" as="geometry" />
        </mxCell>
        <mxCell id="Bbm4-nluXWY08SML4j0r-2" value="- &lt;u&gt;nid: String&lt;/u&gt;" style="text;strokeColor=none;fillColor=none;align=left;verticalAlign=middle;spacingLeft=4;spacingRight=4;overflow=hidden;rotatable=0;points=[[0,0.5],[1,0.5]];portConstraint=eastwest;whiteSpace=wrap;html=1;fontSize=12;fontStyle=0" parent="Bbm4-nluXWY08SML4j0r-1" vertex="1">
          <mxGeometry y="26" width="281" height="22" as="geometry" />
        </mxCell>
        <mxCell id="Bbm4-nluXWY08SML4j0r-3" value="- &lt;u&gt;name: String&lt;/u&gt;" style="text;strokeColor=none;fillColor=none;align=left;verticalAlign=middle;spacingLeft=4;spacingRight=4;overflow=hidden;rotatable=0;points=[[0,0.5],[1,0.5]];portConstraint=eastwest;whiteSpace=wrap;html=1;fontSize=12;fontStyle=0" parent="Bbm4-nluXWY08SML4j0r-1" vertex="1">
          <mxGeometry y="48" width="281" height="22" as="geometry" />
        </mxCell>
        <mxCell id="Bbm4-nluXWY08SML4j0r-4" value="- phoneNumber: String" style="text;strokeColor=none;fillColor=none;align=left;verticalAlign=middle;spacingLeft=4;spacingRight=4;overflow=hidden;rotatable=0;points=[[0,0.5],[1,0.5]];portConstraint=eastwest;whiteSpace=wrap;html=1;fontSize=12;" parent="Bbm4-nluXWY08SML4j0r-1" vertex="1">
          <mxGeometry y="70" width="281" height="22" as="geometry" />
        </mxCell>
        <mxCell id="Bbm4-nluXWY08SML4j0r-5" value="" style="line;strokeWidth=1;fillColor=none;align=left;verticalAlign=top;spacingTop=-1;spacingLeft=3;spacingRight=3;rotatable=0;labelPosition=right;points=[];portConstraint=eastwest;strokeColor=inherit;fontSize=16;" parent="Bbm4-nluXWY08SML4j0r-1" vertex="1">
          <mxGeometry y="92" width="281" height="8" as="geometry" />
        </mxCell>
        <mxCell id="Bbm4-nluXWY08SML4j0r-6" value="&lt;b style=&quot;font-size: 12px;&quot;&gt;# Person(&lt;/b&gt;&lt;font style=&quot;font-size: 10px;&quot;&gt;nid: String, name: String&lt;/font&gt;&lt;b style=&quot;font-size: 12px;&quot;&gt;)&lt;/b&gt;" style="text;strokeColor=none;fillColor=none;align=left;verticalAlign=middle;spacingLeft=4;spacingRight=4;overflow=hidden;rotatable=0;points=[[0,0.5],[1,0.5]];portConstraint=eastwest;whiteSpace=wrap;html=1;fontSize=12;spacing=2;spacingBottom=0;" parent="Bbm4-nluXWY08SML4j0r-1" vertex="1">
          <mxGeometry y="100" width="281" height="22" as="geometry" />
        </mxCell>
        <mxCell id="Bbm4-nluXWY08SML4j0r-7" value="&lt;b style=&quot;font-size: 12px;&quot;&gt;# Person(&lt;/b&gt;&lt;font style=&quot;font-size: 10px;&quot;&gt;nid: String, name: String, phoneNumber: String&lt;/font&gt;&lt;b style=&quot;font-size: 12px;&quot;&gt;)&lt;/b&gt;" style="text;strokeColor=none;fillColor=none;align=left;verticalAlign=middle;spacingLeft=4;spacingRight=4;overflow=hidden;rotatable=0;points=[[0,0.5],[1,0.5]];portConstraint=eastwest;whiteSpace=wrap;html=1;fontSize=12;spacing=2;spacingBottom=0;" parent="Bbm4-nluXWY08SML4j0r-1" vertex="1">
          <mxGeometry y="122" width="281" height="22" as="geometry" />
        </mxCell>
        <mxCell id="Bbm4-nluXWY08SML4j0r-8" value="&lt;font style=&quot;font-size: 12px;&quot;&gt;&lt;font style=&quot;font-size: 12px;&quot;&gt;&lt;font style=&quot;font-size: 12px;&quot;&gt;&lt;b style=&quot;&quot;&gt;@&lt;/b&gt;+ toString&lt;/font&gt;(&lt;/font&gt;&lt;font style=&quot;font-size: 12px;&quot;&gt;): String&lt;/font&gt;&lt;/font&gt;" style="text;strokeColor=none;fillColor=none;align=left;verticalAlign=middle;spacingLeft=4;spacingRight=4;overflow=hidden;rotatable=0;points=[[0,0.5],[1,0.5]];portConstraint=eastwest;whiteSpace=wrap;html=1;fontSize=12;fontFamily=Helvetica;fontColor=default;" parent="Bbm4-nluXWY08SML4j0r-1" vertex="1">
          <mxGeometry y="144" width="281" height="22" as="geometry" />
        </mxCell>
        <mxCell id="8kTk9Mw71UbB4ehkWqcH-55" value="&lt;font style=&quot;font-size: 12px;&quot;&gt;&lt;font style=&quot;font-size: 12px;&quot;&gt;&lt;font style=&quot;font-size: 12px;&quot;&gt;#&amp;nbsp;defineAttrs&lt;/font&gt;(&lt;/font&gt;&lt;font style=&quot;font-size: 12px;&quot;&gt;): String&lt;/font&gt;&lt;/font&gt;" style="text;strokeColor=none;fillColor=none;align=left;verticalAlign=middle;spacingLeft=4;spacingRight=4;overflow=hidden;rotatable=0;points=[[0,0.5],[1,0.5]];portConstraint=eastwest;whiteSpace=wrap;html=1;fontSize=12;fontFamily=Helvetica;fontColor=default;" parent="Bbm4-nluXWY08SML4j0r-1" vertex="1">
          <mxGeometry y="166" width="281" height="22" as="geometry" />
        </mxCell>
        <mxCell id="8kTk9Mw71UbB4ehkWqcH-54" value="&lt;font style=&quot;font-size: 12px;&quot;&gt;&lt;font style=&quot;font-size: 12px;&quot;&gt;&lt;font style=&quot;font-size: 12px;&quot;&gt;&lt;b style=&quot;&quot;&gt;@&lt;/b&gt;+ equals&lt;/font&gt;(obj: Object&lt;/font&gt;&lt;font style=&quot;font-size: 12px;&quot;&gt;): boolean&lt;/font&gt;&lt;/font&gt;" style="text;strokeColor=none;fillColor=none;align=left;verticalAlign=middle;spacingLeft=4;spacingRight=4;overflow=hidden;rotatable=0;points=[[0,0.5],[1,0.5]];portConstraint=eastwest;whiteSpace=wrap;html=1;fontSize=12;fontFamily=Helvetica;fontColor=default;" parent="Bbm4-nluXWY08SML4j0r-1" vertex="1">
          <mxGeometry y="188" width="281" height="22" as="geometry" />
        </mxCell>
        <mxCell id="Bbm4-nluXWY08SML4j0r-9" value="+ getNid(): String" style="text;strokeColor=none;fillColor=none;align=left;verticalAlign=middle;spacingLeft=4;spacingRight=4;overflow=hidden;rotatable=0;points=[[0,0.5],[1,0.5]];portConstraint=eastwest;whiteSpace=wrap;html=1;fontSize=12;" parent="Bbm4-nluXWY08SML4j0r-1" vertex="1">
          <mxGeometry y="210" width="281" height="22" as="geometry" />
        </mxCell>
        <mxCell id="Bbm4-nluXWY08SML4j0r-10" value="+ getName(): String" style="text;strokeColor=none;fillColor=none;align=left;verticalAlign=middle;spacingLeft=4;spacingRight=4;overflow=hidden;rotatable=0;points=[[0,0.5],[1,0.5]];portConstraint=eastwest;whiteSpace=wrap;html=1;fontSize=12;" parent="Bbm4-nluXWY08SML4j0r-1" vertex="1">
          <mxGeometry y="232" width="281" height="22" as="geometry" />
        </mxCell>
        <mxCell id="Bbm4-nluXWY08SML4j0r-11" value="+ getPhoneNumber(): String" style="text;strokeColor=none;fillColor=none;align=left;verticalAlign=middle;spacingLeft=4;spacingRight=4;overflow=hidden;rotatable=0;points=[[0,0.5],[1,0.5]];portConstraint=eastwest;whiteSpace=wrap;html=1;fontSize=12;" parent="Bbm4-nluXWY08SML4j0r-1" vertex="1">
          <mxGeometry y="254" width="281" height="22" as="geometry" />
        </mxCell>
        <mxCell id="Bbm4-nluXWY08SML4j0r-12" value="+ setPhoneNumber(&lt;font style=&quot;font-size: 10px;&quot;&gt;phoneNumber: String&lt;/font&gt;): String" style="text;strokeColor=none;fillColor=none;align=left;verticalAlign=middle;spacingLeft=4;spacingRight=4;overflow=hidden;rotatable=0;points=[[0,0.5],[1,0.5]];portConstraint=eastwest;whiteSpace=wrap;html=1;fontSize=12;" parent="Bbm4-nluXWY08SML4j0r-1" vertex="1">
          <mxGeometry y="276" width="281" height="22" as="geometry" />
        </mxCell>
        <mxCell id="9s62NMN8IXOqiIoqj4Az-56" value="Extends" style="endArrow=block;endSize=10;endFill=0;html=1;rounded=0;fontFamily=Helvetica;fontSize=12;fontColor=default;edgeStyle=orthogonalEdgeStyle;fillColor=#008a00;strokeColor=#005700;" parent="1" source="9s62NMN8IXOqiIoqj4Az-38" target="8kTk9Mw71UbB4ehkWqcH-7" edge="1">
          <mxGeometry x="0.25" width="160" relative="1" as="geometry">
            <mxPoint x="1038" y="506" as="sourcePoint" />
            <mxPoint x="727" y="391" as="targetPoint" />
            <Array as="points">
              <mxPoint x="672" y="379" />
              <mxPoint x="777" y="379" />
            </Array>
            <mxPoint as="offset" />
          </mxGeometry>
        </mxCell>
        <mxCell id="0hOYJ2J2rGmXlh25F5D4-1" value="1" style="endArrow=open;html=1;endSize=10;startArrow=diamondThin;startSize=14;startFill=1;edgeStyle=orthogonalEdgeStyle;align=left;verticalAlign=middle;rounded=0;labelBackgroundColor=default;strokeColor=default;fontFamily=Helvetica;fontSize=12;fontColor=default;shape=connector;" parent="1" source="0hOYJ2J2rGmXlh25F5D4-6" target="9s62NMN8IXOqiIoqj4Az-13" edge="1">
          <mxGeometry x="-0.9433" y="-11" relative="1" as="geometry">
            <mxPoint x="326" y="284" as="sourcePoint" />
            <mxPoint x="291" y="655" as="targetPoint" />
            <Array as="points">
              <mxPoint x="122" y="926" />
              <mxPoint x="122" y="155" />
            </Array>
            <mxPoint as="offset" />
          </mxGeometry>
        </mxCell>
        <mxCell id="0hOYJ2J2rGmXlh25F5D4-2" value="part of" style="edgeLabel;html=1;align=center;verticalAlign=middle;resizable=0;points=[];fontSize=12;fontFamily=Helvetica;fontColor=default;" parent="0hOYJ2J2rGmXlh25F5D4-1" vertex="1" connectable="0">
          <mxGeometry x="-0.0711" y="-1" relative="1" as="geometry">
            <mxPoint x="5" y="-1" as="offset" />
          </mxGeometry>
        </mxCell>
        <mxCell id="XeqBr0BMel8a1HU3ZWUf-1" value="Pediatrician" style="swimlane;fontStyle=1;align=center;verticalAlign=middle;childLayout=stackLayout;horizontal=1;startSize=26;horizontalStack=0;resizeParent=1;resizeParentMax=0;resizeLast=0;collapsible=1;marginBottom=0;whiteSpace=wrap;html=1;fontSize=14;fillColor=#dae8fc;strokeColor=#6c8ebf;" parent="1" vertex="1">
          <mxGeometry x="491" y="991" width="285" height="188" as="geometry">
            <mxRectangle x="415" y="934" width="114" height="29" as="alternateBounds" />
          </mxGeometry>
        </mxCell>
        <mxCell id="08od-bibOzEyOUq_gxU7-12" value="+&amp;nbsp;&lt;u style=&quot;font-size: 10px;&quot;&gt;MEDICAL_EMPLOYEE_TYPE: String&lt;/u&gt;&lt;span style=&quot;font-size: 10px;&quot;&gt; =&lt;br&gt;&lt;/span&gt;&lt;span style=&quot;font-size: 10px;&quot;&gt;&lt;font style=&quot;font-size: 10px;&quot;&gt;&amp;nbsp; &amp;nbsp; &amp;nbsp; &amp;nbsp;&amp;nbsp;&lt;/font&gt;&lt;font style=&quot;text-decoration-line: underline; font-size: 10px;&quot; face=&quot;Courier New&quot;&gt;&quot;Pediatrician&quot;&lt;/font&gt;&lt;/span&gt;" style="text;strokeColor=none;fillColor=none;align=left;verticalAlign=middle;spacingLeft=4;spacingRight=4;overflow=hidden;rotatable=0;points=[[0,0.5],[1,0.5]];portConstraint=eastwest;whiteSpace=wrap;html=1;fontSize=10;fontStyle=0" parent="XeqBr0BMel8a1HU3ZWUf-1" vertex="1">
          <mxGeometry y="26" width="285" height="32" as="geometry" />
        </mxCell>
        <mxCell id="XeqBr0BMel8a1HU3ZWUf-2" value="" style="line;strokeWidth=1;fillColor=none;align=left;verticalAlign=top;spacingTop=-1;spacingLeft=3;spacingRight=3;rotatable=0;labelPosition=right;points=[];portConstraint=eastwest;strokeColor=inherit;fontSize=16;" parent="XeqBr0BMel8a1HU3ZWUf-1" vertex="1">
          <mxGeometry y="58" width="285" height="8" as="geometry" />
        </mxCell>
        <mxCell id="XeqBr0BMel8a1HU3ZWUf-3" value="&lt;b style=&quot;font-size: 12px;&quot;&gt;+ Pediatrician(&lt;/b&gt;&lt;font style=&quot;font-size: 10px;&quot;&gt;nid: String, name: String&lt;/font&gt;&lt;b style=&quot;font-size: 12px;&quot;&gt;)&lt;/b&gt;" style="text;strokeColor=none;fillColor=none;align=left;verticalAlign=middle;spacingLeft=4;spacingRight=4;overflow=hidden;rotatable=0;points=[[0,0.5],[1,0.5]];portConstraint=eastwest;whiteSpace=wrap;html=1;fontSize=12;spacing=2;spacingBottom=0;" parent="XeqBr0BMel8a1HU3ZWUf-1" vertex="1">
          <mxGeometry y="66" width="285" height="22" as="geometry" />
        </mxCell>
        <mxCell id="XeqBr0BMel8a1HU3ZWUf-4" value="&lt;b style=&quot;font-size: 12px;&quot;&gt;+ Pediatrician(&lt;br&gt;&lt;/b&gt;&lt;font style=&quot;font-size: 10px;&quot;&gt;&amp;nbsp; &amp;nbsp; &amp;nbsp; &amp;nbsp; nid: String, name: String, phone: String&lt;/font&gt;&lt;b style=&quot;font-size: 12px;&quot;&gt;)&lt;/b&gt;" style="text;strokeColor=none;fillColor=none;align=left;verticalAlign=middle;spacingLeft=4;spacingRight=4;overflow=hidden;rotatable=0;points=[[0,0.5],[1,0.5]];portConstraint=eastwest;whiteSpace=wrap;html=1;fontSize=12;spacing=2;spacingBottom=0;" parent="XeqBr0BMel8a1HU3ZWUf-1" vertex="1">
          <mxGeometry y="88" width="285" height="34" as="geometry" />
        </mxCell>
        <mxCell id="XeqBr0BMel8a1HU3ZWUf-14" value="&lt;b&gt;@&lt;/b&gt;+ isGeneralistic(): boolean" style="text;strokeColor=none;fillColor=none;align=left;verticalAlign=middle;spacingLeft=4;spacingRight=4;overflow=hidden;rotatable=0;points=[[0,0.5],[1,0.5]];portConstraint=eastwest;whiteSpace=wrap;html=1;fontSize=12;fontStyle=0" parent="XeqBr0BMel8a1HU3ZWUf-1" vertex="1">
          <mxGeometry y="122" width="285" height="22" as="geometry" />
        </mxCell>
        <mxCell id="BV2OHTJGG2pNwfcFUSOa-6" value="&lt;font style=&quot;font-size: 12px;&quot;&gt;&lt;font style=&quot;font-size: 12px;&quot;&gt;&lt;font style=&quot;font-size: 12px;&quot;&gt;&lt;b&gt;@&lt;/b&gt;+&amp;nbsp;getEmployeeType&lt;/font&gt;(&lt;/font&gt;&lt;font style=&quot;font-size: 12px;&quot;&gt;): String&lt;/font&gt;&lt;/font&gt;" style="text;strokeColor=none;fillColor=none;align=left;verticalAlign=middle;spacingLeft=4;spacingRight=4;overflow=hidden;rotatable=0;points=[[0,0.5],[1,0.5]];portConstraint=eastwest;whiteSpace=wrap;html=1;fontSize=12;fontFamily=Helvetica;fontColor=default;fontStyle=0" parent="XeqBr0BMel8a1HU3ZWUf-1" vertex="1">
          <mxGeometry y="144" width="285" height="22" as="geometry" />
        </mxCell>
        <mxCell id="j92NfnuFEvERG6SwWWjx-1" value="&lt;b style=&quot;border-color: var(--border-color);&quot;&gt;@&lt;/b&gt;+ remitPatientTo(&lt;font style=&quot;font-size: 10px;&quot;&gt;Patient, Doctor&lt;/font&gt;):&amp;nbsp;&lt;font style=&quot;font-size: 10px;&quot;&gt;MedicalAppointment&lt;/font&gt;" style="text;strokeColor=none;fillColor=none;align=left;verticalAlign=middle;spacingLeft=4;spacingRight=4;overflow=hidden;rotatable=0;points=[[0,0.5],[1,0.5]];portConstraint=eastwest;whiteSpace=wrap;html=1;fontSize=12;fontStyle=0" parent="XeqBr0BMel8a1HU3ZWUf-1" vertex="1">
          <mxGeometry y="166" width="285" height="22" as="geometry" />
        </mxCell>
        <mxCell id="XeqBr0BMel8a1HU3ZWUf-5" value="GeneralisticDoctor" style="swimlane;fontStyle=1;align=center;verticalAlign=middle;childLayout=stackLayout;horizontal=1;startSize=26;horizontalStack=0;resizeParent=1;resizeParentMax=0;resizeLast=0;collapsible=1;marginBottom=0;whiteSpace=wrap;html=1;fontSize=14;fillColor=#dae8fc;strokeColor=#6c8ebf;" parent="1" vertex="1">
          <mxGeometry x="705" y="1211" width="283" height="188" as="geometry">
            <mxRectangle x="668" y="934" width="160" height="29" as="alternateBounds" />
          </mxGeometry>
        </mxCell>
        <mxCell id="08od-bibOzEyOUq_gxU7-2" value="+&amp;nbsp;&lt;u style=&quot;font-size: 10px;&quot;&gt;MEDICAL_EMPLOYEE_TYPE: String&lt;/u&gt;&lt;span style=&quot;font-size: 10px;&quot;&gt; =&lt;br&gt;&lt;/span&gt;&lt;span style=&quot;font-size: 10px;&quot;&gt;&lt;font style=&quot;font-size: 10px;&quot;&gt;&amp;nbsp; &amp;nbsp; &amp;nbsp; &amp;nbsp;&amp;nbsp;&lt;/font&gt;&lt;font style=&quot;text-decoration-line: underline; font-size: 10px;&quot; face=&quot;Courier New&quot;&gt;&quot;Generalistic Doctor&quot;&lt;/font&gt;&lt;/span&gt;" style="text;strokeColor=none;fillColor=none;align=left;verticalAlign=middle;spacingLeft=4;spacingRight=4;overflow=hidden;rotatable=0;points=[[0,0.5],[1,0.5]];portConstraint=eastwest;whiteSpace=wrap;html=1;fontSize=10;fontStyle=0" parent="XeqBr0BMel8a1HU3ZWUf-5" vertex="1">
          <mxGeometry y="26" width="283" height="32" as="geometry" />
        </mxCell>
        <mxCell id="XeqBr0BMel8a1HU3ZWUf-6" value="" style="line;strokeWidth=1;fillColor=none;align=left;verticalAlign=top;spacingTop=-1;spacingLeft=3;spacingRight=3;rotatable=0;labelPosition=right;points=[];portConstraint=eastwest;strokeColor=inherit;fontSize=16;" parent="XeqBr0BMel8a1HU3ZWUf-5" vertex="1">
          <mxGeometry y="58" width="283" height="8" as="geometry" />
        </mxCell>
        <mxCell id="XeqBr0BMel8a1HU3ZWUf-7" value="&lt;b style=&quot;font-size: 12px;&quot;&gt;+ GeneralisticDoctor(&lt;/b&gt;&lt;font style=&quot;font-size: 10px;&quot;&gt;nid: String, name: String&lt;/font&gt;&lt;b style=&quot;font-size: 12px;&quot;&gt;)&lt;/b&gt;" style="text;strokeColor=none;fillColor=none;align=left;verticalAlign=middle;spacingLeft=4;spacingRight=4;overflow=hidden;rotatable=0;points=[[0,0.5],[1,0.5]];portConstraint=eastwest;whiteSpace=wrap;html=1;fontSize=12;spacing=2;spacingBottom=0;" parent="XeqBr0BMel8a1HU3ZWUf-5" vertex="1">
          <mxGeometry y="66" width="283" height="22" as="geometry" />
        </mxCell>
        <mxCell id="XeqBr0BMel8a1HU3ZWUf-8" value="&lt;b style=&quot;font-size: 12px;&quot;&gt;+ GeneralisticDoctor(&lt;br&gt;&lt;/b&gt;&lt;font style=&quot;font-size: 10px;&quot;&gt;&amp;nbsp; &amp;nbsp; &amp;nbsp; &amp;nbsp; nid: String, name: String, phone: String&lt;/font&gt;&lt;b style=&quot;font-size: 12px;&quot;&gt;)&lt;/b&gt;" style="text;strokeColor=none;fillColor=none;align=left;verticalAlign=middle;spacingLeft=4;spacingRight=4;overflow=hidden;rotatable=0;points=[[0,0.5],[1,0.5]];portConstraint=eastwest;whiteSpace=wrap;html=1;fontSize=12;spacing=2;spacingBottom=0;" parent="XeqBr0BMel8a1HU3ZWUf-5" vertex="1">
          <mxGeometry y="88" width="283" height="34" as="geometry" />
        </mxCell>
        <mxCell id="XeqBr0BMel8a1HU3ZWUf-13" value="&lt;b&gt;@&lt;/b&gt;+ isGeneralistic(): boolean&lt;font face=&quot;Courier New&quot;&gt; = TRUE&lt;/font&gt;" style="text;strokeColor=none;fillColor=none;align=left;verticalAlign=middle;spacingLeft=4;spacingRight=4;overflow=hidden;rotatable=0;points=[[0,0.5],[1,0.5]];portConstraint=eastwest;whiteSpace=wrap;html=1;fontSize=12;fontStyle=0" parent="XeqBr0BMel8a1HU3ZWUf-5" vertex="1">
          <mxGeometry y="122" width="283" height="22" as="geometry" />
        </mxCell>
        <mxCell id="BV2OHTJGG2pNwfcFUSOa-7" value="&lt;font style=&quot;font-size: 12px;&quot;&gt;&lt;font style=&quot;font-size: 12px;&quot;&gt;&lt;font style=&quot;font-size: 12px;&quot;&gt;&lt;b&gt;@&lt;/b&gt;+&amp;nbsp;getEmployeeType&lt;/font&gt;(&lt;/font&gt;&lt;font style=&quot;font-size: 12px;&quot;&gt;): String&lt;/font&gt;&lt;/font&gt;" style="text;strokeColor=none;fillColor=none;align=left;verticalAlign=middle;spacingLeft=4;spacingRight=4;overflow=hidden;rotatable=0;points=[[0,0.5],[1,0.5]];portConstraint=eastwest;whiteSpace=wrap;html=1;fontSize=12;fontFamily=Helvetica;fontColor=default;fontStyle=0" parent="XeqBr0BMel8a1HU3ZWUf-5" vertex="1">
          <mxGeometry y="144" width="283" height="22" as="geometry" />
        </mxCell>
        <mxCell id="j92NfnuFEvERG6SwWWjx-2" value="&lt;b style=&quot;border-color: var(--border-color);&quot;&gt;@&lt;/b&gt;+ remitPatientTo(&lt;font style=&quot;font-size: 10px;&quot;&gt;Patient, Doctor&lt;/font&gt;):&amp;nbsp;&lt;font style=&quot;font-size: 10px;&quot;&gt;MedicalAppointment&lt;/font&gt;" style="text;strokeColor=none;fillColor=none;align=left;verticalAlign=middle;spacingLeft=4;spacingRight=4;overflow=hidden;rotatable=0;points=[[0,0.5],[1,0.5]];portConstraint=eastwest;whiteSpace=wrap;html=1;fontSize=12;fontStyle=0" parent="XeqBr0BMel8a1HU3ZWUf-5" vertex="1">
          <mxGeometry y="166" width="283" height="22" as="geometry" />
        </mxCell>
        <mxCell id="XeqBr0BMel8a1HU3ZWUf-9" value="Extends&amp;lt;&lt;b style=&quot;border-color: var(--border-color);&quot;&gt;&lt;font style=&quot;border-color: var(--border-color); font-size: 10px;&quot;&gt;S: Pediatrics&lt;/font&gt;&lt;/b&gt;&amp;gt;" style="endArrow=block;endSize=10;endFill=0;html=1;rounded=0;fontFamily=Helvetica;fontSize=12;fontColor=default;edgeStyle=orthogonalEdgeStyle;" parent="1" source="XeqBr0BMel8a1HU3ZWUf-1" target="9s62NMN8IXOqiIoqj4Az-38" edge="1">
          <mxGeometry x="-0.2932" width="160" relative="1" as="geometry">
            <mxPoint x="535.0044134078212" y="834" as="sourcePoint" />
            <mxPoint x="682.01" y="784" as="targetPoint" />
            <Array as="points">
              <mxPoint x="535" y="969" />
              <mxPoint x="738" y="969" />
            </Array>
            <mxPoint as="offset" />
          </mxGeometry>
        </mxCell>
        <mxCell id="XeqBr0BMel8a1HU3ZWUf-10" value="Extends&amp;lt;&lt;b style=&quot;border-color: var(--border-color);&quot;&gt;&lt;font style=&quot;border-color: var(--border-color); font-size: 10px;&quot;&gt;S: GeneralMedicine&lt;/font&gt;&lt;/b&gt;&amp;gt;" style="endArrow=block;endSize=10;endFill=0;html=1;rounded=0;fontFamily=Helvetica;fontSize=12;fontColor=default;edgeStyle=orthogonalEdgeStyle;" parent="1" source="XeqBr0BMel8a1HU3ZWUf-5" target="9s62NMN8IXOqiIoqj4Az-38" edge="1">
          <mxGeometry x="-0.6104" width="160" relative="1" as="geometry">
            <mxPoint x="545" y="864" as="sourcePoint" />
            <mxPoint x="692" y="787" as="targetPoint" />
            <Array as="points">
              <mxPoint x="893" y="969" />
              <mxPoint x="738" y="969" />
            </Array>
            <mxPoint as="offset" />
          </mxGeometry>
        </mxCell>
        <mxCell id="XeqBr0BMel8a1HU3ZWUf-11" value="0..n" style="endArrow=open;html=1;endSize=10;startArrow=diamondThin;startSize=14;startFill=0;edgeStyle=orthogonalEdgeStyle;align=left;verticalAlign=middle;rounded=0;labelBackgroundColor=default;strokeColor=default;fontFamily=Helvetica;fontSize=12;fontColor=default;shape=connector;" parent="1" source="pi0DDQXBDcWQWIFwsOJ6-1" target="9s62NMN8IXOqiIoqj4Az-38" edge="1">
          <mxGeometry x="-0.987" y="-13" relative="1" as="geometry">
            <mxPoint x="168" y="827" as="sourcePoint" />
            <mxPoint x="175" y="199" as="targetPoint" />
            <Array as="points">
              <mxPoint x="552" y="948" />
              <mxPoint x="552" y="519" />
            </Array>
            <mxPoint as="offset" />
          </mxGeometry>
        </mxCell>
        <mxCell id="XeqBr0BMel8a1HU3ZWUf-12" value="attended by" style="edgeLabel;html=1;align=center;verticalAlign=middle;resizable=0;points=[];fontSize=12;fontFamily=Helvetica;fontColor=default;spacingTop=0;spacing=2;" parent="XeqBr0BMel8a1HU3ZWUf-11" vertex="1" connectable="0">
          <mxGeometry x="-0.0711" y="-1" relative="1" as="geometry">
            <mxPoint x="-64" y="136" as="offset" />
          </mxGeometry>
        </mxCell>
        <mxCell id="XeqBr0BMel8a1HU3ZWUf-23" value="1" style="endArrow=open;html=1;endSize=10;startArrow=diamondThin;startSize=14;startFill=0;edgeStyle=orthogonalEdgeStyle;align=left;verticalAlign=middle;rounded=0;labelBackgroundColor=default;strokeColor=default;fontFamily=Helvetica;fontSize=12;fontColor=default;shape=connector;" parent="1" source="XeqBr0BMel8a1HU3ZWUf-20" target="9s62NMN8IXOqiIoqj4Az-59" edge="1">
          <mxGeometry x="-0.9435" y="14" relative="1" as="geometry">
            <mxPoint x="416" y="844" as="sourcePoint" />
            <mxPoint x="600" y="473" as="targetPoint" />
            <Array as="points">
              <mxPoint x="538" y="544" />
              <mxPoint x="538" y="914" />
            </Array>
            <mxPoint as="offset" />
          </mxGeometry>
        </mxCell>
        <mxCell id="XeqBr0BMel8a1HU3ZWUf-24" value="works at" style="edgeLabel;html=1;align=center;verticalAlign=middle;resizable=0;points=[];fontSize=12;fontFamily=Helvetica;fontColor=default;spacingTop=0;spacing=2;" parent="XeqBr0BMel8a1HU3ZWUf-23" vertex="1" connectable="0">
          <mxGeometry x="-0.0711" y="-1" relative="1" as="geometry">
            <mxPoint x="-65" y="163" as="offset" />
          </mxGeometry>
        </mxCell>
        <mxCell id="XeqBr0BMel8a1HU3ZWUf-25" value="1" style="endArrow=open;html=1;endSize=10;startArrow=diamondThin;startSize=14;startFill=0;edgeStyle=orthogonalEdgeStyle;align=left;verticalAlign=middle;rounded=0;labelBackgroundColor=default;strokeColor=default;fontFamily=Helvetica;fontSize=12;fontColor=default;shape=connector;" parent="1" source="XeqBr0BMel8a1HU3ZWUf-1" target="9s62NMN8IXOqiIoqj4Az-73" edge="1">
          <mxGeometry x="-0.9272" y="8" relative="1" as="geometry">
            <mxPoint x="661.5" y="901" as="sourcePoint" />
            <mxPoint x="477.5" y="1177" as="targetPoint" />
            <Array as="points">
              <mxPoint x="597" y="1396" />
              <mxPoint x="349" y="1396" />
            </Array>
            <mxPoint as="offset" />
          </mxGeometry>
        </mxCell>
        <mxCell id="XeqBr0BMel8a1HU3ZWUf-26" value="works at" style="edgeLabel;html=1;align=center;verticalAlign=middle;resizable=0;points=[];fontSize=12;fontFamily=Helvetica;fontColor=default;spacingTop=0;spacing=2;" parent="XeqBr0BMel8a1HU3ZWUf-25" vertex="1" connectable="0">
          <mxGeometry x="-0.0711" y="-1" relative="1" as="geometry">
            <mxPoint x="34" y="-52" as="offset" />
          </mxGeometry>
        </mxCell>
        <mxCell id="XeqBr0BMel8a1HU3ZWUf-27" value="1" style="endArrow=open;html=1;endSize=10;startArrow=diamondThin;startSize=14;startFill=0;edgeStyle=orthogonalEdgeStyle;align=left;verticalAlign=middle;rounded=0;labelBackgroundColor=default;strokeColor=default;fontFamily=Helvetica;fontSize=12;fontColor=default;shape=connector;" parent="1" source="XeqBr0BMel8a1HU3ZWUf-5" target="9s62NMN8IXOqiIoqj4Az-87" edge="1">
          <mxGeometry x="-0.8681" y="9" relative="1" as="geometry">
            <mxPoint x="533" y="976" as="sourcePoint" />
            <mxPoint x="386" y="1253" as="targetPoint" />
            <Array as="points">
              <mxPoint x="825" y="1443" />
              <mxPoint x="637" y="1443" />
            </Array>
            <mxPoint as="offset" />
          </mxGeometry>
        </mxCell>
        <mxCell id="XeqBr0BMel8a1HU3ZWUf-28" value="works at" style="edgeLabel;html=1;align=center;verticalAlign=middle;resizable=0;points=[];fontSize=12;fontFamily=Helvetica;fontColor=default;spacingTop=0;spacing=2;" parent="XeqBr0BMel8a1HU3ZWUf-27" vertex="1" connectable="0">
          <mxGeometry x="-0.0711" y="-1" relative="1" as="geometry">
            <mxPoint x="8" y="1" as="offset" />
          </mxGeometry>
        </mxCell>
        <mxCell id="8kTk9Mw71UbB4ehkWqcH-7" value="MedicalEmployee" style="swimlane;fontStyle=3;align=center;verticalAlign=middle;childLayout=stackLayout;horizontal=1;startSize=26;horizontalStack=0;resizeParent=1;resizeParentMax=0;resizeLast=0;collapsible=1;marginBottom=0;whiteSpace=wrap;html=1;fontSize=14;fillColor=#d5e8d4;strokeColor=#82b366;" parent="1" vertex="1">
          <mxGeometry x="611" y="122" width="266" height="234" as="geometry">
            <mxRectangle x="561" y="253" width="195" height="29" as="alternateBounds" />
          </mxGeometry>
        </mxCell>
        <mxCell id="8kTk9Mw71UbB4ehkWqcH-9" value="- &lt;u&gt;medicalCenter: MedicalCenter&lt;/u&gt;" style="text;strokeColor=none;fillColor=none;align=left;verticalAlign=middle;spacingLeft=4;spacingRight=4;overflow=hidden;rotatable=0;points=[[0,0.5],[1,0.5]];portConstraint=eastwest;whiteSpace=wrap;html=1;fontSize=12;fontStyle=0" parent="8kTk9Mw71UbB4ehkWqcH-7" vertex="1">
          <mxGeometry y="26" width="266" height="22" as="geometry" />
        </mxCell>
        <mxCell id="8kTk9Mw71UbB4ehkWqcH-11" value="" style="line;strokeWidth=1;fillColor=none;align=left;verticalAlign=top;spacingTop=-1;spacingLeft=3;spacingRight=3;rotatable=0;labelPosition=right;points=[];portConstraint=eastwest;strokeColor=inherit;fontSize=16;" parent="8kTk9Mw71UbB4ehkWqcH-7" vertex="1">
          <mxGeometry y="48" width="266" height="8" as="geometry" />
        </mxCell>
        <mxCell id="8kTk9Mw71UbB4ehkWqcH-27" value="&lt;b style=&quot;font-size: 12px;&quot;&gt;# MedicalEmployee(&lt;/b&gt;&lt;font style=&quot;font-size: 10px;&quot;&gt;&lt;br&gt;&amp;nbsp; &amp;nbsp; &amp;nbsp; &amp;nbsp; &amp;nbsp;id: String, name: String&lt;/font&gt;&lt;b style=&quot;font-size: 12px;&quot;&gt;)&lt;/b&gt;" style="text;strokeColor=none;fillColor=none;align=left;verticalAlign=middle;spacingLeft=4;spacingRight=4;overflow=hidden;rotatable=0;points=[[0,0.5],[1,0.5]];portConstraint=eastwest;whiteSpace=wrap;html=1;fontSize=12;spacing=2;spacingBottom=0;" parent="8kTk9Mw71UbB4ehkWqcH-7" vertex="1">
          <mxGeometry y="56" width="266" height="34" as="geometry" />
        </mxCell>
        <mxCell id="8kTk9Mw71UbB4ehkWqcH-28" value="&lt;b style=&quot;font-size: 12px;&quot;&gt;#&amp;nbsp;&lt;/b&gt;&lt;b style=&quot;border-color: var(--border-color);&quot;&gt;MedicalEmployee&lt;/b&gt;&lt;b style=&quot;font-size: 12px;&quot;&gt;(&lt;/b&gt;&lt;font style=&quot;font-size: 10px;&quot;&gt;&lt;br&gt;&amp;nbsp; &amp;nbsp; &amp;nbsp; &amp;nbsp; &amp;nbsp;nid: String, name: String, phone: String&lt;/font&gt;&lt;b style=&quot;font-size: 12px;&quot;&gt;)&lt;/b&gt;" style="text;strokeColor=none;fillColor=none;align=left;verticalAlign=middle;spacingLeft=4;spacingRight=4;overflow=hidden;rotatable=0;points=[[0,0.5],[1,0.5]];portConstraint=eastwest;whiteSpace=wrap;html=1;fontSize=12;spacing=2;spacingBottom=0;" parent="8kTk9Mw71UbB4ehkWqcH-7" vertex="1">
          <mxGeometry y="90" width="266" height="34" as="geometry" />
        </mxCell>
        <mxCell id="8kTk9Mw71UbB4ehkWqcH-57" value="&lt;font style=&quot;font-size: 12px;&quot;&gt;&lt;font style=&quot;font-size: 12px;&quot;&gt;&lt;font style=&quot;font-size: 12px;&quot;&gt;&lt;b&gt;@&lt;/b&gt;#&amp;nbsp;defineAttrs&lt;/font&gt;(&lt;/font&gt;&lt;font style=&quot;font-size: 12px;&quot;&gt;): String&lt;/font&gt;&lt;/font&gt;" style="text;strokeColor=none;fillColor=none;align=left;verticalAlign=middle;spacingLeft=4;spacingRight=4;overflow=hidden;rotatable=0;points=[[0,0.5],[1,0.5]];portConstraint=eastwest;whiteSpace=wrap;html=1;fontSize=12;fontFamily=Helvetica;fontColor=default;" parent="8kTk9Mw71UbB4ehkWqcH-7" vertex="1">
          <mxGeometry y="124" width="266" height="22" as="geometry" />
        </mxCell>
        <mxCell id="8kTk9Mw71UbB4ehkWqcH-14" value="&lt;font style=&quot;font-size: 12px;&quot;&gt;&lt;font style=&quot;font-size: 12px;&quot;&gt;&lt;font style=&quot;font-size: 12px;&quot;&gt;&lt;b style=&quot;&quot;&gt;@&lt;/b&gt;+ equals&lt;/font&gt;(Object&lt;/font&gt;&lt;font style=&quot;font-size: 12px;&quot;&gt;): boolean&lt;/font&gt;&lt;/font&gt;" style="text;strokeColor=none;fillColor=none;align=left;verticalAlign=middle;spacingLeft=4;spacingRight=4;overflow=hidden;rotatable=0;points=[[0,0.5],[1,0.5]];portConstraint=eastwest;whiteSpace=wrap;html=1;fontSize=12;fontFamily=Helvetica;fontColor=default;" parent="8kTk9Mw71UbB4ehkWqcH-7" vertex="1">
          <mxGeometry y="146" width="266" height="22" as="geometry" />
        </mxCell>
        <mxCell id="8mJt0CeaD_uCKH32HhNH-24" value="&lt;font style=&quot;font-size: 12px;&quot;&gt;&lt;font style=&quot;font-size: 12px;&quot;&gt;&lt;font style=&quot;font-size: 12px;&quot;&gt;+&amp;nbsp;getEmployeeType&lt;/font&gt;(&lt;/font&gt;&lt;font style=&quot;font-size: 12px;&quot;&gt;): String&lt;/font&gt;&lt;/font&gt;" style="text;strokeColor=none;fillColor=none;align=left;verticalAlign=middle;spacingLeft=4;spacingRight=4;overflow=hidden;rotatable=0;points=[[0,0.5],[1,0.5]];portConstraint=eastwest;whiteSpace=wrap;html=1;fontSize=12;fontFamily=Helvetica;fontColor=default;fontStyle=2" parent="8kTk9Mw71UbB4ehkWqcH-7" vertex="1">
          <mxGeometry y="168" width="266" height="22" as="geometry" />
        </mxCell>
        <mxCell id="8kTk9Mw71UbB4ehkWqcH-17" value="+ getMedicalCenter(): MedicalCenter" style="text;strokeColor=none;fillColor=none;align=left;verticalAlign=middle;spacingLeft=4;spacingRight=4;overflow=hidden;rotatable=0;points=[[0,0.5],[1,0.5]];portConstraint=eastwest;whiteSpace=wrap;html=1;fontSize=12;fontStyle=0" parent="8kTk9Mw71UbB4ehkWqcH-7" vertex="1">
          <mxGeometry y="190" width="266" height="22" as="geometry" />
        </mxCell>
        <mxCell id="8kTk9Mw71UbB4ehkWqcH-18" value="# setMedicalCenter(&lt;font style=&quot;font-size: 10px;&quot;&gt;center: MedicalCenter&lt;/font&gt;): void" style="text;strokeColor=none;fillColor=none;align=left;verticalAlign=middle;spacingLeft=4;spacingRight=4;overflow=hidden;rotatable=0;points=[[0,0.5],[1,0.5]];portConstraint=eastwest;whiteSpace=wrap;html=1;fontSize=12;fontStyle=0" parent="8kTk9Mw71UbB4ehkWqcH-7" vertex="1">
          <mxGeometry y="212" width="266" height="22" as="geometry" />
        </mxCell>
        <mxCell id="8kTk9Mw71UbB4ehkWqcH-29" value="Extends" style="endArrow=block;endSize=10;endFill=0;html=1;rounded=0;fontFamily=Helvetica;fontSize=12;fontColor=default;edgeStyle=orthogonalEdgeStyle;fillColor=#008a00;strokeColor=#005700;" parent="1" source="8kTk9Mw71UbB4ehkWqcH-7" target="Bbm4-nluXWY08SML4j0r-1" edge="1">
          <mxGeometry x="-0.076" width="160" relative="1" as="geometry">
            <mxPoint x="732" y="455" as="sourcePoint" />
            <mxPoint x="894" y="270" as="targetPoint" />
            <Array as="points">
              <mxPoint x="968" y="142" />
              <mxPoint x="968" y="122" />
            </Array>
            <mxPoint as="offset" />
          </mxGeometry>
        </mxCell>
        <mxCell id="8kTk9Mw71UbB4ehkWqcH-32" value="1" style="endArrow=open;html=1;endSize=10;startArrow=diamondThin;startSize=14;startFill=1;edgeStyle=orthogonalEdgeStyle;align=left;verticalAlign=middle;rounded=0;labelBackgroundColor=default;strokeColor=#005700;fontFamily=Helvetica;fontSize=12;fontColor=default;shape=connector;fillColor=#008a00;" parent="1" source="8kTk9Mw71UbB4ehkWqcH-9" target="9s62NMN8IXOqiIoqj4Az-13" edge="1">
          <mxGeometry x="-0.75" y="15" relative="1" as="geometry">
            <mxPoint x="168" y="822" as="sourcePoint" />
            <mxPoint x="175" y="165" as="targetPoint" />
            <Array as="points">
              <mxPoint x="589" y="159" />
              <mxPoint x="589" y="159" />
            </Array>
            <mxPoint as="offset" />
          </mxGeometry>
        </mxCell>
        <mxCell id="8kTk9Mw71UbB4ehkWqcH-33" value="works at" style="edgeLabel;html=1;align=center;verticalAlign=middle;resizable=0;points=[];fontSize=12;fontFamily=Helvetica;fontColor=default;" parent="8kTk9Mw71UbB4ehkWqcH-32" vertex="1" connectable="0">
          <mxGeometry x="-0.0711" y="-1" relative="1" as="geometry">
            <mxPoint x="-6" y="1" as="offset" />
          </mxGeometry>
        </mxCell>
        <mxCell id="8kTk9Mw71UbB4ehkWqcH-34" value="0..n" style="endArrow=open;html=1;endSize=10;startArrow=diamondThin;startSize=14;startFill=0;edgeStyle=orthogonalEdgeStyle;align=left;verticalAlign=middle;rounded=0;labelBackgroundColor=default;strokeColor=#005700;fontFamily=Helvetica;fontSize=12;fontColor=default;shape=connector;fillColor=#008a00;" parent="1" source="8kTk9Mw71UbB4ehkWqcH-2" target="8kTk9Mw71UbB4ehkWqcH-7" edge="1">
          <mxGeometry x="-0.9221" y="13" relative="1" as="geometry">
            <mxPoint x="610" y="222" as="sourcePoint" />
            <mxPoint x="538" y="169" as="targetPoint" />
            <Array as="points">
              <mxPoint x="591" y="247" />
              <mxPoint x="591" y="133" />
            </Array>
            <mxPoint as="offset" />
          </mxGeometry>
        </mxCell>
        <mxCell id="8kTk9Mw71UbB4ehkWqcH-45" value="&lt;i&gt;&amp;lt;&amp;lt;Interface&amp;gt;&amp;gt;&lt;br&gt;&lt;/i&gt;&lt;b&gt;&lt;font style=&quot;font-size: 14px;&quot;&gt;CanRemitPatientToOtherCenter&lt;/font&gt;&lt;/b&gt;" style="swimlane;fontStyle=0;align=center;verticalAlign=middle;childLayout=stackLayout;horizontal=1;startSize=38;horizontalStack=0;resizeParent=1;resizeParentMax=0;resizeLast=0;collapsible=0;marginBottom=0;html=1;whiteSpace=wrap;fontFamily=Helvetica;fontSize=12;fillColor=#d5e8d4;strokeColor=#82b366;" parent="1" vertex="1">
          <mxGeometry x="1049" y="141" width="241" height="96" as="geometry" />
        </mxCell>
        <mxCell id="8kTk9Mw71UbB4ehkWqcH-50" value="" style="line;strokeWidth=1;fillColor=#d5e8d4;align=left;verticalAlign=middle;spacingTop=-1;spacingLeft=3;spacingRight=3;rotatable=0;labelPosition=right;points=[];portConstraint=eastwest;fontFamily=Helvetica;fontSize=12;html=1;strokeColor=#82b366;" parent="8kTk9Mw71UbB4ehkWqcH-45" vertex="1">
          <mxGeometry y="38" width="241" height="8" as="geometry" />
        </mxCell>
        <mxCell id="8kTk9Mw71UbB4ehkWqcH-53" value="+ remit&lt;font style=&quot;font-size: 12px;&quot;&gt;PatientTo&lt;/font&gt;(&lt;br style=&quot;font-size: 12px;&quot;&gt;&amp;nbsp; &amp;nbsp; &amp;nbsp; &amp;nbsp; &lt;font style=&quot;font-size: 10px;&quot;&gt;patient:&amp;nbsp;&lt;font style=&quot;font-size: 10px;&quot;&gt;Patient,&lt;br&gt;&amp;nbsp; &amp;nbsp; &amp;nbsp; &amp;nbsp; &amp;nbsp; center: MedicalCenter&lt;/font&gt;&lt;/font&gt;): &lt;font style=&quot;font-size: 10px;&quot;&gt;MedicalAppointment&lt;/font&gt;" style="text;strokeColor=none;fillColor=none;align=left;verticalAlign=middle;spacingLeft=4;spacingRight=4;overflow=hidden;rotatable=0;points=[[0,0.5],[1,0.5]];portConstraint=eastwest;whiteSpace=wrap;html=1;fontSize=12;" parent="8kTk9Mw71UbB4ehkWqcH-45" vertex="1">
          <mxGeometry y="46" width="241" height="50" as="geometry" />
        </mxCell>
        <mxCell id="8mJt0CeaD_uCKH32HhNH-12" value="Extends" style="endArrow=block;endSize=10;endFill=0;html=1;rounded=0;fontFamily=Helvetica;fontSize=12;fontColor=default;edgeStyle=orthogonalEdgeStyle;fillColor=#008a00;strokeColor=#005700;" parent="1" source="8mJt0CeaD_uCKH32HhNH-1" target="8kTk9Mw71UbB4ehkWqcH-7" edge="1">
          <mxGeometry x="-0.3811" width="160" relative="1" as="geometry">
            <mxPoint x="732" y="454" as="sourcePoint" />
            <mxPoint x="732" y="365" as="targetPoint" />
            <Array as="points">
              <mxPoint x="1079" y="379" />
              <mxPoint x="777" y="379" />
            </Array>
            <mxPoint as="offset" />
          </mxGeometry>
        </mxCell>
        <mxCell id="8mJt0CeaD_uCKH32HhNH-13" value="" style="endArrow=block;dashed=1;endFill=0;endSize=10;html=1;rounded=0;labelBackgroundColor=default;strokeColor=#005700;fontFamily=Helvetica;fontSize=12;fontColor=default;shape=connector;edgeStyle=orthogonalEdgeStyle;fillColor=#008a00;" parent="1" source="Zpq2iblePXxYn9alLh3R-2" target="8kTk9Mw71UbB4ehkWqcH-45" edge="1">
          <mxGeometry width="160" relative="1" as="geometry">
            <mxPoint x="912" y="449" as="sourcePoint" />
            <mxPoint x="1072" y="449" as="targetPoint" />
            <Array as="points">
              <mxPoint x="1289" y="692" />
              <mxPoint x="1289" y="402" />
              <mxPoint x="1178" y="402" />
            </Array>
          </mxGeometry>
        </mxCell>
        <mxCell id="8mJt0CeaD_uCKH32HhNH-14" value="" style="endArrow=block;dashed=1;endFill=0;endSize=10;html=1;rounded=0;labelBackgroundColor=default;strokeColor=#005700;fontFamily=Helvetica;fontSize=12;fontColor=default;shape=connector;edgeStyle=orthogonalEdgeStyle;fillColor=#008a00;" parent="1" source="9s62NMN8IXOqiIoqj4Az-38" target="8kTk9Mw71UbB4ehkWqcH-45" edge="1">
          <mxGeometry width="160" relative="1" as="geometry">
            <mxPoint x="1103" y="454" as="sourcePoint" />
            <mxPoint x="1127" y="307" as="targetPoint" />
            <Array as="points">
              <mxPoint x="743" y="400" />
              <mxPoint x="1156" y="400" />
            </Array>
          </mxGeometry>
        </mxCell>
        <mxCell id="8mJt0CeaD_uCKH32HhNH-15" value="Paramedic" style="swimlane;fontStyle=1;align=center;verticalAlign=middle;childLayout=stackLayout;horizontal=1;startSize=26;horizontalStack=0;resizeParent=1;resizeParentMax=0;resizeLast=0;collapsible=1;marginBottom=0;whiteSpace=wrap;html=1;fontSize=14;fillColor=#d5e8d4;strokeColor=#82b366;" parent="1" vertex="1">
          <mxGeometry x="953.5" y="797" width="322.5" height="190" as="geometry">
            <mxRectangle x="561" y="253" width="195" height="29" as="alternateBounds" />
          </mxGeometry>
        </mxCell>
        <mxCell id="08od-bibOzEyOUq_gxU7-3" value="+&amp;nbsp;&lt;u style=&quot;font-size: 10px;&quot;&gt;MEDICAL_EMPLOYEE_TYPE: String&lt;/u&gt;&lt;span style=&quot;font-size: 10px;&quot;&gt; =&lt;/span&gt;&lt;span style=&quot;font-size: 10px;&quot;&gt;&lt;font style=&quot;font-size: 10px;&quot;&gt;&amp;nbsp;&lt;/font&gt;&lt;font style=&quot;text-decoration-line: underline; font-size: 10px;&quot; face=&quot;Courier New&quot;&gt;&quot;Paramedic&quot;&lt;/font&gt;&lt;/span&gt;" style="text;strokeColor=none;fillColor=none;align=left;verticalAlign=middle;spacingLeft=4;spacingRight=4;overflow=hidden;rotatable=0;points=[[0,0.5],[1,0.5]];portConstraint=eastwest;whiteSpace=wrap;html=1;fontSize=10;fontStyle=0" parent="8mJt0CeaD_uCKH32HhNH-15" vertex="1">
          <mxGeometry y="26" width="322.5" height="22" as="geometry" />
        </mxCell>
        <mxCell id="8mJt0CeaD_uCKH32HhNH-16" value="" style="line;strokeWidth=1;fillColor=none;align=left;verticalAlign=top;spacingTop=-1;spacingLeft=3;spacingRight=3;rotatable=0;labelPosition=right;points=[];portConstraint=eastwest;strokeColor=inherit;fontSize=16;" parent="8mJt0CeaD_uCKH32HhNH-15" vertex="1">
          <mxGeometry y="48" width="322.5" height="8" as="geometry" />
        </mxCell>
        <mxCell id="8mJt0CeaD_uCKH32HhNH-17" value="&lt;b style=&quot;font-size: 12px;&quot;&gt;+ Paramedic(&lt;/b&gt;&lt;font style=&quot;font-size: 10px;&quot;&gt;type: String,&lt;br&gt;&amp;nbsp; &amp;nbsp; &amp;nbsp; &amp;nbsp; &amp;nbsp;id: String, name: String&lt;/font&gt;&lt;b style=&quot;font-size: 12px;&quot;&gt;)&lt;/b&gt;" style="text;strokeColor=none;fillColor=none;align=left;verticalAlign=middle;spacingLeft=4;spacingRight=4;overflow=hidden;rotatable=0;points=[[0,0.5],[1,0.5]];portConstraint=eastwest;whiteSpace=wrap;html=1;fontSize=12;spacing=2;spacingBottom=0;" parent="8mJt0CeaD_uCKH32HhNH-15" vertex="1">
          <mxGeometry y="56" width="322.5" height="34" as="geometry" />
        </mxCell>
        <mxCell id="8mJt0CeaD_uCKH32HhNH-18" value="&lt;b style=&quot;font-size: 12px;&quot;&gt;+&amp;nbsp;&lt;/b&gt;&lt;b style=&quot;border-color: var(--border-color);&quot;&gt;Paramedic&lt;/b&gt;&lt;b style=&quot;font-size: 12px;&quot;&gt;(&lt;/b&gt;&lt;font style=&quot;font-size: 10px;&quot;&gt;type: String,&lt;br&gt;&amp;nbsp; &amp;nbsp; &amp;nbsp; &amp;nbsp; &amp;nbsp;nid: String, name: String, phone: String&lt;/font&gt;&lt;b style=&quot;font-size: 12px;&quot;&gt;)&lt;/b&gt;" style="text;strokeColor=none;fillColor=none;align=left;verticalAlign=middle;spacingLeft=4;spacingRight=4;overflow=hidden;rotatable=0;points=[[0,0.5],[1,0.5]];portConstraint=eastwest;whiteSpace=wrap;html=1;fontSize=12;spacing=2;spacingBottom=0;" parent="8mJt0CeaD_uCKH32HhNH-15" vertex="1">
          <mxGeometry y="90" width="322.5" height="34" as="geometry" />
        </mxCell>
        <mxCell id="BV2OHTJGG2pNwfcFUSOa-5" value="&lt;font style=&quot;font-size: 12px;&quot;&gt;&lt;font style=&quot;font-size: 12px;&quot;&gt;&lt;font style=&quot;font-size: 12px;&quot;&gt;&lt;b&gt;@&lt;/b&gt;+&amp;nbsp;getEmployeeType&lt;/font&gt;(&lt;/font&gt;&lt;font style=&quot;font-size: 12px;&quot;&gt;): String&lt;/font&gt;&lt;/font&gt;" style="text;strokeColor=none;fillColor=none;align=left;verticalAlign=middle;spacingLeft=4;spacingRight=4;overflow=hidden;rotatable=0;points=[[0,0.5],[1,0.5]];portConstraint=eastwest;whiteSpace=wrap;html=1;fontSize=12;fontFamily=Helvetica;fontColor=default;fontStyle=0" parent="8mJt0CeaD_uCKH32HhNH-15" vertex="1">
          <mxGeometry y="124" width="322.5" height="22" as="geometry" />
        </mxCell>
        <mxCell id="8mJt0CeaD_uCKH32HhNH-19" value="&lt;font style=&quot;font-size: 12px;&quot;&gt;&lt;font style=&quot;font-size: 12px;&quot;&gt;&lt;font style=&quot;font-size: 12px;&quot;&gt;&lt;b&gt;@&lt;/b&gt;#&amp;nbsp;defineAttrs&lt;/font&gt;(&lt;/font&gt;&lt;font style=&quot;font-size: 12px;&quot;&gt;): String&lt;/font&gt;&lt;/font&gt;" style="text;strokeColor=none;fillColor=none;align=left;verticalAlign=middle;spacingLeft=4;spacingRight=4;overflow=hidden;rotatable=0;points=[[0,0.5],[1,0.5]];portConstraint=eastwest;whiteSpace=wrap;html=1;fontSize=12;fontFamily=Helvetica;fontColor=default;" parent="8mJt0CeaD_uCKH32HhNH-15" vertex="1">
          <mxGeometry y="146" width="322.5" height="22" as="geometry" />
        </mxCell>
        <mxCell id="rYhuM6UBBMw8ggp7pg2j-1" value="&lt;b&gt;@&lt;/b&gt;+ remitPatientTo(&lt;font style=&quot;font-size: 10px;&quot;&gt;Patient, MedicalCenter&lt;/font&gt;): &lt;font style=&quot;font-size: 10px;&quot;&gt;MedicalAppointment&lt;/font&gt;" style="text;strokeColor=none;fillColor=none;align=left;verticalAlign=middle;spacingLeft=4;spacingRight=4;overflow=hidden;rotatable=0;points=[[0,0.5],[1,0.5]];portConstraint=eastwest;whiteSpace=wrap;html=1;fontSize=12;" parent="8mJt0CeaD_uCKH32HhNH-15" vertex="1">
          <mxGeometry y="168" width="322.5" height="22" as="geometry" />
        </mxCell>
        <mxCell id="8mJt0CeaD_uCKH32HhNH-22" value="" style="endArrow=block;dashed=1;endFill=0;endSize=10;html=1;rounded=0;labelBackgroundColor=default;strokeColor=#005700;fontFamily=Helvetica;fontSize=12;fontColor=default;shape=connector;edgeStyle=orthogonalEdgeStyle;fillColor=#008a00;" parent="1" source="8mJt0CeaD_uCKH32HhNH-15" target="8kTk9Mw71UbB4ehkWqcH-45" edge="1">
          <mxGeometry width="160" relative="1" as="geometry">
            <mxPoint x="1135" y="454" as="sourcePoint" />
            <mxPoint x="1135" y="307" as="targetPoint" />
            <Array as="points">
              <mxPoint x="1145" y="775" />
              <mxPoint x="1300" y="775" />
              <mxPoint x="1300" y="384" />
              <mxPoint x="1197" y="384" />
            </Array>
          </mxGeometry>
        </mxCell>
        <mxCell id="8mJt0CeaD_uCKH32HhNH-23" value="Extends" style="endArrow=block;endSize=10;endFill=0;html=1;rounded=0;fontFamily=Helvetica;fontSize=12;fontColor=default;edgeStyle=orthogonalEdgeStyle;fillColor=#008a00;strokeColor=#005700;" parent="1" source="8mJt0CeaD_uCKH32HhNH-15" target="8kTk9Mw71UbB4ehkWqcH-7" edge="1">
          <mxGeometry x="-0.5766" width="160" relative="1" as="geometry">
            <mxPoint x="1089" y="454" as="sourcePoint" />
            <mxPoint x="787" y="365" as="targetPoint" />
            <Array as="points">
              <mxPoint x="1124" y="776" />
              <mxPoint x="923" y="776" />
              <mxPoint x="923" y="379" />
              <mxPoint x="777" y="379" />
            </Array>
            <mxPoint as="offset" />
          </mxGeometry>
        </mxCell>
        <mxCell id="Y7Y5jLObV-iqa3NYmAlt-15" value="Use" style="endArrow=open;endSize=10;dashed=1;html=1;rounded=0;fontFamily=Helvetica;fontSize=12;fontColor=default;edgeStyle=orthogonalEdgeStyle;fillColor=#008a00;strokeColor=#005700;" parent="1" source="8kTk9Mw71UbB4ehkWqcH-53" target="VwFVLo1W44RPXp0Loa5u-37" edge="1">
          <mxGeometry x="-0.76" y="1" width="160" relative="1" as="geometry">
            <mxPoint x="1141" y="826" as="sourcePoint" />
            <mxPoint x="1320" y="982" as="targetPoint" />
            <Array as="points">
              <mxPoint x="1320" y="212" />
            </Array>
            <mxPoint as="offset" />
          </mxGeometry>
        </mxCell>
        <mxCell id="VwFVLo1W44RPXp0Loa5u-1" value="Use" style="endArrow=open;endSize=10;dashed=1;html=1;rounded=0;fontFamily=Helvetica;fontSize=12;fontColor=default;edgeStyle=orthogonalEdgeStyle;fillColor=#008a00;strokeColor=#005700;" parent="1" source="VwFVLo1W44RPXp0Loa5u-37" target="9s62NMN8IXOqiIoqj4Az-49" edge="1">
          <mxGeometry x="0.0803" width="160" relative="1" as="geometry">
            <mxPoint x="1350" y="982" as="sourcePoint" />
            <mxPoint x="1351" y="996" as="targetPoint" />
            <Array as="points">
              <mxPoint x="1340" y="458" />
            </Array>
            <mxPoint as="offset" />
          </mxGeometry>
        </mxCell>
        <mxCell id="VwFVLo1W44RPXp0Loa5u-2" value="" style="group;fontSize=16;fontFamily=Helvetica;fontColor=default;fillColor=none;gradientColor=none;html=1;" parent="1" vertex="1" connectable="0">
          <mxGeometry x="1750" y="736" width="520" height="872" as="geometry" />
        </mxCell>
        <mxCell id="VwFVLo1W44RPXp0Loa5u-3" value="" style="rounded=0;whiteSpace=wrap;html=1;fontSize=16;glass=0;strokeColor=none;fillColor=#fcf3fc;fontFamily=Helvetica;fontColor=default;" parent="VwFVLo1W44RPXp0Loa5u-2" vertex="1">
          <mxGeometry x="2.955857780762017e-14" width="519.9999999999998" height="872" as="geometry" />
        </mxCell>
        <mxCell id="VwFVLo1W44RPXp0Loa5u-4" value="&lt;font style=&quot;font-size: 14px;&quot;&gt;&lt;b&gt;package&lt;/b&gt;: &lt;font face=&quot;Courier New&quot;&gt;medicalcenter.persistence&lt;/font&gt;&lt;/font&gt;" style="shape=umlFrame;whiteSpace=wrap;html=1;pointerEvents=0;fontSize=16;width=314;height=27;align=left;spacingLeft=8;spacingRight=8;fillColor=#e1d5e7;strokeColor=#9673a6;fontFamily=Helvetica;" parent="VwFVLo1W44RPXp0Loa5u-2" vertex="1">
          <mxGeometry x="2.955857780762017e-14" width="519.9999999999998" height="872" as="geometry" />
        </mxCell>
        <mxCell id="VwFVLo1W44RPXp0Loa5u-5" value="" style="group;fontSize=16;fontFamily=Helvetica;fontColor=default;fillColor=none;gradientColor=none;html=1;" parent="1" vertex="1" connectable="0">
          <mxGeometry x="1750" y="99" width="520" height="495" as="geometry" />
        </mxCell>
        <mxCell id="VwFVLo1W44RPXp0Loa5u-6" value="" style="rounded=0;whiteSpace=wrap;html=1;fontSize=16;glass=0;strokeColor=none;fillColor=#fcf3f3;fontFamily=Helvetica;fontColor=default;" parent="VwFVLo1W44RPXp0Loa5u-5" vertex="1">
          <mxGeometry x="2.955857780762017e-14" width="519.9999999999998" height="495" as="geometry" />
        </mxCell>
        <mxCell id="VwFVLo1W44RPXp0Loa5u-7" value="&lt;font style=&quot;font-size: 14px;&quot;&gt;&lt;b&gt;package&lt;/b&gt;: &lt;font face=&quot;Courier New&quot;&gt;medicalcenter.reports&lt;/font&gt;&lt;/font&gt;" style="shape=umlFrame;whiteSpace=wrap;html=1;pointerEvents=0;fontSize=16;width=314;height=27;align=left;spacingLeft=8;spacingRight=8;fillColor=#f8cecc;strokeColor=#b85450;fontFamily=Helvetica;" parent="VwFVLo1W44RPXp0Loa5u-5" vertex="1">
          <mxGeometry x="2.955857780762017e-14" width="519.9999999999998" height="495" as="geometry" />
        </mxCell>
        <mxCell id="VwFVLo1W44RPXp0Loa5u-9" value="&lt;i&gt;&amp;lt;&amp;lt;Interface&amp;gt;&amp;gt;&lt;br&gt;&lt;/i&gt;&lt;b&gt;&lt;font style=&quot;font-size: 14px;&quot;&gt;ReportGenerator&lt;/font&gt;&lt;/b&gt;" style="swimlane;fontStyle=0;align=center;verticalAlign=middle;childLayout=stackLayout;horizontal=1;startSize=38;horizontalStack=0;resizeParent=1;resizeParentMax=0;resizeLast=0;collapsible=0;marginBottom=0;html=1;whiteSpace=wrap;fontFamily=Helvetica;fontSize=12;fillColor=#f8cecc;strokeColor=#b85450;" parent="1" vertex="1">
          <mxGeometry x="1823.5" y="141" width="365" height="134" as="geometry" />
        </mxCell>
        <mxCell id="VwFVLo1W44RPXp0Loa5u-10" value="" style="line;strokeWidth=1;fillColor=#f8cecc;align=left;verticalAlign=middle;spacingTop=-1;spacingLeft=3;spacingRight=3;rotatable=0;labelPosition=right;points=[];portConstraint=eastwest;fontFamily=Helvetica;fontSize=12;html=1;strokeColor=#b85450;" parent="VwFVLo1W44RPXp0Loa5u-9" vertex="1">
          <mxGeometry y="38" width="365" height="8" as="geometry" />
        </mxCell>
        <mxCell id="VwFVLo1W44RPXp0Loa5u-11" value="+ generateDoctorReport(&lt;font style=&quot;font-size: 10px;&quot;&gt;doctor: Doctor&lt;/font&gt;): &lt;font style=&quot;font-size: 10px;&quot;&gt;void&lt;/font&gt;" style="text;strokeColor=none;fillColor=none;align=left;verticalAlign=middle;spacingLeft=4;spacingRight=4;overflow=hidden;rotatable=0;points=[[0,0.5],[1,0.5]];portConstraint=eastwest;whiteSpace=wrap;html=1;fontSize=12;fontStyle=0" parent="VwFVLo1W44RPXp0Loa5u-9" vertex="1">
          <mxGeometry y="46" width="365" height="22" as="geometry" />
        </mxCell>
        <mxCell id="VwFVLo1W44RPXp0Loa5u-12" value="+ generateDoctorsReport(&lt;font style=&quot;font-size: 10px;&quot;&gt;reportTitle: String, doctors: Doctor[]&lt;/font&gt;): &lt;font style=&quot;font-size: 10px;&quot;&gt;void&lt;/font&gt;" style="text;strokeColor=none;fillColor=none;align=left;verticalAlign=middle;spacingLeft=4;spacingRight=4;overflow=hidden;rotatable=0;points=[[0,0.5],[1,0.5]];portConstraint=eastwest;whiteSpace=wrap;html=1;fontSize=12;fontStyle=0" parent="VwFVLo1W44RPXp0Loa5u-9" vertex="1">
          <mxGeometry y="68" width="365" height="22" as="geometry" />
        </mxCell>
        <mxCell id="VwFVLo1W44RPXp0Loa5u-13" value="+ generatePatientReport(&lt;font style=&quot;font-size: 10px;&quot;&gt;patient: Patient&lt;/font&gt;): &lt;font style=&quot;font-size: 10px;&quot;&gt;void&lt;/font&gt;" style="text;strokeColor=none;fillColor=none;align=left;verticalAlign=middle;spacingLeft=4;spacingRight=4;overflow=hidden;rotatable=0;points=[[0,0.5],[1,0.5]];portConstraint=eastwest;whiteSpace=wrap;html=1;fontSize=12;fontStyle=0" parent="VwFVLo1W44RPXp0Loa5u-9" vertex="1">
          <mxGeometry y="90" width="365" height="22" as="geometry" />
        </mxCell>
        <mxCell id="VwFVLo1W44RPXp0Loa5u-14" value="+ generatePatientsReport(&lt;font style=&quot;font-size: 10px;&quot;&gt;reportTitle: String, patients: Patient[]&lt;/font&gt;): &lt;font style=&quot;font-size: 10px;&quot;&gt;void&lt;/font&gt;" style="text;strokeColor=none;fillColor=none;align=left;verticalAlign=middle;spacingLeft=4;spacingRight=4;overflow=hidden;rotatable=0;points=[[0,0.5],[1,0.5]];portConstraint=eastwest;whiteSpace=wrap;html=1;fontSize=12;fontStyle=0" parent="VwFVLo1W44RPXp0Loa5u-9" vertex="1">
          <mxGeometry y="112" width="365" height="22" as="geometry" />
        </mxCell>
        <mxCell id="VwFVLo1W44RPXp0Loa5u-26" value="ReportGeneratorInEnglish" style="swimlane;fontStyle=3;align=center;verticalAlign=middle;childLayout=stackLayout;horizontal=1;startSize=26;horizontalStack=0;resizeParent=1;resizeParentMax=0;resizeLast=0;collapsible=1;marginBottom=0;whiteSpace=wrap;html=1;fontSize=14;fillColor=#f8cecc;strokeColor=#b85450;" parent="1" vertex="1">
          <mxGeometry x="1823.5" y="285" width="365" height="144" as="geometry">
            <mxRectangle x="561" y="253" width="195" height="29" as="alternateBounds" />
          </mxGeometry>
        </mxCell>
        <mxCell id="VwFVLo1W44RPXp0Loa5u-28" value="" style="line;strokeWidth=1;fillColor=none;align=left;verticalAlign=top;spacingTop=-1;spacingLeft=3;spacingRight=3;rotatable=0;labelPosition=right;points=[];portConstraint=eastwest;strokeColor=inherit;fontSize=16;" parent="VwFVLo1W44RPXp0Loa5u-26" vertex="1">
          <mxGeometry y="26" width="365" height="8" as="geometry" />
        </mxCell>
        <mxCell id="VwFVLo1W44RPXp0Loa5u-66" value="&lt;b style=&quot;font-size: 12px;&quot;&gt;+ ReportGeneratorInEnglish(&lt;/b&gt;&lt;b style=&quot;font-size: 12px;&quot;&gt;)&lt;/b&gt;" style="text;strokeColor=none;fillColor=none;align=left;verticalAlign=middle;spacingLeft=4;spacingRight=4;overflow=hidden;rotatable=0;points=[[0,0.5],[1,0.5]];portConstraint=eastwest;whiteSpace=wrap;html=1;fontSize=12;fontFamily=Helvetica;fontColor=default;" parent="VwFVLo1W44RPXp0Loa5u-26" vertex="1">
          <mxGeometry y="34" width="365" height="22" as="geometry" />
        </mxCell>
        <mxCell id="VwFVLo1W44RPXp0Loa5u-62" value="&lt;b&gt;@&lt;/b&gt;+ generateDoctorReport(&lt;font style=&quot;font-size: 10px;&quot;&gt;doctor: Doctor&lt;/font&gt;): &lt;font style=&quot;font-size: 10px;&quot;&gt;void&lt;/font&gt;" style="text;strokeColor=none;fillColor=none;align=left;verticalAlign=middle;spacingLeft=4;spacingRight=4;overflow=hidden;rotatable=0;points=[[0,0.5],[1,0.5]];portConstraint=eastwest;whiteSpace=wrap;html=1;fontSize=12;fontStyle=0" parent="VwFVLo1W44RPXp0Loa5u-26" vertex="1">
          <mxGeometry y="56" width="365" height="22" as="geometry" />
        </mxCell>
        <mxCell id="VwFVLo1W44RPXp0Loa5u-63" value="&lt;b style=&quot;border-color: var(--border-color);&quot;&gt;@&lt;/b&gt;+ generateDoctorsReport(&lt;font style=&quot;font-size: 10px;&quot;&gt;reportTitle: String, doctors: Doctor[]&lt;/font&gt;): &lt;font style=&quot;font-size: 10px;&quot;&gt;void&lt;/font&gt;" style="text;strokeColor=none;fillColor=none;align=left;verticalAlign=middle;spacingLeft=4;spacingRight=4;overflow=hidden;rotatable=0;points=[[0,0.5],[1,0.5]];portConstraint=eastwest;whiteSpace=wrap;html=1;fontSize=12;fontStyle=0" parent="VwFVLo1W44RPXp0Loa5u-26" vertex="1">
          <mxGeometry y="78" width="365" height="22" as="geometry" />
        </mxCell>
        <mxCell id="VwFVLo1W44RPXp0Loa5u-64" value="&lt;b style=&quot;border-color: var(--border-color);&quot;&gt;@&lt;/b&gt;+ generatePatientReport(&lt;font style=&quot;font-size: 10px;&quot;&gt;patient: Patient&lt;/font&gt;): &lt;font style=&quot;font-size: 10px;&quot;&gt;void&lt;/font&gt;" style="text;strokeColor=none;fillColor=none;align=left;verticalAlign=middle;spacingLeft=4;spacingRight=4;overflow=hidden;rotatable=0;points=[[0,0.5],[1,0.5]];portConstraint=eastwest;whiteSpace=wrap;html=1;fontSize=12;fontStyle=0" parent="VwFVLo1W44RPXp0Loa5u-26" vertex="1">
          <mxGeometry y="100" width="365" height="22" as="geometry" />
        </mxCell>
        <mxCell id="VwFVLo1W44RPXp0Loa5u-65" value="&lt;b style=&quot;border-color: var(--border-color);&quot;&gt;@&lt;/b&gt;+ generatePatientsReport(&lt;font style=&quot;font-size: 10px;&quot;&gt;reportTitle: String, patients: Patient[]&lt;/font&gt;): &lt;font style=&quot;font-size: 10px;&quot;&gt;void&lt;/font&gt;" style="text;strokeColor=none;fillColor=none;align=left;verticalAlign=middle;spacingLeft=4;spacingRight=4;overflow=hidden;rotatable=0;points=[[0,0.5],[1,0.5]];portConstraint=eastwest;whiteSpace=wrap;html=1;fontSize=12;fontStyle=0" parent="VwFVLo1W44RPXp0Loa5u-26" vertex="1">
          <mxGeometry y="122" width="365" height="22" as="geometry" />
        </mxCell>
        <mxCell id="mFYp5i1Flnggu8tVTRYL-10" style="edgeStyle=none;curved=1;rounded=0;orthogonalLoop=1;jettySize=auto;html=1;dashed=1;labelBackgroundColor=default;strokeColor=#82b366;fontFamily=Helvetica;fontSize=12;fontColor=default;endArrow=none;endFill=0;strokeWidth=2;dashPattern=1 1;endSize=6;fillColor=#d5e8d4;" parent="1" source="VwFVLo1W44RPXp0Loa5u-36" edge="1">
          <mxGeometry relative="1" as="geometry">
            <mxPoint x="1411" y="1333.4457044697783" as="targetPoint" />
          </mxGeometry>
        </mxCell>
        <mxCell id="VwFVLo1W44RPXp0Loa5u-36" value="&lt;p style=&quot;line-height: 180%; font-size: 14px;&quot;&gt;&lt;/p&gt;&lt;span style=&quot;background-color: initial;&quot;&gt;In &lt;font color=&quot;#1e764d&quot;&gt;GREEN&lt;/font&gt;... the artefacts of v2 version.&lt;/span&gt;&lt;br&gt;&lt;p style=&quot;font-size: 14px;&quot;&gt;&lt;/p&gt;" style="shape=note;whiteSpace=wrap;html=1;backgroundOutline=1;darkOpacity=0.05;fontFamily=Helvetica;fontSize=14;align=center;spacing=12;size=19;spacingLeft=0;strokeWidth=1;shadow=1;fontStyle=1" parent="1" vertex="1">
          <mxGeometry x="1447" y="1413" width="209" height="162" as="geometry" />
        </mxCell>
        <mxCell id="VwFVLo1W44RPXp0Loa5u-37" value="MedicalAppointment" style="swimlane;fontStyle=1;align=center;verticalAlign=middle;childLayout=stackLayout;horizontal=1;startSize=26;horizontalStack=0;resizeParent=1;resizeParentMax=0;resizeLast=0;collapsible=1;marginBottom=0;whiteSpace=wrap;html=1;fontSize=14;fillColor=#dae8fc;strokeColor=#6c8ebf;" parent="1" vertex="1">
          <mxGeometry x="1068" y="1016" width="319" height="560" as="geometry">
            <mxRectangle x="561" y="253" width="195" height="29" as="alternateBounds" />
          </mxGeometry>
        </mxCell>
        <mxCell id="VwFVLo1W44RPXp0Loa5u-38" value="- &lt;u&gt;createdAt: Instant&lt;/u&gt;" style="text;strokeColor=none;fillColor=none;align=left;verticalAlign=middle;spacingLeft=4;spacingRight=4;overflow=hidden;rotatable=0;points=[[0,0.5],[1,0.5]];portConstraint=eastwest;whiteSpace=wrap;html=1;fontSize=12;fontFamily=Helvetica;fontColor=default;" parent="VwFVLo1W44RPXp0Loa5u-37" vertex="1">
          <mxGeometry y="26" width="319" height="22" as="geometry" />
        </mxCell>
        <mxCell id="VwFVLo1W44RPXp0Loa5u-40" value="- subject: String" style="text;strokeColor=none;fillColor=none;align=left;verticalAlign=middle;spacingLeft=4;spacingRight=4;overflow=hidden;rotatable=0;points=[[0,0.5],[1,0.5]];portConstraint=eastwest;whiteSpace=wrap;html=1;fontSize=12;fontFamily=Helvetica;fontColor=default;" parent="VwFVLo1W44RPXp0Loa5u-37" vertex="1">
          <mxGeometry y="48" width="319" height="22" as="geometry" />
        </mxCell>
        <mxCell id="VwFVLo1W44RPXp0Loa5u-39" value="- &lt;span&gt;appointmentDate: LocalDateTime&lt;/span&gt;" style="text;strokeColor=none;fillColor=none;align=left;verticalAlign=middle;spacingLeft=4;spacingRight=4;overflow=hidden;rotatable=0;points=[[0,0.5],[1,0.5]];portConstraint=eastwest;whiteSpace=wrap;html=1;fontSize=12;fontFamily=Helvetica;fontColor=default;fontStyle=0" parent="VwFVLo1W44RPXp0Loa5u-37" vertex="1">
          <mxGeometry y="70" width="319" height="22" as="geometry" />
        </mxCell>
        <mxCell id="VwFVLo1W44RPXp0Loa5u-42" value="- &lt;u&gt;patient: Patient&lt;/u&gt;" style="text;strokeColor=none;fillColor=none;align=left;verticalAlign=middle;spacingLeft=4;spacingRight=4;overflow=hidden;rotatable=0;points=[[0,0.5],[1,0.5]];portConstraint=eastwest;whiteSpace=wrap;html=1;fontSize=12;fontFamily=Helvetica;fontColor=default;" parent="VwFVLo1W44RPXp0Loa5u-37" vertex="1">
          <mxGeometry y="92" width="319" height="22" as="geometry" />
        </mxCell>
        <mxCell id="VwFVLo1W44RPXp0Loa5u-43" value="-&amp;nbsp;&lt;u&gt;by: MedicalCenterEmployee&lt;/u&gt;" style="text;strokeColor=none;fillColor=none;align=left;verticalAlign=middle;spacingLeft=4;spacingRight=4;overflow=hidden;rotatable=0;points=[[0,0.5],[1,0.5]];portConstraint=eastwest;whiteSpace=wrap;html=1;fontSize=12;fontFamily=Helvetica;fontColor=default;" parent="VwFVLo1W44RPXp0Loa5u-37" vertex="1">
          <mxGeometry y="114" width="319" height="22" as="geometry" />
        </mxCell>
        <mxCell id="VwFVLo1W44RPXp0Loa5u-44" value="- &lt;u&gt;fromCenter: MedicalCenter&lt;/u&gt;" style="text;strokeColor=none;fillColor=none;align=left;verticalAlign=middle;spacingLeft=4;spacingRight=4;overflow=hidden;rotatable=0;points=[[0,0.5],[1,0.5]];portConstraint=eastwest;whiteSpace=wrap;html=1;fontSize=12;fontFamily=Helvetica;fontColor=default;" parent="VwFVLo1W44RPXp0Loa5u-37" vertex="1">
          <mxGeometry y="136" width="319" height="22" as="geometry" />
        </mxCell>
        <mxCell id="VwFVLo1W44RPXp0Loa5u-45" value="-&amp;nbsp;&lt;u&gt;to: MedicalCenterEmployee&lt;/u&gt;" style="text;strokeColor=none;fillColor=none;align=left;verticalAlign=middle;spacingLeft=4;spacingRight=4;overflow=hidden;rotatable=0;points=[[0,0.5],[1,0.5]];portConstraint=eastwest;whiteSpace=wrap;html=1;fontSize=12;fontFamily=Helvetica;fontColor=default;" parent="VwFVLo1W44RPXp0Loa5u-37" vertex="1">
          <mxGeometry y="158" width="319" height="22" as="geometry" />
        </mxCell>
        <mxCell id="VwFVLo1W44RPXp0Loa5u-46" value="- &lt;u&gt;toCenter: MedicalCenter&lt;/u&gt;" style="text;strokeColor=none;fillColor=none;align=left;verticalAlign=middle;spacingLeft=4;spacingRight=4;overflow=hidden;rotatable=0;points=[[0,0.5],[1,0.5]];portConstraint=eastwest;whiteSpace=wrap;html=1;fontSize=12;fontFamily=Helvetica;fontColor=default;" parent="VwFVLo1W44RPXp0Loa5u-37" vertex="1">
          <mxGeometry y="180" width="319" height="22" as="geometry" />
        </mxCell>
        <mxCell id="VwFVLo1W44RPXp0Loa5u-41" value="- &lt;u&gt;notes: String[]&lt;/u&gt;" style="text;strokeColor=none;fillColor=none;align=left;verticalAlign=middle;spacingLeft=4;spacingRight=4;overflow=hidden;rotatable=0;points=[[0,0.5],[1,0.5]];portConstraint=eastwest;whiteSpace=wrap;html=1;fontSize=12;fontFamily=Helvetica;fontColor=default;" parent="VwFVLo1W44RPXp0Loa5u-37" vertex="1">
          <mxGeometry y="202" width="319" height="22" as="geometry" />
        </mxCell>
        <mxCell id="VwFVLo1W44RPXp0Loa5u-47" value="" style="line;strokeWidth=1;fillColor=none;align=left;verticalAlign=top;spacingTop=-1;spacingLeft=3;spacingRight=3;rotatable=0;labelPosition=right;points=[];portConstraint=eastwest;strokeColor=inherit;fontSize=16;" parent="VwFVLo1W44RPXp0Loa5u-37" vertex="1">
          <mxGeometry y="224" width="319" height="8" as="geometry" />
        </mxCell>
        <mxCell id="VwFVLo1W44RPXp0Loa5u-48" value="&lt;b style=&quot;font-size: 12px;&quot;&gt;&amp;nbsp; &amp;nbsp;MedicalAppointment(&lt;/b&gt;&lt;font style=&quot;font-size: 10px;&quot;&gt;patient: Patient&lt;br&gt;&amp;nbsp; &amp;nbsp; &amp;nbsp; &amp;nbsp; &amp;nbsp;by: MedicalCenterEmployee, toCenter: MedicalCenter&lt;/font&gt;&lt;b style=&quot;font-size: 12px;&quot;&gt;)&lt;/b&gt;" style="text;strokeColor=none;fillColor=none;align=left;verticalAlign=middle;spacingLeft=4;spacingRight=4;overflow=hidden;rotatable=0;points=[[0,0.5],[1,0.5]];portConstraint=eastwest;whiteSpace=wrap;html=1;fontSize=12;spacing=2;spacingBottom=0;" parent="VwFVLo1W44RPXp0Loa5u-37" vertex="1">
          <mxGeometry y="232" width="319" height="32" as="geometry" />
        </mxCell>
        <mxCell id="VwFVLo1W44RPXp0Loa5u-49" value="&lt;b style=&quot;font-size: 12px;&quot;&gt;&amp;nbsp; &amp;nbsp;MedicalAppointment(&lt;/b&gt;&lt;font style=&quot;font-size: 10px;&quot;&gt;patient: Patient&lt;br&gt;&amp;nbsp; &amp;nbsp; &amp;nbsp; &amp;nbsp; &amp;nbsp;by: MedicalCenterEmployee, to: MedicalCenterEmployee&lt;/font&gt;&lt;b style=&quot;font-size: 12px;&quot;&gt;)&lt;/b&gt;" style="text;strokeColor=none;fillColor=none;align=left;verticalAlign=middle;spacingLeft=4;spacingRight=4;overflow=hidden;rotatable=0;points=[[0,0.5],[1,0.5]];portConstraint=eastwest;whiteSpace=wrap;html=1;fontSize=12;spacing=2;spacingBottom=0;" parent="VwFVLo1W44RPXp0Loa5u-37" vertex="1">
          <mxGeometry y="264" width="319" height="32" as="geometry" />
        </mxCell>
        <mxCell id="VwFVLo1W44RPXp0Loa5u-59" value="&lt;font style=&quot;font-size: 12px;&quot;&gt;&lt;font style=&quot;font-size: 12px;&quot;&gt;&lt;font style=&quot;font-size: 12px;&quot;&gt;+ getCreatedAt&lt;/font&gt;(&lt;/font&gt;&lt;font style=&quot;font-size: 12px;&quot;&gt;): Instant&lt;/font&gt;&lt;/font&gt;" style="text;strokeColor=none;fillColor=none;align=left;verticalAlign=middle;spacingLeft=4;spacingRight=4;overflow=hidden;rotatable=0;points=[[0,0.5],[1,0.5]];portConstraint=eastwest;whiteSpace=wrap;html=1;fontSize=12;fontFamily=Helvetica;fontColor=default;" parent="VwFVLo1W44RPXp0Loa5u-37" vertex="1">
          <mxGeometry y="296" width="319" height="22" as="geometry" />
        </mxCell>
        <mxCell id="VwFVLo1W44RPXp0Loa5u-55" value="&lt;font style=&quot;font-size: 12px;&quot;&gt;&lt;font style=&quot;font-size: 12px;&quot;&gt;&lt;font style=&quot;font-size: 12px;&quot;&gt;+ getSubject&lt;/font&gt;(&lt;/font&gt;&lt;font style=&quot;font-size: 12px;&quot;&gt;): String&lt;/font&gt;&lt;/font&gt;" style="text;strokeColor=none;fillColor=none;align=left;verticalAlign=middle;spacingLeft=4;spacingRight=4;overflow=hidden;rotatable=0;points=[[0,0.5],[1,0.5]];portConstraint=eastwest;whiteSpace=wrap;html=1;fontSize=12;fontFamily=Helvetica;fontColor=default;" parent="VwFVLo1W44RPXp0Loa5u-37" vertex="1">
          <mxGeometry y="318" width="319" height="22" as="geometry" />
        </mxCell>
        <mxCell id="VwFVLo1W44RPXp0Loa5u-56" value="&lt;font style=&quot;font-size: 12px;&quot;&gt;&lt;font style=&quot;font-size: 12px;&quot;&gt;&lt;font style=&quot;font-size: 12px;&quot;&gt;# setSubject&lt;/font&gt;(subject: String&lt;/font&gt;&lt;font style=&quot;font-size: 12px;&quot;&gt;): void&lt;/font&gt;&lt;/font&gt;" style="text;strokeColor=none;fillColor=none;align=left;verticalAlign=middle;spacingLeft=4;spacingRight=4;overflow=hidden;rotatable=0;points=[[0,0.5],[1,0.5]];portConstraint=eastwest;whiteSpace=wrap;html=1;fontSize=12;fontFamily=Helvetica;fontColor=default;" parent="VwFVLo1W44RPXp0Loa5u-37" vertex="1">
          <mxGeometry y="340" width="319" height="22" as="geometry" />
        </mxCell>
        <mxCell id="VwFVLo1W44RPXp0Loa5u-60" value="&lt;font style=&quot;font-size: 12px;&quot;&gt;&lt;font style=&quot;font-size: 12px;&quot;&gt;&lt;font style=&quot;font-size: 12px;&quot;&gt;+ getAppointmentDate&lt;/font&gt;(&lt;/font&gt;&lt;font style=&quot;font-size: 12px;&quot;&gt;): LocalDateTime&lt;/font&gt;&lt;/font&gt;" style="text;strokeColor=none;fillColor=none;align=left;verticalAlign=middle;spacingLeft=4;spacingRight=4;overflow=hidden;rotatable=0;points=[[0,0.5],[1,0.5]];portConstraint=eastwest;whiteSpace=wrap;html=1;fontSize=12;fontFamily=Helvetica;fontColor=default;" parent="VwFVLo1W44RPXp0Loa5u-37" vertex="1">
          <mxGeometry y="362" width="319" height="22" as="geometry" />
        </mxCell>
        <mxCell id="VwFVLo1W44RPXp0Loa5u-61" value="&lt;font style=&quot;&quot;&gt;&lt;font style=&quot;&quot;&gt;&lt;font style=&quot;font-size: 12px;&quot;&gt;# setAppointmentDate(&lt;/font&gt;&lt;font style=&quot;font-size: 10px;&quot;&gt;appointmentDate&lt;/font&gt;&lt;span style=&quot;font-size: 10px;&quot;&gt;: LocalDateTime&lt;/span&gt;&lt;/font&gt;&lt;font style=&quot;font-size: 12px;&quot;&gt;): void&lt;/font&gt;&lt;/font&gt;" style="text;strokeColor=none;fillColor=none;align=left;verticalAlign=middle;spacingLeft=4;spacingRight=4;overflow=hidden;rotatable=0;points=[[0,0.5],[1,0.5]];portConstraint=eastwest;whiteSpace=wrap;html=1;fontSize=12;fontFamily=Helvetica;fontColor=default;" parent="VwFVLo1W44RPXp0Loa5u-37" vertex="1">
          <mxGeometry y="384" width="319" height="22" as="geometry" />
        </mxCell>
        <mxCell id="VwFVLo1W44RPXp0Loa5u-50" value="&lt;font style=&quot;font-size: 12px;&quot;&gt;&lt;font style=&quot;font-size: 12px;&quot;&gt;&lt;font style=&quot;font-size: 12px;&quot;&gt;+ getPatient&lt;/font&gt;(&lt;/font&gt;&lt;font style=&quot;font-size: 12px;&quot;&gt;): Patient&lt;/font&gt;&lt;/font&gt;" style="text;strokeColor=none;fillColor=none;align=left;verticalAlign=middle;spacingLeft=4;spacingRight=4;overflow=hidden;rotatable=0;points=[[0,0.5],[1,0.5]];portConstraint=eastwest;whiteSpace=wrap;html=1;fontSize=12;fontFamily=Helvetica;fontColor=default;" parent="VwFVLo1W44RPXp0Loa5u-37" vertex="1">
          <mxGeometry y="406" width="319" height="22" as="geometry" />
        </mxCell>
        <mxCell id="VwFVLo1W44RPXp0Loa5u-52" value="&lt;font style=&quot;font-size: 12px;&quot;&gt;&lt;font style=&quot;font-size: 12px;&quot;&gt;&lt;font style=&quot;font-size: 12px;&quot;&gt;+ getFromCenter&lt;/font&gt;(&lt;/font&gt;&lt;font style=&quot;font-size: 12px;&quot;&gt;): MedicalCenter&lt;/font&gt;&lt;/font&gt;" style="text;strokeColor=none;fillColor=none;align=left;verticalAlign=middle;spacingLeft=4;spacingRight=4;overflow=hidden;rotatable=0;points=[[0,0.5],[1,0.5]];portConstraint=eastwest;whiteSpace=wrap;html=1;fontSize=12;fontFamily=Helvetica;fontColor=default;" parent="VwFVLo1W44RPXp0Loa5u-37" vertex="1">
          <mxGeometry y="428" width="319" height="22" as="geometry" />
        </mxCell>
        <mxCell id="VwFVLo1W44RPXp0Loa5u-51" value="&lt;font style=&quot;font-size: 12px;&quot;&gt;&lt;font style=&quot;font-size: 12px;&quot;&gt;&lt;font style=&quot;font-size: 12px;&quot;&gt;+ getBy&lt;/font&gt;(&lt;/font&gt;&lt;font style=&quot;font-size: 12px;&quot;&gt;): MedicalCenterEmployee&lt;/font&gt;&lt;/font&gt;" style="text;strokeColor=none;fillColor=none;align=left;verticalAlign=middle;spacingLeft=4;spacingRight=4;overflow=hidden;rotatable=0;points=[[0,0.5],[1,0.5]];portConstraint=eastwest;whiteSpace=wrap;html=1;fontSize=12;fontFamily=Helvetica;fontColor=default;" parent="VwFVLo1W44RPXp0Loa5u-37" vertex="1">
          <mxGeometry y="450" width="319" height="22" as="geometry" />
        </mxCell>
        <mxCell id="VwFVLo1W44RPXp0Loa5u-54" value="&lt;font style=&quot;font-size: 12px;&quot;&gt;&lt;font style=&quot;font-size: 12px;&quot;&gt;&lt;font style=&quot;font-size: 12px;&quot;&gt;+ getToCenter&lt;/font&gt;(&lt;/font&gt;&lt;font style=&quot;font-size: 12px;&quot;&gt;): MedicalCenter&lt;/font&gt;&lt;/font&gt;" style="text;strokeColor=none;fillColor=none;align=left;verticalAlign=middle;spacingLeft=4;spacingRight=4;overflow=hidden;rotatable=0;points=[[0,0.5],[1,0.5]];portConstraint=eastwest;whiteSpace=wrap;html=1;fontSize=12;fontFamily=Helvetica;fontColor=default;" parent="VwFVLo1W44RPXp0Loa5u-37" vertex="1">
          <mxGeometry y="472" width="319" height="22" as="geometry" />
        </mxCell>
        <mxCell id="VwFVLo1W44RPXp0Loa5u-53" value="&lt;font style=&quot;font-size: 12px;&quot;&gt;&lt;font style=&quot;font-size: 12px;&quot;&gt;&lt;font style=&quot;font-size: 12px;&quot;&gt;+ getTo&lt;/font&gt;(&lt;/font&gt;&lt;font style=&quot;font-size: 12px;&quot;&gt;): MedicalCenterEmployee&lt;/font&gt;&lt;/font&gt;" style="text;strokeColor=none;fillColor=none;align=left;verticalAlign=middle;spacingLeft=4;spacingRight=4;overflow=hidden;rotatable=0;points=[[0,0.5],[1,0.5]];portConstraint=eastwest;whiteSpace=wrap;html=1;fontSize=12;fontFamily=Helvetica;fontColor=default;" parent="VwFVLo1W44RPXp0Loa5u-37" vertex="1">
          <mxGeometry y="494" width="319" height="22" as="geometry" />
        </mxCell>
        <mxCell id="VwFVLo1W44RPXp0Loa5u-57" value="&lt;font style=&quot;font-size: 12px;&quot;&gt;&lt;font style=&quot;font-size: 12px;&quot;&gt;&lt;font style=&quot;font-size: 12px;&quot;&gt;+ getNotes&lt;/font&gt;(&lt;/font&gt;&lt;font style=&quot;font-size: 12px;&quot;&gt;): String[]&lt;/font&gt;&lt;/font&gt;" style="text;strokeColor=none;fillColor=none;align=left;verticalAlign=middle;spacingLeft=4;spacingRight=4;overflow=hidden;rotatable=0;points=[[0,0.5],[1,0.5]];portConstraint=eastwest;whiteSpace=wrap;html=1;fontSize=12;fontFamily=Helvetica;fontColor=default;" parent="VwFVLo1W44RPXp0Loa5u-37" vertex="1">
          <mxGeometry y="516" width="319" height="22" as="geometry" />
        </mxCell>
        <mxCell id="VwFVLo1W44RPXp0Loa5u-58" value="&lt;font style=&quot;font-size: 12px;&quot;&gt;&lt;font style=&quot;font-size: 12px;&quot;&gt;&lt;font style=&quot;font-size: 12px;&quot;&gt;# addNote&lt;/font&gt;(note: String&lt;/font&gt;&lt;font style=&quot;font-size: 12px;&quot;&gt;): boolean&lt;/font&gt;&lt;/font&gt;" style="text;strokeColor=none;fillColor=none;align=left;verticalAlign=middle;spacingLeft=4;spacingRight=4;overflow=hidden;rotatable=0;points=[[0,0.5],[1,0.5]];portConstraint=eastwest;whiteSpace=wrap;html=1;fontSize=12;fontFamily=Helvetica;fontColor=default;" parent="VwFVLo1W44RPXp0Loa5u-37" vertex="1">
          <mxGeometry y="538" width="319" height="22" as="geometry" />
        </mxCell>
        <mxCell id="VwFVLo1W44RPXp0Loa5u-67" value="ReportGeneratorInSpanish" style="swimlane;fontStyle=3;align=center;verticalAlign=middle;childLayout=stackLayout;horizontal=1;startSize=26;horizontalStack=0;resizeParent=1;resizeParentMax=0;resizeLast=0;collapsible=1;marginBottom=0;whiteSpace=wrap;html=1;fontSize=14;fillColor=#f8cecc;strokeColor=#b85450;" parent="1" vertex="1">
          <mxGeometry x="1823.5" y="438" width="365" height="144" as="geometry">
            <mxRectangle x="561" y="253" width="195" height="29" as="alternateBounds" />
          </mxGeometry>
        </mxCell>
        <mxCell id="VwFVLo1W44RPXp0Loa5u-68" value="" style="line;strokeWidth=1;fillColor=none;align=left;verticalAlign=top;spacingTop=-1;spacingLeft=3;spacingRight=3;rotatable=0;labelPosition=right;points=[];portConstraint=eastwest;strokeColor=inherit;fontSize=16;" parent="VwFVLo1W44RPXp0Loa5u-67" vertex="1">
          <mxGeometry y="26" width="365" height="8" as="geometry" />
        </mxCell>
        <mxCell id="VwFVLo1W44RPXp0Loa5u-69" value="&lt;b style=&quot;font-size: 12px;&quot;&gt;+ ReportGeneratorInSpanish(&lt;/b&gt;&lt;b style=&quot;font-size: 12px;&quot;&gt;)&lt;/b&gt;" style="text;strokeColor=none;fillColor=none;align=left;verticalAlign=middle;spacingLeft=4;spacingRight=4;overflow=hidden;rotatable=0;points=[[0,0.5],[1,0.5]];portConstraint=eastwest;whiteSpace=wrap;html=1;fontSize=12;fontFamily=Helvetica;fontColor=default;" parent="VwFVLo1W44RPXp0Loa5u-67" vertex="1">
          <mxGeometry y="34" width="365" height="22" as="geometry" />
        </mxCell>
        <mxCell id="VwFVLo1W44RPXp0Loa5u-70" value="&lt;b style=&quot;border-color: var(--border-color);&quot;&gt;@&lt;/b&gt;+ generateDoctorReport(&lt;font style=&quot;font-size: 10px;&quot;&gt;doctor: Doctor&lt;/font&gt;): &lt;font style=&quot;font-size: 10px;&quot;&gt;void&lt;/font&gt;" style="text;strokeColor=none;fillColor=none;align=left;verticalAlign=middle;spacingLeft=4;spacingRight=4;overflow=hidden;rotatable=0;points=[[0,0.5],[1,0.5]];portConstraint=eastwest;whiteSpace=wrap;html=1;fontSize=12;fontStyle=0" parent="VwFVLo1W44RPXp0Loa5u-67" vertex="1">
          <mxGeometry y="56" width="365" height="22" as="geometry" />
        </mxCell>
        <mxCell id="VwFVLo1W44RPXp0Loa5u-73" value="&lt;b style=&quot;border-color: var(--border-color);&quot;&gt;@&lt;/b&gt;+ generateDoctorsReport(&lt;font style=&quot;font-size: 10px;&quot;&gt;reportTitle: String, doctors: Doctor[]&lt;/font&gt;): &lt;font style=&quot;font-size: 10px;&quot;&gt;void&lt;/font&gt;" style="text;strokeColor=none;fillColor=none;align=left;verticalAlign=middle;spacingLeft=4;spacingRight=4;overflow=hidden;rotatable=0;points=[[0,0.5],[1,0.5]];portConstraint=eastwest;whiteSpace=wrap;html=1;fontSize=12;fontStyle=0" parent="VwFVLo1W44RPXp0Loa5u-67" vertex="1">
          <mxGeometry y="78" width="365" height="22" as="geometry" />
        </mxCell>
        <mxCell id="VwFVLo1W44RPXp0Loa5u-72" value="&lt;b style=&quot;border-color: var(--border-color);&quot;&gt;@&lt;/b&gt;+ generatePatientReport(&lt;font style=&quot;font-size: 10px;&quot;&gt;patient: Patient&lt;/font&gt;): &lt;font style=&quot;font-size: 10px;&quot;&gt;void&lt;/font&gt;" style="text;strokeColor=none;fillColor=none;align=left;verticalAlign=middle;spacingLeft=4;spacingRight=4;overflow=hidden;rotatable=0;points=[[0,0.5],[1,0.5]];portConstraint=eastwest;whiteSpace=wrap;html=1;fontSize=12;fontStyle=0" parent="VwFVLo1W44RPXp0Loa5u-67" vertex="1">
          <mxGeometry y="100" width="365" height="22" as="geometry" />
        </mxCell>
        <mxCell id="VwFVLo1W44RPXp0Loa5u-71" value="&lt;b style=&quot;border-color: var(--border-color);&quot;&gt;@&lt;/b&gt;+ generatePatientsReport(&lt;font style=&quot;font-size: 10px;&quot;&gt;reportTitle: String, patients: Patient[]&lt;/font&gt;): &lt;font style=&quot;font-size: 10px;&quot;&gt;void&lt;/font&gt;" style="text;strokeColor=none;fillColor=none;align=left;verticalAlign=middle;spacingLeft=4;spacingRight=4;overflow=hidden;rotatable=0;points=[[0,0.5],[1,0.5]];portConstraint=eastwest;whiteSpace=wrap;html=1;fontSize=12;fontStyle=0" parent="VwFVLo1W44RPXp0Loa5u-67" vertex="1">
          <mxGeometry y="122" width="365" height="22" as="geometry" />
        </mxCell>
        <mxCell id="VwFVLo1W44RPXp0Loa5u-74" value="" style="endArrow=block;dashed=1;endFill=0;endSize=10;html=1;rounded=0;fontFamily=Helvetica;fontSize=12;fontColor=default;labelBackgroundColor=default;strokeColor=default;shape=connector;edgeStyle=orthogonalEdgeStyle;" parent="1" source="VwFVLo1W44RPXp0Loa5u-26" target="VwFVLo1W44RPXp0Loa5u-9" edge="1">
          <mxGeometry width="160" relative="1" as="geometry">
            <mxPoint x="2010" y="520" as="sourcePoint" />
            <mxPoint x="2170" y="520" as="targetPoint" />
            <Array as="points">
              <mxPoint x="1792" y="304" />
              <mxPoint x="1792" y="169" />
            </Array>
          </mxGeometry>
        </mxCell>
        <mxCell id="VwFVLo1W44RPXp0Loa5u-75" value="" style="endArrow=block;dashed=1;endFill=0;endSize=10;html=1;rounded=0;fontFamily=Helvetica;fontSize=12;fontColor=default;labelBackgroundColor=default;strokeColor=default;shape=connector;edgeStyle=orthogonalEdgeStyle;" parent="1" source="VwFVLo1W44RPXp0Loa5u-67" target="VwFVLo1W44RPXp0Loa5u-9" edge="1">
          <mxGeometry width="160" relative="1" as="geometry">
            <mxPoint x="1978" y="390" as="sourcePoint" />
            <mxPoint x="1978" y="305" as="targetPoint" />
            <Array as="points">
              <mxPoint x="2235" y="451" />
              <mxPoint x="2235" y="149" />
            </Array>
          </mxGeometry>
        </mxCell>
        <mxCell id="mFYp5i1Flnggu8tVTRYL-1" value="&lt;i&gt;&amp;lt;&amp;lt;Interface&amp;gt;&amp;gt;&lt;br&gt;&lt;/i&gt;&lt;b&gt;&lt;font style=&quot;font-size: 14px;&quot;&gt;Database&lt;/font&gt;&lt;/b&gt;" style="swimlane;fontStyle=0;align=center;verticalAlign=middle;childLayout=stackLayout;horizontal=1;startSize=38;horizontalStack=0;resizeParent=1;resizeParentMax=0;resizeLast=0;collapsible=0;marginBottom=0;html=1;whiteSpace=wrap;fontFamily=Helvetica;fontSize=12;fillColor=#e1d5e7;strokeColor=#9673a6;" parent="1" vertex="1">
          <mxGeometry x="1784" y="777" width="433" height="354" as="geometry" />
        </mxCell>
        <mxCell id="mFYp5i1Flnggu8tVTRYL-2" value="" style="line;strokeWidth=1;fillColor=#e1d5e7;align=left;verticalAlign=middle;spacingTop=-1;spacingLeft=3;spacingRight=3;rotatable=0;labelPosition=right;points=[];portConstraint=eastwest;fontFamily=Helvetica;fontSize=12;html=1;strokeColor=#9673a6;" parent="mFYp5i1Flnggu8tVTRYL-1" vertex="1">
          <mxGeometry y="38" width="433" height="8" as="geometry" />
        </mxCell>
        <mxCell id="mFYp5i1Flnggu8tVTRYL-3" value="+ findMedicalCenter(&lt;font style=&quot;font-size: 10px;&quot;&gt;code: String&lt;/font&gt;)&lt;font style=&quot;font-size: 12px;&quot;&gt;: &lt;font style=&quot;font-size: 12px;&quot;&gt;Optional&amp;lt;MedicalCenter&amp;gt;&lt;/font&gt;&lt;/font&gt;" style="text;strokeColor=none;fillColor=none;align=left;verticalAlign=middle;spacingLeft=4;spacingRight=4;overflow=hidden;rotatable=0;points=[[0,0.5],[1,0.5]];portConstraint=eastwest;whiteSpace=wrap;html=1;fontSize=12;fontStyle=0" parent="mFYp5i1Flnggu8tVTRYL-1" vertex="1">
          <mxGeometry y="46" width="433" height="22" as="geometry" />
        </mxCell>
        <mxCell id="JaPePX_1LT8RlTslirHy-24" value="+ findDoctor(&lt;font style=&quot;font-size: 10px;&quot;&gt;nid: String&lt;/font&gt;)&lt;font style=&quot;font-size: 12px;&quot;&gt;: &lt;font style=&quot;font-size: 12px;&quot;&gt;Optional&amp;lt;Doctor&amp;gt;&lt;/font&gt;&lt;/font&gt;" style="text;strokeColor=none;fillColor=none;align=left;verticalAlign=middle;spacingLeft=4;spacingRight=4;overflow=hidden;rotatable=0;points=[[0,0.5],[1,0.5]];portConstraint=eastwest;whiteSpace=wrap;html=1;fontSize=12;fontStyle=0" parent="mFYp5i1Flnggu8tVTRYL-1" vertex="1">
          <mxGeometry y="68" width="433" height="22" as="geometry" />
        </mxCell>
        <mxCell id="mFYp5i1Flnggu8tVTRYL-7" value="+ findPatient(&lt;font style=&quot;font-size: 10px;&quot;&gt;nid: String&lt;/font&gt;)&lt;font style=&quot;font-size: 12px;&quot;&gt;: &lt;font style=&quot;font-size: 12px;&quot;&gt;Optional&amp;lt;Patient&amp;gt;&lt;/font&gt;&lt;/font&gt;" style="text;strokeColor=none;fillColor=none;align=left;verticalAlign=middle;spacingLeft=4;spacingRight=4;overflow=hidden;rotatable=0;points=[[0,0.5],[1,0.5]];portConstraint=eastwest;whiteSpace=wrap;html=1;fontSize=12;fontStyle=0" parent="mFYp5i1Flnggu8tVTRYL-1" vertex="1">
          <mxGeometry y="90" width="433" height="22" as="geometry" />
        </mxCell>
        <mxCell id="Ns5ZZZsFx_izSCVhpyIt-22" value="+ listAllMedicalCenters(): MedicalCenter[]" style="text;strokeColor=none;fillColor=none;align=left;verticalAlign=middle;spacingLeft=4;spacingRight=4;overflow=hidden;rotatable=0;points=[[0,0.5],[1,0.5]];portConstraint=eastwest;whiteSpace=wrap;html=1;fontSize=12;" parent="mFYp5i1Flnggu8tVTRYL-1" vertex="1">
          <mxGeometry y="112" width="433" height="22" as="geometry" />
        </mxCell>
        <mxCell id="Ns5ZZZsFx_izSCVhpyIt-3" value="+ listAllDoctors(): Doctor[]" style="text;strokeColor=none;fillColor=none;align=left;verticalAlign=middle;spacingLeft=4;spacingRight=4;overflow=hidden;rotatable=0;points=[[0,0.5],[1,0.5]];portConstraint=eastwest;whiteSpace=wrap;html=1;fontSize=12;" parent="mFYp5i1Flnggu8tVTRYL-1" vertex="1">
          <mxGeometry y="134" width="433" height="22" as="geometry" />
        </mxCell>
        <mxCell id="Ns5ZZZsFx_izSCVhpyIt-4" value="+ listAllDoctorsByMedicalService(&lt;font style=&quot;font-size: 10px;&quot;&gt;Class&amp;lt;MedicalService&amp;gt; type&lt;/font&gt;): Doctor[]" style="text;strokeColor=none;fillColor=none;align=left;verticalAlign=middle;spacingLeft=4;spacingRight=4;overflow=hidden;rotatable=0;points=[[0,0.5],[1,0.5]];portConstraint=eastwest;whiteSpace=wrap;html=1;fontSize=12;" parent="mFYp5i1Flnggu8tVTRYL-1" vertex="1">
          <mxGeometry y="156" width="433" height="22" as="geometry" />
        </mxCell>
        <mxCell id="Ns5ZZZsFx_izSCVhpyIt-6" value="+ listAllGeneralisticDoctors(): Doctor[]" style="text;strokeColor=none;fillColor=none;align=left;verticalAlign=middle;spacingLeft=4;spacingRight=4;overflow=hidden;rotatable=0;points=[[0,0.5],[1,0.5]];portConstraint=eastwest;whiteSpace=wrap;html=1;fontSize=12;" parent="mFYp5i1Flnggu8tVTRYL-1" vertex="1">
          <mxGeometry y="178" width="433" height="22" as="geometry" />
        </mxCell>
        <mxCell id="Ns5ZZZsFx_izSCVhpyIt-5" value="+ listAllDoctorsBySpeciality(&lt;font style=&quot;font-size: 10px;&quot;&gt;Class&amp;lt;MedicalService&amp;gt; type&lt;/font&gt;): Doctor[]" style="text;strokeColor=none;fillColor=none;align=left;verticalAlign=middle;spacingLeft=4;spacingRight=4;overflow=hidden;rotatable=0;points=[[0,0.5],[1,0.5]];portConstraint=eastwest;whiteSpace=wrap;html=1;fontSize=12;" parent="mFYp5i1Flnggu8tVTRYL-1" vertex="1">
          <mxGeometry y="200" width="433" height="22" as="geometry" />
        </mxCell>
        <mxCell id="Ns5ZZZsFx_izSCVhpyIt-10" value="+ listAllPatients(): Patient[]" style="text;strokeColor=none;fillColor=none;align=left;verticalAlign=middle;spacingLeft=4;spacingRight=4;overflow=hidden;rotatable=0;points=[[0,0.5],[1,0.5]];portConstraint=eastwest;whiteSpace=wrap;html=1;fontSize=12;" parent="mFYp5i1Flnggu8tVTRYL-1" vertex="1">
          <mxGeometry y="222" width="433" height="22" as="geometry" />
        </mxCell>
        <mxCell id="Ns5ZZZsFx_izSCVhpyIt-9" value="+ listAllPatientsByBloodType(&lt;font style=&quot;font-size: 10px;&quot;&gt;bloodType: BloodType&lt;/font&gt;): Patient[]" style="text;strokeColor=none;fillColor=none;align=left;verticalAlign=middle;spacingLeft=4;spacingRight=4;overflow=hidden;rotatable=0;points=[[0,0.5],[1,0.5]];portConstraint=eastwest;whiteSpace=wrap;html=1;fontSize=12;" parent="mFYp5i1Flnggu8tVTRYL-1" vertex="1">
          <mxGeometry y="244" width="433" height="22" as="geometry" />
        </mxCell>
        <mxCell id="Ns5ZZZsFx_izSCVhpyIt-8" value="+ listAllPatientsByAgeRange(&lt;font style=&quot;font-size: 10px;&quot;&gt;start: int, end: int&lt;/font&gt;): Patient[]" style="text;strokeColor=none;fillColor=none;align=left;verticalAlign=middle;spacingLeft=4;spacingRight=4;overflow=hidden;rotatable=0;points=[[0,0.5],[1,0.5]];portConstraint=eastwest;whiteSpace=wrap;html=1;fontSize=12;" parent="mFYp5i1Flnggu8tVTRYL-1" vertex="1">
          <mxGeometry y="266" width="433" height="22" as="geometry" />
        </mxCell>
        <mxCell id="Ns5ZZZsFx_izSCVhpyIt-23" value="+ save(&lt;font style=&quot;font-size: 10px;&quot;&gt;medicalCenter: MedicalCenter&lt;/font&gt;)&lt;font style=&quot;font-size: 12px;&quot;&gt;: &lt;font style=&quot;font-size: 12px;&quot;&gt;MedicalCenter&lt;/font&gt;&lt;/font&gt;" style="text;strokeColor=none;fillColor=none;align=left;verticalAlign=middle;spacingLeft=4;spacingRight=4;overflow=hidden;rotatable=0;points=[[0,0.5],[1,0.5]];portConstraint=eastwest;whiteSpace=wrap;html=1;fontSize=12;fontStyle=0" parent="mFYp5i1Flnggu8tVTRYL-1" vertex="1">
          <mxGeometry y="288" width="433" height="22" as="geometry" />
        </mxCell>
        <mxCell id="Ns5ZZZsFx_izSCVhpyIt-24" value="+ save(&lt;font style=&quot;font-size: 10px;&quot;&gt;doctor: Doctor&lt;/font&gt;)&lt;font style=&quot;font-size: 12px;&quot;&gt;: Doctor&lt;/font&gt;" style="text;strokeColor=none;fillColor=none;align=left;verticalAlign=middle;spacingLeft=4;spacingRight=4;overflow=hidden;rotatable=0;points=[[0,0.5],[1,0.5]];portConstraint=eastwest;whiteSpace=wrap;html=1;fontSize=12;fontStyle=0" parent="mFYp5i1Flnggu8tVTRYL-1" vertex="1">
          <mxGeometry y="310" width="433" height="22" as="geometry" />
        </mxCell>
        <mxCell id="Ns5ZZZsFx_izSCVhpyIt-25" value="+ save(&lt;font style=&quot;font-size: 10px;&quot;&gt;patient: Patient&lt;/font&gt;)&lt;font style=&quot;font-size: 12px;&quot;&gt;: Patient&lt;/font&gt;" style="text;strokeColor=none;fillColor=none;align=left;verticalAlign=middle;spacingLeft=4;spacingRight=4;overflow=hidden;rotatable=0;points=[[0,0.5],[1,0.5]];portConstraint=eastwest;whiteSpace=wrap;html=1;fontSize=12;fontStyle=0" parent="mFYp5i1Flnggu8tVTRYL-1" vertex="1">
          <mxGeometry y="332" width="433" height="22" as="geometry" />
        </mxCell>
        <mxCell id="JaPePX_1LT8RlTslirHy-4" value="" style="group;fontSize=16;fontFamily=Helvetica;fontColor=default;fillColor=none;gradientColor=none;html=1;" parent="1" vertex="1" connectable="0">
          <mxGeometry x="1750" y="626" width="520" height="79" as="geometry" />
        </mxCell>
        <mxCell id="JaPePX_1LT8RlTslirHy-5" value="" style="rounded=0;whiteSpace=wrap;html=1;fontSize=16;fillColor=#FFFFCC;strokeColor=none;fontFamily=Helvetica;fontColor=default;" parent="JaPePX_1LT8RlTslirHy-4" vertex="1">
          <mxGeometry width="519.9999999999999" height="79" as="geometry" />
        </mxCell>
        <mxCell id="JaPePX_1LT8RlTslirHy-6" value="&lt;font style=&quot;font-size: 14px;&quot;&gt;&lt;b&gt;package&lt;/b&gt;: &lt;i&gt;&lt;font face=&quot;Courier New&quot;&gt;medicalcenter&lt;/font&gt;&lt;/i&gt;&lt;/font&gt;" style="shape=umlFrame;whiteSpace=wrap;html=1;pointerEvents=0;fontSize=16;width=220;height=26;align=left;spacingLeft=8;spacingRight=8;fillColor=#fff2cc;strokeColor=#d6b656;fontFamily=Helvetica;fontColor=default;" parent="JaPePX_1LT8RlTslirHy-4" vertex="1">
          <mxGeometry width="519.9999999999999" height="79" as="geometry" />
        </mxCell>
        <mxCell id="JaPePX_1LT8RlTslirHy-9" value="Use" style="endArrow=open;endSize=10;dashed=1;html=1;rounded=0;fontFamily=Helvetica;fontSize=12;fontColor=default;curved=1;labelBackgroundColor=default;strokeColor=default;shape=connector;" parent="1" source="VwFVLo1W44RPXp0Loa5u-6" target="08od-bibOzEyOUq_gxU7-14" edge="1">
          <mxGeometry width="160" relative="1" as="geometry">
            <mxPoint x="1740" y="482.3416370106761" as="sourcePoint" />
            <mxPoint x="1897" y="589" as="targetPoint" />
          </mxGeometry>
        </mxCell>
        <mxCell id="JaPePX_1LT8RlTslirHy-15" value="Use" style="endArrow=open;endSize=10;dashed=1;html=1;rounded=0;fontFamily=Helvetica;fontSize=12;fontColor=default;curved=1;labelBackgroundColor=default;strokeColor=default;shape=connector;" parent="1" source="VwFVLo1W44RPXp0Loa5u-3" target="08od-bibOzEyOUq_gxU7-14" edge="1">
          <mxGeometry width="160" relative="1" as="geometry">
            <mxPoint x="1740" y="1149.9430604982208" as="sourcePoint" />
            <mxPoint x="1670" y="535" as="targetPoint" />
          </mxGeometry>
        </mxCell>
        <mxCell id="JaPePX_1LT8RlTslirHy-25" value="Use" style="endArrow=open;endSize=10;dashed=1;html=1;rounded=0;fontFamily=Helvetica;fontSize=12;fontColor=default;curved=1;labelBackgroundColor=default;strokeColor=default;shape=connector;" parent="1" source="JaPePX_1LT8RlTslirHy-7" target="VwFVLo1W44RPXp0Loa5u-3" edge="1">
          <mxGeometry width="160" relative="1" as="geometry">
            <mxPoint x="1786" y="1167" as="sourcePoint" />
            <mxPoint x="1660" y="1126" as="targetPoint" />
          </mxGeometry>
        </mxCell>
        <mxCell id="JaPePX_1LT8RlTslirHy-26" value="Use" style="endArrow=open;endSize=10;dashed=1;html=1;rounded=0;fontFamily=Helvetica;fontSize=12;fontColor=default;curved=1;labelBackgroundColor=default;strokeColor=default;shape=connector;" parent="1" source="JaPePX_1LT8RlTslirHy-7" target="VwFVLo1W44RPXp0Loa5u-6" edge="1">
          <mxGeometry x="-0.0833" width="160" relative="1" as="geometry">
            <mxPoint x="2036" y="829" as="sourcePoint" />
            <mxPoint x="2036" y="880" as="targetPoint" />
            <mxPoint as="offset" />
          </mxGeometry>
        </mxCell>
        <mxCell id="JaPePX_1LT8RlTslirHy-28" value="InMemoryDatabase" style="swimlane;fontStyle=1;align=center;verticalAlign=middle;childLayout=stackLayout;horizontal=1;startSize=26;horizontalStack=0;resizeParent=1;resizeParentMax=0;resizeLast=0;collapsible=1;marginBottom=0;whiteSpace=wrap;html=1;fontSize=14;fillColor=#e1d5e7;strokeColor=#9673a6;" parent="1" vertex="1">
          <mxGeometry x="1784" y="1163" width="433" height="430" as="geometry">
            <mxRectangle x="1784" y="1163" width="163" height="29" as="alternateBounds" />
          </mxGeometry>
        </mxCell>
        <mxCell id="JaPePX_1LT8RlTslirHy-17" value="+ &lt;u&gt;medicalCenters: MedicalCenter[]&lt;/u&gt;" style="text;strokeColor=none;fillColor=none;align=left;verticalAlign=middle;spacingLeft=4;spacingRight=4;overflow=hidden;rotatable=0;points=[[0,0.5],[1,0.5]];portConstraint=eastwest;whiteSpace=wrap;html=1;fontSize=12;fontFamily=Helvetica;fontColor=default;" parent="JaPePX_1LT8RlTslirHy-28" vertex="1">
          <mxGeometry y="26" width="433" height="22" as="geometry" />
        </mxCell>
        <mxCell id="JaPePX_1LT8RlTslirHy-23" value="+ &lt;u&gt;patients: Patient[]&lt;/u&gt;" style="text;strokeColor=none;fillColor=none;align=left;verticalAlign=middle;spacingLeft=4;spacingRight=4;overflow=hidden;rotatable=0;points=[[0,0.5],[1,0.5]];portConstraint=eastwest;whiteSpace=wrap;html=1;fontSize=12;fontFamily=Helvetica;fontColor=default;" parent="JaPePX_1LT8RlTslirHy-28" vertex="1">
          <mxGeometry y="48" width="433" height="22" as="geometry" />
        </mxCell>
        <mxCell id="JaPePX_1LT8RlTslirHy-22" value="+ &lt;u&gt;doctors: Doctor[]&lt;/u&gt;" style="text;strokeColor=none;fillColor=none;align=left;verticalAlign=middle;spacingLeft=4;spacingRight=4;overflow=hidden;rotatable=0;points=[[0,0.5],[1,0.5]];portConstraint=eastwest;whiteSpace=wrap;html=1;fontSize=12;fontFamily=Helvetica;fontColor=default;" parent="JaPePX_1LT8RlTslirHy-28" vertex="1">
          <mxGeometry y="70" width="433" height="22" as="geometry" />
        </mxCell>
        <mxCell id="JaPePX_1LT8RlTslirHy-30" value="" style="line;strokeWidth=1;fillColor=none;align=left;verticalAlign=top;spacingTop=-1;spacingLeft=3;spacingRight=3;rotatable=0;labelPosition=right;points=[];portConstraint=eastwest;strokeColor=inherit;fontSize=16;" parent="JaPePX_1LT8RlTslirHy-28" vertex="1">
          <mxGeometry y="92" width="433" height="8" as="geometry" />
        </mxCell>
        <mxCell id="JaPePX_1LT8RlTslirHy-31" value="&lt;b style=&quot;font-size: 12px;&quot;&gt;+ InMemoryDatabase(&lt;/b&gt;&lt;b style=&quot;font-size: 12px;&quot;&gt;)&lt;/b&gt;" style="text;strokeColor=none;fillColor=none;align=left;verticalAlign=middle;spacingLeft=4;spacingRight=4;overflow=hidden;rotatable=0;points=[[0,0.5],[1,0.5]];portConstraint=eastwest;whiteSpace=wrap;html=1;fontSize=12;spacing=2;spacingBottom=0;" parent="JaPePX_1LT8RlTslirHy-28" vertex="1">
          <mxGeometry y="100" width="433" height="22" as="geometry" />
        </mxCell>
        <mxCell id="Ns5ZZZsFx_izSCVhpyIt-11" value="&lt;b style=&quot;border-color: var(--border-color);&quot;&gt;@&lt;/b&gt;+ findMedicalCenter(&lt;font style=&quot;font-size: 10px;&quot;&gt;code: String&lt;/font&gt;)&lt;font style=&quot;font-size: 12px;&quot;&gt;: &lt;font style=&quot;font-size: 12px;&quot;&gt;Optional&amp;lt;MedicalCenter&amp;gt;&lt;/font&gt;&lt;/font&gt;" style="text;strokeColor=none;fillColor=none;align=left;verticalAlign=middle;spacingLeft=4;spacingRight=4;overflow=hidden;rotatable=0;points=[[0,0.5],[1,0.5]];portConstraint=eastwest;whiteSpace=wrap;html=1;fontSize=12;fontStyle=0" parent="JaPePX_1LT8RlTslirHy-28" vertex="1">
          <mxGeometry y="122" width="433" height="22" as="geometry" />
        </mxCell>
        <mxCell id="Ns5ZZZsFx_izSCVhpyIt-12" value="&lt;b style=&quot;border-color: var(--border-color);&quot;&gt;@&lt;/b&gt;+ findDoctor(&lt;font style=&quot;font-size: 10px;&quot;&gt;nid: String&lt;/font&gt;)&lt;font style=&quot;font-size: 12px;&quot;&gt;: &lt;font style=&quot;font-size: 12px;&quot;&gt;Optional&amp;lt;Doctor&amp;gt;&lt;/font&gt;&lt;/font&gt;" style="text;strokeColor=none;fillColor=none;align=left;verticalAlign=middle;spacingLeft=4;spacingRight=4;overflow=hidden;rotatable=0;points=[[0,0.5],[1,0.5]];portConstraint=eastwest;whiteSpace=wrap;html=1;fontSize=12;fontStyle=0" parent="JaPePX_1LT8RlTslirHy-28" vertex="1">
          <mxGeometry y="144" width="433" height="22" as="geometry" />
        </mxCell>
        <mxCell id="Ns5ZZZsFx_izSCVhpyIt-13" value="&lt;b style=&quot;border-color: var(--border-color);&quot;&gt;@&lt;/b&gt;+ findPatient(&lt;font style=&quot;font-size: 10px;&quot;&gt;nid: String&lt;/font&gt;)&lt;font style=&quot;font-size: 12px;&quot;&gt;: &lt;font style=&quot;font-size: 12px;&quot;&gt;Optional&amp;lt;Patient&amp;gt;&lt;/font&gt;&lt;/font&gt;" style="text;strokeColor=none;fillColor=none;align=left;verticalAlign=middle;spacingLeft=4;spacingRight=4;overflow=hidden;rotatable=0;points=[[0,0.5],[1,0.5]];portConstraint=eastwest;whiteSpace=wrap;html=1;fontSize=12;fontStyle=0" parent="JaPePX_1LT8RlTslirHy-28" vertex="1">
          <mxGeometry y="166" width="433" height="22" as="geometry" />
        </mxCell>
        <mxCell id="Ns5ZZZsFx_izSCVhpyIt-21" value="&lt;b style=&quot;border-color: var(--border-color);&quot;&gt;@&lt;/b&gt;+ listAllMedicalCenters(): MedicalCenter[]" style="text;strokeColor=none;fillColor=none;align=left;verticalAlign=middle;spacingLeft=4;spacingRight=4;overflow=hidden;rotatable=0;points=[[0,0.5],[1,0.5]];portConstraint=eastwest;whiteSpace=wrap;html=1;fontSize=12;" parent="JaPePX_1LT8RlTslirHy-28" vertex="1">
          <mxGeometry y="188" width="433" height="22" as="geometry" />
        </mxCell>
        <mxCell id="Ns5ZZZsFx_izSCVhpyIt-14" value="&lt;b style=&quot;border-color: var(--border-color);&quot;&gt;@&lt;/b&gt;+ listAllDoctors(): Doctor[]" style="text;strokeColor=none;fillColor=none;align=left;verticalAlign=middle;spacingLeft=4;spacingRight=4;overflow=hidden;rotatable=0;points=[[0,0.5],[1,0.5]];portConstraint=eastwest;whiteSpace=wrap;html=1;fontSize=12;" parent="JaPePX_1LT8RlTslirHy-28" vertex="1">
          <mxGeometry y="210" width="433" height="22" as="geometry" />
        </mxCell>
        <mxCell id="Ns5ZZZsFx_izSCVhpyIt-15" value="&lt;b style=&quot;border-color: var(--border-color);&quot;&gt;@&lt;/b&gt;+ listAllDoctorsByMedicalService(&lt;font style=&quot;font-size: 10px;&quot;&gt;Class&amp;lt;MedicalService&amp;gt; type&lt;/font&gt;): Doctor[]" style="text;strokeColor=none;fillColor=none;align=left;verticalAlign=middle;spacingLeft=4;spacingRight=4;overflow=hidden;rotatable=0;points=[[0,0.5],[1,0.5]];portConstraint=eastwest;whiteSpace=wrap;html=1;fontSize=12;" parent="JaPePX_1LT8RlTslirHy-28" vertex="1">
          <mxGeometry y="232" width="433" height="22" as="geometry" />
        </mxCell>
        <mxCell id="Ns5ZZZsFx_izSCVhpyIt-16" value="&lt;b style=&quot;border-color: var(--border-color);&quot;&gt;@&lt;/b&gt;+ listAllGeneralisticDoctors(): Doctor[]" style="text;strokeColor=none;fillColor=none;align=left;verticalAlign=middle;spacingLeft=4;spacingRight=4;overflow=hidden;rotatable=0;points=[[0,0.5],[1,0.5]];portConstraint=eastwest;whiteSpace=wrap;html=1;fontSize=12;" parent="JaPePX_1LT8RlTslirHy-28" vertex="1">
          <mxGeometry y="254" width="433" height="22" as="geometry" />
        </mxCell>
        <mxCell id="Ns5ZZZsFx_izSCVhpyIt-20" value="&lt;b&gt;@&lt;/b&gt;+ listAllPatientsByAgeRange(&lt;font style=&quot;font-size: 10px;&quot;&gt;start: int, end: int&lt;/font&gt;): Patient[]" style="text;strokeColor=none;fillColor=none;align=left;verticalAlign=middle;spacingLeft=4;spacingRight=4;overflow=hidden;rotatable=0;points=[[0,0.5],[1,0.5]];portConstraint=eastwest;whiteSpace=wrap;html=1;fontSize=12;" parent="JaPePX_1LT8RlTslirHy-28" vertex="1">
          <mxGeometry y="276" width="433" height="22" as="geometry" />
        </mxCell>
        <mxCell id="Ns5ZZZsFx_izSCVhpyIt-19" value="&lt;b style=&quot;border-color: var(--border-color);&quot;&gt;@&lt;/b&gt;+ listAllPatientsByBloodType(&lt;font style=&quot;font-size: 10px;&quot;&gt;bloodType: BloodType&lt;/font&gt;): Patient[]" style="text;strokeColor=none;fillColor=none;align=left;verticalAlign=middle;spacingLeft=4;spacingRight=4;overflow=hidden;rotatable=0;points=[[0,0.5],[1,0.5]];portConstraint=eastwest;whiteSpace=wrap;html=1;fontSize=12;" parent="JaPePX_1LT8RlTslirHy-28" vertex="1">
          <mxGeometry y="298" width="433" height="22" as="geometry" />
        </mxCell>
        <mxCell id="Ns5ZZZsFx_izSCVhpyIt-18" value="&lt;b style=&quot;border-color: var(--border-color);&quot;&gt;@&lt;/b&gt;+ listAllPatients(): Patient[]" style="text;strokeColor=none;fillColor=none;align=left;verticalAlign=middle;spacingLeft=4;spacingRight=4;overflow=hidden;rotatable=0;points=[[0,0.5],[1,0.5]];portConstraint=eastwest;whiteSpace=wrap;html=1;fontSize=12;" parent="JaPePX_1LT8RlTslirHy-28" vertex="1">
          <mxGeometry y="320" width="433" height="22" as="geometry" />
        </mxCell>
        <mxCell id="Ns5ZZZsFx_izSCVhpyIt-17" value="&lt;b style=&quot;border-color: var(--border-color);&quot;&gt;@&lt;/b&gt;+ listAllDoctorsBySpeciality(&lt;font style=&quot;font-size: 10px;&quot;&gt;Class&amp;lt;MedicalService&amp;gt; type&lt;/font&gt;): Doctor[]" style="text;strokeColor=none;fillColor=none;align=left;verticalAlign=middle;spacingLeft=4;spacingRight=4;overflow=hidden;rotatable=0;points=[[0,0.5],[1,0.5]];portConstraint=eastwest;whiteSpace=wrap;html=1;fontSize=12;" parent="JaPePX_1LT8RlTslirHy-28" vertex="1">
          <mxGeometry y="342" width="433" height="22" as="geometry" />
        </mxCell>
        <mxCell id="Ns5ZZZsFx_izSCVhpyIt-26" value="&lt;b style=&quot;border-color: var(--border-color);&quot;&gt;@&lt;/b&gt;+ save(&lt;font style=&quot;font-size: 10px;&quot;&gt;medicalCenter: MedicalCenter&lt;/font&gt;)&lt;font style=&quot;font-size: 12px;&quot;&gt;: &lt;font style=&quot;font-size: 12px;&quot;&gt;MedicalCenter&lt;/font&gt;&lt;/font&gt;" style="text;strokeColor=none;fillColor=none;align=left;verticalAlign=middle;spacingLeft=4;spacingRight=4;overflow=hidden;rotatable=0;points=[[0,0.5],[1,0.5]];portConstraint=eastwest;whiteSpace=wrap;html=1;fontSize=12;fontStyle=0" parent="JaPePX_1LT8RlTslirHy-28" vertex="1">
          <mxGeometry y="364" width="433" height="22" as="geometry" />
        </mxCell>
        <mxCell id="Ns5ZZZsFx_izSCVhpyIt-27" value="&lt;b style=&quot;border-color: var(--border-color);&quot;&gt;@&lt;/b&gt;+ save(&lt;font style=&quot;font-size: 10px;&quot;&gt;doctor: Doctor&lt;/font&gt;)&lt;font style=&quot;font-size: 12px;&quot;&gt;: Doctor&lt;/font&gt;" style="text;strokeColor=none;fillColor=none;align=left;verticalAlign=middle;spacingLeft=4;spacingRight=4;overflow=hidden;rotatable=0;points=[[0,0.5],[1,0.5]];portConstraint=eastwest;whiteSpace=wrap;html=1;fontSize=12;fontStyle=0" parent="JaPePX_1LT8RlTslirHy-28" vertex="1">
          <mxGeometry y="386" width="433" height="22" as="geometry" />
        </mxCell>
        <mxCell id="Ns5ZZZsFx_izSCVhpyIt-28" value="&lt;b style=&quot;border-color: var(--border-color);&quot;&gt;@&lt;/b&gt;+ save(&lt;font style=&quot;font-size: 10px;&quot;&gt;patient: Patient&lt;/font&gt;)&lt;font style=&quot;font-size: 12px;&quot;&gt;: Patient&lt;/font&gt;" style="text;strokeColor=none;fillColor=none;align=left;verticalAlign=middle;spacingLeft=4;spacingRight=4;overflow=hidden;rotatable=0;points=[[0,0.5],[1,0.5]];portConstraint=eastwest;whiteSpace=wrap;html=1;fontSize=12;fontStyle=0" parent="JaPePX_1LT8RlTslirHy-28" vertex="1">
          <mxGeometry y="408" width="433" height="22" as="geometry" />
        </mxCell>
        <mxCell id="JaPePX_1LT8RlTslirHy-32" value="" style="endArrow=block;dashed=1;endFill=0;endSize=10;html=1;rounded=0;fontFamily=Helvetica;fontSize=12;fontColor=default;labelBackgroundColor=default;strokeColor=default;shape=connector;edgeStyle=orthogonalEdgeStyle;" parent="1" source="JaPePX_1LT8RlTslirHy-28" target="mFYp5i1Flnggu8tVTRYL-1" edge="1">
          <mxGeometry width="160" relative="1" as="geometry">
            <mxPoint x="2172" y="1162" as="sourcePoint" />
            <mxPoint x="2332" y="1162" as="targetPoint" />
            <Array as="points">
              <mxPoint x="2243" y="1176" />
              <mxPoint x="2243" y="794" />
            </Array>
          </mxGeometry>
        </mxCell>
        <mxCell id="JaPePX_1LT8RlTslirHy-36" value="0..n" style="endArrow=open;html=1;endSize=10;startArrow=diamondThin;startSize=14;startFill=0;edgeStyle=orthogonalEdgeStyle;align=left;verticalAlign=middle;rounded=0;labelBackgroundColor=default;fontFamily=Helvetica;fontSize=12;fontColor=default;shape=connector;" parent="1" source="JaPePX_1LT8RlTslirHy-27" target="9s62NMN8IXOqiIoqj4Az-49" edge="1">
          <mxGeometry x="-0.9845" y="-16" relative="1" as="geometry">
            <mxPoint x="533" y="257" as="sourcePoint" />
            <mxPoint x="621" y="166" as="targetPoint" />
            <Array as="points">
              <mxPoint x="583" y="270" />
              <mxPoint x="583" y="393" />
              <mxPoint x="1331" y="393" />
              <mxPoint x="1331" y="443" />
            </Array>
            <mxPoint as="offset" />
          </mxGeometry>
        </mxCell>
        <mxCell id="JaPePX_1LT8RlTslirHy-7" value="&lt;p style=&quot;margin:0px;margin-top:4px;text-align:center;&quot;&gt;&lt;b&gt;Main&lt;/b&gt;&lt;/p&gt;&lt;hr size=&quot;1&quot;&gt;&lt;div style=&quot;height:2px;&quot;&gt;&lt;b&gt;&amp;nbsp;+ main(String[]): void&lt;/b&gt;&lt;br&gt;&lt;/div&gt;" style="verticalAlign=middle;align=left;overflow=fill;fontSize=12;fontFamily=Helvetica;html=1;whiteSpace=wrap;fillColor=#fff2cc;strokeColor=#d6b656;fontColor=default;" parent="1" vertex="1">
          <mxGeometry x="2013" y="637" width="238.69" height="54.17" as="geometry" />
        </mxCell>
        <mxCell id="8mJt0CeaD_uCKH32HhNH-1" value="Nurse" style="swimlane;fontStyle=1;align=center;verticalAlign=middle;childLayout=stackLayout;horizontal=1;startSize=26;horizontalStack=0;resizeParent=1;resizeParentMax=0;resizeLast=0;collapsible=1;marginBottom=0;whiteSpace=wrap;html=1;fontSize=14;fillColor=#d5e8d4;strokeColor=#82b366;" parent="1" vertex="1">
          <mxGeometry x="956.5" y="414" width="320.5" height="168" as="geometry">
            <mxRectangle x="561" y="253" width="195" height="29" as="alternateBounds" />
          </mxGeometry>
        </mxCell>
        <mxCell id="08od-bibOzEyOUq_gxU7-1" value="+&amp;nbsp;&lt;u style=&quot;font-size: 10px;&quot;&gt;MEDICAL_EMPLOYEE_TYPE: String&lt;/u&gt;&lt;span style=&quot;font-size: 10px;&quot;&gt; =&lt;/span&gt;&lt;span style=&quot;font-size: 10px;&quot;&gt;&lt;font style=&quot;font-size: 10px;&quot;&gt;&amp;nbsp;&lt;/font&gt;&lt;font style=&quot;text-decoration-line: underline; font-size: 10px;&quot; face=&quot;Courier New&quot;&gt;&quot;Nurse&quot;&lt;/font&gt;&lt;/span&gt;" style="text;strokeColor=none;fillColor=none;align=left;verticalAlign=middle;spacingLeft=4;spacingRight=4;overflow=hidden;rotatable=0;points=[[0,0.5],[1,0.5]];portConstraint=eastwest;whiteSpace=wrap;html=1;fontSize=10;fontStyle=0" parent="8mJt0CeaD_uCKH32HhNH-1" vertex="1">
          <mxGeometry y="26" width="320.5" height="22" as="geometry" />
        </mxCell>
        <mxCell id="8mJt0CeaD_uCKH32HhNH-3" value="" style="line;strokeWidth=1;fillColor=none;align=left;verticalAlign=top;spacingTop=-1;spacingLeft=3;spacingRight=3;rotatable=0;labelPosition=right;points=[];portConstraint=eastwest;strokeColor=inherit;fontSize=16;" parent="8mJt0CeaD_uCKH32HhNH-1" vertex="1">
          <mxGeometry y="48" width="320.5" height="8" as="geometry" />
        </mxCell>
        <mxCell id="8mJt0CeaD_uCKH32HhNH-4" value="&lt;b style=&quot;font-size: 12px;&quot;&gt;+ Nurse(&lt;/b&gt;&lt;font style=&quot;font-size: 10px;&quot;&gt;type: String,&lt;br&gt;&amp;nbsp; &amp;nbsp; &amp;nbsp; &amp;nbsp; &amp;nbsp;id: String, name: String&lt;/font&gt;&lt;b style=&quot;font-size: 12px;&quot;&gt;)&lt;/b&gt;" style="text;strokeColor=none;fillColor=none;align=left;verticalAlign=middle;spacingLeft=4;spacingRight=4;overflow=hidden;rotatable=0;points=[[0,0.5],[1,0.5]];portConstraint=eastwest;whiteSpace=wrap;html=1;fontSize=12;spacing=2;spacingBottom=0;" parent="8mJt0CeaD_uCKH32HhNH-1" vertex="1">
          <mxGeometry y="56" width="320.5" height="34" as="geometry" />
        </mxCell>
        <mxCell id="8mJt0CeaD_uCKH32HhNH-5" value="&lt;b style=&quot;font-size: 12px;&quot;&gt;+&amp;nbsp;&lt;/b&gt;&lt;b style=&quot;border-color: var(--border-color);&quot;&gt;Nurse&lt;/b&gt;&lt;b style=&quot;font-size: 12px;&quot;&gt;(&lt;/b&gt;&lt;font style=&quot;font-size: 10px;&quot;&gt;type: String,&lt;br&gt;&amp;nbsp; &amp;nbsp; &amp;nbsp; &amp;nbsp; &amp;nbsp;nid: String, name: String, phone: String&lt;/font&gt;&lt;b style=&quot;font-size: 12px;&quot;&gt;)&lt;/b&gt;" style="text;strokeColor=none;fillColor=none;align=left;verticalAlign=middle;spacingLeft=4;spacingRight=4;overflow=hidden;rotatable=0;points=[[0,0.5],[1,0.5]];portConstraint=eastwest;whiteSpace=wrap;html=1;fontSize=12;spacing=2;spacingBottom=0;" parent="8mJt0CeaD_uCKH32HhNH-1" vertex="1">
          <mxGeometry y="90" width="320.5" height="34" as="geometry" />
        </mxCell>
        <mxCell id="BV2OHTJGG2pNwfcFUSOa-4" value="&lt;font style=&quot;font-size: 12px;&quot;&gt;&lt;font style=&quot;font-size: 12px;&quot;&gt;&lt;font style=&quot;font-size: 12px;&quot;&gt;&lt;b&gt;@&lt;/b&gt;+&amp;nbsp;getEmployeeType&lt;/font&gt;(&lt;/font&gt;&lt;font style=&quot;font-size: 12px;&quot;&gt;): String&lt;/font&gt;&lt;/font&gt;" style="text;strokeColor=none;fillColor=none;align=left;verticalAlign=middle;spacingLeft=4;spacingRight=4;overflow=hidden;rotatable=0;points=[[0,0.5],[1,0.5]];portConstraint=eastwest;whiteSpace=wrap;html=1;fontSize=12;fontFamily=Helvetica;fontColor=default;fontStyle=0" parent="8mJt0CeaD_uCKH32HhNH-1" vertex="1">
          <mxGeometry y="124" width="320.5" height="22" as="geometry" />
        </mxCell>
        <mxCell id="8mJt0CeaD_uCKH32HhNH-6" value="&lt;font style=&quot;font-size: 12px;&quot;&gt;&lt;font style=&quot;font-size: 12px;&quot;&gt;&lt;font style=&quot;font-size: 12px;&quot;&gt;&lt;b&gt;@&lt;/b&gt;#&amp;nbsp;defineAttrs&lt;/font&gt;(&lt;/font&gt;&lt;font style=&quot;font-size: 12px;&quot;&gt;): String&lt;/font&gt;&lt;/font&gt;" style="text;strokeColor=none;fillColor=none;align=left;verticalAlign=middle;spacingLeft=4;spacingRight=4;overflow=hidden;rotatable=0;points=[[0,0.5],[1,0.5]];portConstraint=eastwest;whiteSpace=wrap;html=1;fontSize=12;fontFamily=Helvetica;fontColor=default;" parent="8mJt0CeaD_uCKH32HhNH-1" vertex="1">
          <mxGeometry y="146" width="320.5" height="22" as="geometry" />
        </mxCell>
        <mxCell id="xznpKNi5A-erC4lOgOd5-1" value="&lt;i&gt;&amp;lt;&amp;lt;Interface&amp;gt;&amp;gt;&lt;br&gt;&lt;/i&gt;&lt;b&gt;&lt;font style=&quot;font-size: 14px;&quot;&gt;CanRemitPatientToSpecialist&lt;/font&gt;&lt;/b&gt;" style="swimlane;fontStyle=0;align=center;verticalAlign=middle;childLayout=stackLayout;horizontal=1;startSize=38;horizontalStack=0;resizeParent=1;resizeParentMax=0;resizeLast=0;collapsible=0;marginBottom=0;html=1;whiteSpace=wrap;fontFamily=Helvetica;fontSize=12;fillColor=#dae8fc;strokeColor=#6c8ebf;" parent="1" vertex="1">
          <mxGeometry x="900" y="258" width="219" height="96" as="geometry" />
        </mxCell>
        <mxCell id="xznpKNi5A-erC4lOgOd5-2" value="" style="line;strokeWidth=1;fillColor=#d5e8d4;align=left;verticalAlign=middle;spacingTop=-1;spacingLeft=3;spacingRight=3;rotatable=0;labelPosition=right;points=[];portConstraint=eastwest;fontFamily=Helvetica;fontSize=12;html=1;strokeColor=#82b366;" parent="xznpKNi5A-erC4lOgOd5-1" vertex="1">
          <mxGeometry y="38" width="219" height="8" as="geometry" />
        </mxCell>
        <mxCell id="xznpKNi5A-erC4lOgOd5-3" value="+ remit&lt;font style=&quot;font-size: 12px;&quot;&gt;PatientTo&lt;/font&gt;(&lt;br style=&quot;font-size: 12px;&quot;&gt;&amp;nbsp; &amp;nbsp; &amp;nbsp; &amp;nbsp; &lt;font style=&quot;font-size: 10px;&quot;&gt;patient:&amp;nbsp;&lt;font style=&quot;font-size: 10px;&quot;&gt;Patient,&lt;br&gt;&amp;nbsp; &amp;nbsp; &amp;nbsp; &amp;nbsp; &amp;nbsp; specialist: Doctor&lt;/font&gt;&lt;/font&gt;): &lt;font style=&quot;font-size: 10px;&quot;&gt;MedicalAppointment&lt;/font&gt;" style="text;align=left;verticalAlign=middle;spacingLeft=4;spacingRight=4;overflow=hidden;rotatable=0;points=[[0,0.5],[1,0.5]];portConstraint=eastwest;whiteSpace=wrap;html=1;fontSize=12;" parent="xznpKNi5A-erC4lOgOd5-1" vertex="1">
          <mxGeometry y="46" width="219" height="50" as="geometry" />
        </mxCell>
        <mxCell id="Zpq2iblePXxYn9alLh3R-2" value="HeadNurse" style="swimlane;fontStyle=1;align=center;verticalAlign=middle;childLayout=stackLayout;horizontal=1;startSize=26;horizontalStack=0;resizeParent=1;resizeParentMax=0;resizeLast=0;collapsible=1;marginBottom=0;whiteSpace=wrap;html=1;fontSize=14;fillColor=#d5e8d4;strokeColor=#82b366;" vertex="1" parent="1">
          <mxGeometry x="956.5" y="630" width="320.5" height="124" as="geometry">
            <mxRectangle x="561" y="253" width="195" height="29" as="alternateBounds" />
          </mxGeometry>
        </mxCell>
        <mxCell id="Zpq2iblePXxYn9alLh3R-4" value="" style="line;strokeWidth=1;fillColor=none;align=left;verticalAlign=top;spacingTop=-1;spacingLeft=3;spacingRight=3;rotatable=0;labelPosition=right;points=[];portConstraint=eastwest;strokeColor=inherit;fontSize=16;" vertex="1" parent="Zpq2iblePXxYn9alLh3R-2">
          <mxGeometry y="26" width="320.5" height="8" as="geometry" />
        </mxCell>
        <mxCell id="Zpq2iblePXxYn9alLh3R-5" value="&lt;b style=&quot;font-size: 12px;&quot;&gt;+ Nurse(&lt;/b&gt;&lt;font style=&quot;font-size: 10px;&quot;&gt;type: String,&lt;br&gt;&amp;nbsp; &amp;nbsp; &amp;nbsp; &amp;nbsp; &amp;nbsp;id: String, name: String&lt;/font&gt;&lt;b style=&quot;font-size: 12px;&quot;&gt;)&lt;/b&gt;" style="text;strokeColor=none;fillColor=none;align=left;verticalAlign=middle;spacingLeft=4;spacingRight=4;overflow=hidden;rotatable=0;points=[[0,0.5],[1,0.5]];portConstraint=eastwest;whiteSpace=wrap;html=1;fontSize=12;spacing=2;spacingBottom=0;" vertex="1" parent="Zpq2iblePXxYn9alLh3R-2">
          <mxGeometry y="34" width="320.5" height="34" as="geometry" />
        </mxCell>
        <mxCell id="Zpq2iblePXxYn9alLh3R-6" value="&lt;b style=&quot;font-size: 12px;&quot;&gt;+&amp;nbsp;&lt;/b&gt;&lt;b style=&quot;border-color: var(--border-color);&quot;&gt;Nurse&lt;/b&gt;&lt;b style=&quot;font-size: 12px;&quot;&gt;(&lt;/b&gt;&lt;font style=&quot;font-size: 10px;&quot;&gt;type: String,&lt;br&gt;&amp;nbsp; &amp;nbsp; &amp;nbsp; &amp;nbsp; &amp;nbsp;nid: String, name: String, phone: String&lt;/font&gt;&lt;b style=&quot;font-size: 12px;&quot;&gt;)&lt;/b&gt;" style="text;strokeColor=none;fillColor=none;align=left;verticalAlign=middle;spacingLeft=4;spacingRight=4;overflow=hidden;rotatable=0;points=[[0,0.5],[1,0.5]];portConstraint=eastwest;whiteSpace=wrap;html=1;fontSize=12;spacing=2;spacingBottom=0;" vertex="1" parent="Zpq2iblePXxYn9alLh3R-2">
          <mxGeometry y="68" width="320.5" height="34" as="geometry" />
        </mxCell>
        <mxCell id="Zpq2iblePXxYn9alLh3R-11" value="&lt;b&gt;@&lt;/b&gt;+ remitPatientTo(&lt;font style=&quot;font-size: 10px;&quot;&gt;Patient, MedicalCenter&lt;/font&gt;): &lt;font style=&quot;font-size: 10px;&quot;&gt;MedicalAppointment&lt;/font&gt;" style="text;strokeColor=none;fillColor=none;align=left;verticalAlign=middle;spacingLeft=4;spacingRight=4;overflow=hidden;rotatable=0;points=[[0,0.5],[1,0.5]];portConstraint=eastwest;whiteSpace=wrap;html=1;fontSize=12;" vertex="1" parent="Zpq2iblePXxYn9alLh3R-2">
          <mxGeometry y="102" width="320.5" height="22" as="geometry" />
        </mxCell>
        <mxCell id="Zpq2iblePXxYn9alLh3R-12" value="Extends" style="endArrow=block;endSize=10;endFill=0;html=1;rounded=0;fontFamily=Helvetica;fontSize=12;fontColor=default;edgeStyle=orthogonalEdgeStyle;fillColor=#008a00;strokeColor=#005700;" edge="1" parent="1" source="Zpq2iblePXxYn9alLh3R-2" target="8mJt0CeaD_uCKH32HhNH-1">
          <mxGeometry x="-0.2174" width="160" relative="1" as="geometry">
            <mxPoint x="682" y="514" as="sourcePoint" />
            <mxPoint x="787" y="363" as="targetPoint" />
            <Array as="points">
              <mxPoint x="1118" y="454" />
              <mxPoint x="1118" y="454" />
            </Array>
            <mxPoint as="offset" />
          </mxGeometry>
        </mxCell>
      </root>
    </mxGraphModel>
  </diagram>
</mxfile>
